%TF.GenerationSoftware,KiCad,Pcbnew,8.0.5*%
%TF.CreationDate,2024-11-08T20:04:10-05:00*%
%TF.ProjectId,Main,4d61696e-2e6b-4696-9361-645f70636258,rev?*%
%TF.SameCoordinates,Original*%
%TF.FileFunction,Drillmap*%
%TF.FilePolarity,Positive*%
%FSLAX45Y45*%
G04 Gerber Fmt 4.5, Leading zero omitted, Abs format (unit mm)*
G04 Created by KiCad (PCBNEW 8.0.5) date 2024-11-08 20:04:10*
%MOMM*%
%LPD*%
G01*
G04 APERTURE LIST*
%ADD10C,0.050000*%
%ADD11C,0.200000*%
%ADD12C,0.100000*%
G04 APERTURE END LIST*
D10*
X13353553Y-13053553D02*
G75*
G02*
X12853547Y-12553553I-3J500003D01*
G01*
X13357107Y-5407107D02*
X17500000Y-5407107D01*
X18000000Y-12550000D02*
G75*
G02*
X17500000Y-13050000I-500000J0D01*
G01*
X18000000Y-5907107D02*
X18000000Y-12550000D01*
X17500000Y-5407107D02*
G75*
G02*
X17999993Y-5907107I0J-499993D01*
G01*
X12853553Y-12553553D02*
X12857107Y-5907107D01*
X17500000Y-13050000D02*
X13353553Y-13053553D01*
X12857107Y-5907107D02*
G75*
G02*
X13357107Y-5407107I499999J1D01*
G01*
D11*
D12*
X12988553Y-6038553D02*
X13018553Y-6068553D01*
X13018553Y-6038553D02*
X12988553Y-6068553D01*
X13038553Y-6488553D02*
X13068553Y-6518553D01*
X13068553Y-6488553D02*
X13038553Y-6518553D01*
X13038553Y-6738553D02*
X13068553Y-6768553D01*
X13068553Y-6738553D02*
X13038553Y-6768553D01*
X13113553Y-7313553D02*
X13143553Y-7343553D01*
X13143553Y-7313553D02*
X13113553Y-7343553D01*
X13138553Y-10173553D02*
X13168553Y-10203553D01*
X13168553Y-10173553D02*
X13138553Y-10203553D01*
X13138553Y-10803553D02*
X13168553Y-10833553D01*
X13168553Y-10803553D02*
X13138553Y-10833553D01*
X13188553Y-8388553D02*
X13218553Y-8418553D01*
X13218553Y-8388553D02*
X13188553Y-8418553D01*
X13188553Y-8813553D02*
X13218553Y-8843553D01*
X13218553Y-8813553D02*
X13188553Y-8843553D01*
X13213553Y-9738553D02*
X13243553Y-9768553D01*
X13243553Y-9738553D02*
X13213553Y-9768553D01*
X13438553Y-9402553D02*
X13468553Y-9432553D01*
X13468553Y-9402553D02*
X13438553Y-9432553D01*
X13438553Y-10538553D02*
X13468553Y-10568553D01*
X13468553Y-10538553D02*
X13438553Y-10568553D01*
X13488553Y-6588553D02*
X13518553Y-6618553D01*
X13518553Y-6588553D02*
X13488553Y-6618553D01*
X13488553Y-7438553D02*
X13518553Y-7468553D01*
X13518553Y-7438553D02*
X13488553Y-7468553D01*
X13488553Y-11488553D02*
X13518553Y-11518553D01*
X13518553Y-11488553D02*
X13488553Y-11518553D01*
X13498553Y-9181985D02*
X13528553Y-9211985D01*
X13528553Y-9181985D02*
X13498553Y-9211985D01*
X13498553Y-10438553D02*
X13528553Y-10468553D01*
X13528553Y-10438553D02*
X13498553Y-10468553D01*
X13558553Y-9239140D02*
X13588553Y-9269140D01*
X13588553Y-9239140D02*
X13558553Y-9269140D01*
X13558553Y-10338553D02*
X13588553Y-10368553D01*
X13588553Y-10338553D02*
X13558553Y-10368553D01*
X13588553Y-6538553D02*
X13618553Y-6568553D01*
X13618553Y-6538553D02*
X13588553Y-6568553D01*
X13588553Y-10588553D02*
X13618553Y-10618553D01*
X13618553Y-10588553D02*
X13588553Y-10618553D01*
X13618553Y-9588553D02*
X13648553Y-9618553D01*
X13648553Y-9588553D02*
X13618553Y-9618553D01*
X13638553Y-6638553D02*
X13668553Y-6668553D01*
X13668553Y-6638553D02*
X13638553Y-6668553D01*
X13638553Y-7378553D02*
X13668553Y-7408553D01*
X13668553Y-7378553D02*
X13638553Y-7408553D01*
X13688553Y-7588553D02*
X13718553Y-7618553D01*
X13718553Y-7588553D02*
X13688553Y-7618553D01*
X13688553Y-9788553D02*
X13718553Y-9818553D01*
X13718553Y-9788553D02*
X13688553Y-9818553D01*
X13738553Y-10038553D02*
X13768553Y-10068553D01*
X13768553Y-10038553D02*
X13738553Y-10068553D01*
X13748553Y-7668553D02*
X13778553Y-7698553D01*
X13778553Y-7668553D02*
X13748553Y-7698553D01*
X13808553Y-7748553D02*
X13838553Y-7778553D01*
X13838553Y-7748553D02*
X13808553Y-7778553D01*
X13808553Y-9558553D02*
X13838553Y-9588553D01*
X13838553Y-9558553D02*
X13808553Y-9588553D01*
X13868553Y-7828553D02*
X13898553Y-7858553D01*
X13898553Y-7828553D02*
X13868553Y-7858553D01*
X13894553Y-9282553D02*
X13924553Y-9312553D01*
X13924553Y-9282553D02*
X13894553Y-9312553D01*
X13938553Y-7908553D02*
X13968553Y-7938553D01*
X13968553Y-7908553D02*
X13938553Y-7938553D01*
X13938553Y-8538553D02*
X13968553Y-8568553D01*
X13968553Y-8538553D02*
X13938553Y-8568553D01*
X13988553Y-11338553D02*
X14018553Y-11368553D01*
X14018553Y-11338553D02*
X13988553Y-11368553D01*
X13998553Y-8138553D02*
X14028553Y-8168553D01*
X14028553Y-8138553D02*
X13998553Y-8168553D01*
X14138553Y-7563553D02*
X14168553Y-7593553D01*
X14168553Y-7563553D02*
X14138553Y-7593553D01*
X14261553Y-11842553D02*
X14291553Y-11872553D01*
X14291553Y-11842553D02*
X14261553Y-11872553D01*
X14290338Y-8692553D02*
X14320338Y-8722553D01*
X14320338Y-8692553D02*
X14290338Y-8722553D01*
X14311553Y-11992553D02*
X14341553Y-12022553D01*
X14341553Y-11992553D02*
X14311553Y-12022553D01*
X14341553Y-10242553D02*
X14371553Y-10272553D01*
X14371553Y-10242553D02*
X14341553Y-10272553D01*
X14485000Y-12185000D02*
X14515000Y-12215000D01*
X14515000Y-12185000D02*
X14485000Y-12215000D01*
X14485000Y-12735000D02*
X14515000Y-12765000D01*
X14515000Y-12735000D02*
X14485000Y-12765000D01*
X14561553Y-10592553D02*
X14591553Y-10622553D01*
X14591553Y-10592553D02*
X14561553Y-10622553D01*
X14561553Y-11592553D02*
X14591553Y-11622553D01*
X14591553Y-11592553D02*
X14561553Y-11622553D01*
X14578553Y-7998553D02*
X14608553Y-8028553D01*
X14608553Y-7998553D02*
X14578553Y-8028553D01*
X14578553Y-8788553D02*
X14608553Y-8818553D01*
X14608553Y-8788553D02*
X14578553Y-8818553D01*
X14638553Y-8068553D02*
X14668553Y-8098553D01*
X14668553Y-8068553D02*
X14638553Y-8098553D01*
X14638553Y-9038553D02*
X14668553Y-9068553D01*
X14668553Y-9038553D02*
X14638553Y-9068553D01*
X14701553Y-10242553D02*
X14731553Y-10272553D01*
X14731553Y-10242553D02*
X14701553Y-10272553D01*
X14701553Y-10338553D02*
X14731553Y-10368553D01*
X14731553Y-10338553D02*
X14701553Y-10368553D01*
X14711553Y-9192553D02*
X14741553Y-9222553D01*
X14741553Y-9192553D02*
X14711553Y-9222553D01*
X14711553Y-11842553D02*
X14741553Y-11872553D01*
X14741553Y-11842553D02*
X14711553Y-11872553D01*
X14761553Y-9342553D02*
X14791553Y-9372553D01*
X14791553Y-9342553D02*
X14761553Y-9372553D01*
X14761553Y-10842553D02*
X14791553Y-10872553D01*
X14791553Y-10842553D02*
X14761553Y-10872553D01*
X14761553Y-10942553D02*
X14791553Y-10972553D01*
X14791553Y-10942553D02*
X14761553Y-10972553D01*
X14761553Y-11683553D02*
X14791553Y-11713553D01*
X14791553Y-11683553D02*
X14761553Y-11713553D01*
X14831553Y-7982553D02*
X14861553Y-8012553D01*
X14861553Y-7982553D02*
X14831553Y-8012553D01*
X14835000Y-11535000D02*
X14865000Y-11565000D01*
X14865000Y-11535000D02*
X14835000Y-11565000D01*
X14835000Y-12385000D02*
X14865000Y-12415000D01*
X14865000Y-12385000D02*
X14835000Y-12415000D01*
X14838553Y-7788553D02*
X14868553Y-7818553D01*
X14868553Y-7788553D02*
X14838553Y-7818553D01*
X14885000Y-7085000D02*
X14915000Y-7115000D01*
X14915000Y-7085000D02*
X14885000Y-7115000D01*
X14888553Y-7588553D02*
X14918553Y-7618553D01*
X14918553Y-7588553D02*
X14888553Y-7618553D01*
X14951553Y-7522553D02*
X14981553Y-7552553D01*
X14981553Y-7522553D02*
X14951553Y-7552553D01*
X15085000Y-12385000D02*
X15115000Y-12415000D01*
X15115000Y-12385000D02*
X15085000Y-12415000D01*
X15208122Y-10092553D02*
X15238122Y-10122553D01*
X15238122Y-10092553D02*
X15208122Y-10122553D01*
X15208122Y-11742553D02*
X15238122Y-11772553D01*
X15238122Y-11742553D02*
X15208122Y-11772553D01*
X15211553Y-7792553D02*
X15241553Y-7822553D01*
X15241553Y-7792553D02*
X15211553Y-7822553D01*
X15261553Y-11908553D02*
X15291553Y-11938553D01*
X15291553Y-11908553D02*
X15261553Y-11938553D01*
X15268122Y-9599122D02*
X15298122Y-9629122D01*
X15298122Y-9599122D02*
X15268122Y-9629122D01*
X15328122Y-11445553D02*
X15358122Y-11475553D01*
X15358122Y-11445553D02*
X15328122Y-11475553D01*
X15351553Y-10642553D02*
X15381553Y-10672553D01*
X15381553Y-10642553D02*
X15351553Y-10672553D01*
X15361553Y-8992553D02*
X15391553Y-9022553D01*
X15391553Y-8992553D02*
X15361553Y-9022553D01*
X15361553Y-9342553D02*
X15391553Y-9372553D01*
X15391553Y-9342553D02*
X15361553Y-9372553D01*
X15361553Y-11942553D02*
X15391553Y-11972553D01*
X15391553Y-11942553D02*
X15361553Y-11972553D01*
X15388553Y-5728553D02*
X15418553Y-5758553D01*
X15418553Y-5728553D02*
X15388553Y-5758553D01*
X15388553Y-5848553D02*
X15418553Y-5878553D01*
X15418553Y-5848553D02*
X15388553Y-5878553D01*
X15388553Y-6203383D02*
X15418553Y-6233383D01*
X15418553Y-6203383D02*
X15388553Y-6233383D01*
X15388553Y-6538553D02*
X15418553Y-6568553D01*
X15418553Y-6538553D02*
X15388553Y-6568553D01*
X15421553Y-7852553D02*
X15451553Y-7882553D01*
X15451553Y-7852553D02*
X15421553Y-7882553D01*
X15461553Y-9842553D02*
X15491553Y-9872553D01*
X15491553Y-9842553D02*
X15461553Y-9872553D01*
X15462575Y-10938916D02*
X15492575Y-10968916D01*
X15492575Y-10938916D02*
X15462575Y-10968916D01*
X15535000Y-9235000D02*
X15565000Y-9265000D01*
X15565000Y-9235000D02*
X15535000Y-9265000D01*
X15585000Y-11835000D02*
X15615000Y-11865000D01*
X15615000Y-11835000D02*
X15585000Y-11865000D01*
X15661553Y-11992553D02*
X15691553Y-12022553D01*
X15691553Y-11992553D02*
X15661553Y-12022553D01*
X15761553Y-11785000D02*
X15791553Y-11815000D01*
X15791553Y-11785000D02*
X15761553Y-11815000D01*
X15788553Y-6263383D02*
X15818553Y-6293383D01*
X15818553Y-6263383D02*
X15788553Y-6293383D01*
X15788553Y-6538553D02*
X15818553Y-6568553D01*
X15818553Y-6538553D02*
X15788553Y-6568553D01*
X15838553Y-6138553D02*
X15868553Y-6168553D01*
X15868553Y-6138553D02*
X15838553Y-6168553D01*
X15848553Y-6388553D02*
X15878553Y-6418553D01*
X15878553Y-6388553D02*
X15848553Y-6418553D01*
X15885000Y-8985000D02*
X15915000Y-9015000D01*
X15915000Y-8985000D02*
X15885000Y-9015000D01*
X15911553Y-9392553D02*
X15941553Y-9422553D01*
X15941553Y-9392553D02*
X15911553Y-9422553D01*
X15911553Y-11492553D02*
X15941553Y-11522553D01*
X15941553Y-11492553D02*
X15911553Y-11522553D01*
X15911553Y-11785000D02*
X15941553Y-11815000D01*
X15941553Y-11785000D02*
X15911553Y-11815000D01*
X15911553Y-11942553D02*
X15941553Y-11972553D01*
X15941553Y-11942553D02*
X15911553Y-11972553D01*
X15985000Y-10785000D02*
X16015000Y-10815000D01*
X16015000Y-10785000D02*
X15985000Y-10815000D01*
X16038553Y-11088553D02*
X16068553Y-11118553D01*
X16068553Y-11088553D02*
X16038553Y-11118553D01*
X16038553Y-11265553D02*
X16068553Y-11295553D01*
X16068553Y-11265553D02*
X16038553Y-11295553D01*
X16085000Y-10985000D02*
X16115000Y-11015000D01*
X16115000Y-10985000D02*
X16085000Y-11015000D01*
X16085000Y-11585000D02*
X16115000Y-11615000D01*
X16115000Y-11585000D02*
X16085000Y-11615000D01*
X16138553Y-7378553D02*
X16168553Y-7408553D01*
X16168553Y-7378553D02*
X16138553Y-7408553D01*
X16138553Y-7638553D02*
X16168553Y-7668553D01*
X16168553Y-7638553D02*
X16138553Y-7668553D01*
X16161553Y-8392553D02*
X16191553Y-8422553D01*
X16191553Y-8392553D02*
X16161553Y-8422553D01*
X16161553Y-8842553D02*
X16191553Y-8872553D01*
X16191553Y-8842553D02*
X16161553Y-8872553D01*
X16161553Y-10842553D02*
X16191553Y-10872553D01*
X16191553Y-10842553D02*
X16161553Y-10872553D01*
X16211553Y-9242553D02*
X16241553Y-9272553D01*
X16241553Y-9242553D02*
X16211553Y-9272553D01*
X16221553Y-8235000D02*
X16251553Y-8265000D01*
X16251553Y-8235000D02*
X16221553Y-8265000D01*
X16238553Y-9938553D02*
X16268553Y-9968553D01*
X16268553Y-9938553D02*
X16238553Y-9968553D01*
X16288553Y-5938553D02*
X16318553Y-5968553D01*
X16318553Y-5938553D02*
X16288553Y-5968553D01*
X16288553Y-6088553D02*
X16318553Y-6118553D01*
X16318553Y-6088553D02*
X16288553Y-6118553D01*
X16311553Y-9342553D02*
X16341553Y-9372553D01*
X16341553Y-9342553D02*
X16311553Y-9372553D01*
X16335000Y-12585000D02*
X16365000Y-12615000D01*
X16365000Y-12585000D02*
X16335000Y-12615000D01*
X16394171Y-9681429D02*
X16424171Y-9711429D01*
X16424171Y-9681429D02*
X16394171Y-9711429D01*
X16421553Y-11792553D02*
X16451553Y-11822553D01*
X16451553Y-11792553D02*
X16421553Y-11822553D01*
X16435000Y-9035000D02*
X16465000Y-9065000D01*
X16465000Y-9035000D02*
X16435000Y-9065000D01*
X16438553Y-5788553D02*
X16468553Y-5818553D01*
X16468553Y-5788553D02*
X16438553Y-5818553D01*
X16445553Y-9326553D02*
X16475553Y-9356553D01*
X16475553Y-9326553D02*
X16445553Y-9356553D01*
X16461553Y-9724553D02*
X16491553Y-9754553D01*
X16491553Y-9724553D02*
X16461553Y-9754553D01*
X16538553Y-6438553D02*
X16568553Y-6468553D01*
X16568553Y-6438553D02*
X16538553Y-6468553D01*
X16538553Y-6838553D02*
X16568553Y-6868553D01*
X16568553Y-6838553D02*
X16538553Y-6868553D01*
X16538553Y-7138553D02*
X16568553Y-7168553D01*
X16568553Y-7138553D02*
X16538553Y-7168553D01*
X16538553Y-7238553D02*
X16568553Y-7268553D01*
X16568553Y-7238553D02*
X16538553Y-7268553D01*
X16538553Y-7388553D02*
X16568553Y-7418553D01*
X16568553Y-7388553D02*
X16538553Y-7418553D01*
X16711553Y-11942553D02*
X16741553Y-11972553D01*
X16741553Y-11942553D02*
X16711553Y-11972553D01*
X16711553Y-12592553D02*
X16741553Y-12622553D01*
X16741553Y-12592553D02*
X16711553Y-12622553D01*
X16781985Y-5781985D02*
X16811985Y-5811985D01*
X16811985Y-5781985D02*
X16781985Y-5811985D01*
X16838553Y-5838553D02*
X16868553Y-5868553D01*
X16868553Y-5838553D02*
X16838553Y-5868553D01*
X16838553Y-6588553D02*
X16868553Y-6618553D01*
X16868553Y-6588553D02*
X16838553Y-6618553D01*
X16838553Y-6788553D02*
X16868553Y-6818553D01*
X16868553Y-6788553D02*
X16838553Y-6818553D01*
X16838553Y-6988553D02*
X16868553Y-7018553D01*
X16868553Y-6988553D02*
X16838553Y-7018553D01*
X16838553Y-7138553D02*
X16868553Y-7168553D01*
X16868553Y-7138553D02*
X16838553Y-7168553D01*
X16838553Y-7338553D02*
X16868553Y-7368553D01*
X16868553Y-7338553D02*
X16838553Y-7368553D01*
X16838553Y-11088553D02*
X16868553Y-11118553D01*
X16868553Y-11088553D02*
X16838553Y-11118553D01*
X16838553Y-11188553D02*
X16868553Y-11218553D01*
X16868553Y-11188553D02*
X16838553Y-11218553D01*
X16858053Y-8239553D02*
X16888053Y-8269553D01*
X16888053Y-8239553D02*
X16858053Y-8269553D01*
X16888553Y-9988553D02*
X16918553Y-10018553D01*
X16918553Y-9988553D02*
X16888553Y-10018553D01*
X16898553Y-5895122D02*
X16928553Y-5925122D01*
X16928553Y-5895122D02*
X16898553Y-5925122D01*
X16898553Y-6438553D02*
X16928553Y-6468553D01*
X16928553Y-6438553D02*
X16898553Y-6468553D01*
X16911553Y-10692553D02*
X16941553Y-10722553D01*
X16941553Y-10692553D02*
X16911553Y-10722553D01*
X16911553Y-10942553D02*
X16941553Y-10972553D01*
X16941553Y-10942553D02*
X16911553Y-10972553D01*
X16911553Y-11492553D02*
X16941553Y-11522553D01*
X16941553Y-11492553D02*
X16911553Y-11522553D01*
X16948553Y-6038553D02*
X16978553Y-6068553D01*
X16978553Y-6038553D02*
X16948553Y-6068553D01*
X16961553Y-9642553D02*
X16991553Y-9672553D01*
X16991553Y-9642553D02*
X16961553Y-9672553D01*
X16978554Y-6438553D02*
X17008554Y-6468553D01*
X17008554Y-6438553D02*
X16978554Y-6468553D01*
X17038553Y-6638553D02*
X17068553Y-6668553D01*
X17068553Y-6638553D02*
X17038553Y-6668553D01*
X17038553Y-6852553D02*
X17068553Y-6882553D01*
X17068553Y-6852553D02*
X17038553Y-6882553D01*
X17063553Y-6138553D02*
X17093553Y-6168553D01*
X17093553Y-6138553D02*
X17063553Y-6168553D01*
X17211553Y-9724553D02*
X17241553Y-9754553D01*
X17241553Y-9724553D02*
X17211553Y-9754553D01*
X17251553Y-11866553D02*
X17281553Y-11896553D01*
X17281553Y-11866553D02*
X17251553Y-11896553D01*
X17301553Y-9488553D02*
X17331553Y-9518553D01*
X17331553Y-9488553D02*
X17301553Y-9518553D01*
X17311553Y-8542553D02*
X17341553Y-8572553D01*
X17341553Y-8542553D02*
X17311553Y-8572553D01*
X17338553Y-5688553D02*
X17368553Y-5718553D01*
X17368553Y-5688553D02*
X17338553Y-5718553D01*
X17338553Y-5988553D02*
X17368553Y-6018553D01*
X17368553Y-5988553D02*
X17338553Y-6018553D01*
X17338553Y-6238553D02*
X17368553Y-6268553D01*
X17368553Y-6238553D02*
X17338553Y-6268553D01*
X17338553Y-6438553D02*
X17368553Y-6468553D01*
X17368553Y-6438553D02*
X17338553Y-6468553D01*
X17361553Y-8642553D02*
X17391553Y-8672553D01*
X17391553Y-8642553D02*
X17361553Y-8672553D01*
X17361553Y-11342553D02*
X17391553Y-11372553D01*
X17391553Y-11342553D02*
X17361553Y-11372553D01*
X17378553Y-6988553D02*
X17408553Y-7018553D01*
X17408553Y-6988553D02*
X17378553Y-7018553D01*
X17388553Y-6538053D02*
X17418553Y-6568053D01*
X17418553Y-6538053D02*
X17388553Y-6568053D01*
X17388553Y-6658053D02*
X17418553Y-6688053D01*
X17418553Y-6658053D02*
X17388553Y-6688053D01*
X17388553Y-7852553D02*
X17418553Y-7882553D01*
X17418553Y-7852553D02*
X17388553Y-7882553D01*
X17388553Y-12188553D02*
X17418553Y-12218553D01*
X17418553Y-12188553D02*
X17388553Y-12218553D01*
X17438553Y-6888553D02*
X17468553Y-6918553D01*
X17468553Y-6888553D02*
X17438553Y-6918553D01*
X17439768Y-7791095D02*
X17469768Y-7821095D01*
X17469768Y-7791095D02*
X17439768Y-7821095D01*
X17811553Y-8292553D02*
X17841553Y-8322553D01*
X17841553Y-8292553D02*
X17811553Y-8322553D01*
X17811553Y-10192553D02*
X17841553Y-10222553D01*
X17841553Y-10192553D02*
X17811553Y-10222553D01*
X15076553Y-8053553D02*
G75*
G02*
X14976553Y-8053553I-50000J0D01*
G01*
X14976553Y-8053553D02*
G75*
G02*
X15076553Y-8053553I50000J0D01*
G01*
X15076553Y-8307553D02*
G75*
G02*
X14976553Y-8307553I-50000J0D01*
G01*
X14976553Y-8307553D02*
G75*
G02*
X15076553Y-8307553I50000J0D01*
G01*
X15076553Y-8561553D02*
G75*
G02*
X14976553Y-8561553I-50000J0D01*
G01*
X14976553Y-8561553D02*
G75*
G02*
X15076553Y-8561553I50000J0D01*
G01*
X15076553Y-8815553D02*
G75*
G02*
X14976553Y-8815553I-50000J0D01*
G01*
X14976553Y-8815553D02*
G75*
G02*
X15076553Y-8815553I50000J0D01*
G01*
X15076553Y-9069553D02*
G75*
G02*
X14976553Y-9069553I-50000J0D01*
G01*
X14976553Y-9069553D02*
G75*
G02*
X15076553Y-9069553I50000J0D01*
G01*
X15076553Y-9323553D02*
G75*
G02*
X14976553Y-9323553I-50000J0D01*
G01*
X14976553Y-9323553D02*
G75*
G02*
X15076553Y-9323553I50000J0D01*
G01*
X15076553Y-9577553D02*
G75*
G02*
X14976553Y-9577553I-50000J0D01*
G01*
X14976553Y-9577553D02*
G75*
G02*
X15076553Y-9577553I50000J0D01*
G01*
X15076553Y-9831553D02*
G75*
G02*
X14976553Y-9831553I-50000J0D01*
G01*
X14976553Y-9831553D02*
G75*
G02*
X15076553Y-9831553I50000J0D01*
G01*
X15076553Y-10085553D02*
G75*
G02*
X14976553Y-10085553I-50000J0D01*
G01*
X14976553Y-10085553D02*
G75*
G02*
X15076553Y-10085553I50000J0D01*
G01*
X15076553Y-10339553D02*
G75*
G02*
X14976553Y-10339553I-50000J0D01*
G01*
X14976553Y-10339553D02*
G75*
G02*
X15076553Y-10339553I50000J0D01*
G01*
X15076553Y-10593553D02*
G75*
G02*
X14976553Y-10593553I-50000J0D01*
G01*
X14976553Y-10593553D02*
G75*
G02*
X15076553Y-10593553I50000J0D01*
G01*
X15076553Y-10847553D02*
G75*
G02*
X14976553Y-10847553I-50000J0D01*
G01*
X14976553Y-10847553D02*
G75*
G02*
X15076553Y-10847553I50000J0D01*
G01*
X15076553Y-11101553D02*
G75*
G02*
X14976553Y-11101553I-50000J0D01*
G01*
X14976553Y-11101553D02*
G75*
G02*
X15076553Y-11101553I50000J0D01*
G01*
X15076553Y-11355553D02*
G75*
G02*
X14976553Y-11355553I-50000J0D01*
G01*
X14976553Y-11355553D02*
G75*
G02*
X15076553Y-11355553I50000J0D01*
G01*
X15076553Y-11609553D02*
G75*
G02*
X14976553Y-11609553I-50000J0D01*
G01*
X14976553Y-11609553D02*
G75*
G02*
X15076553Y-11609553I50000J0D01*
G01*
X15076553Y-11863553D02*
G75*
G02*
X14976553Y-11863553I-50000J0D01*
G01*
X14976553Y-11863553D02*
G75*
G02*
X15076553Y-11863553I50000J0D01*
G01*
X17626553Y-8071553D02*
G75*
G02*
X17526553Y-8071553I-50000J0D01*
G01*
X17526553Y-8071553D02*
G75*
G02*
X17626553Y-8071553I50000J0D01*
G01*
X17626553Y-8325553D02*
G75*
G02*
X17526553Y-8325553I-50000J0D01*
G01*
X17526553Y-8325553D02*
G75*
G02*
X17626553Y-8325553I50000J0D01*
G01*
X17626553Y-8579553D02*
G75*
G02*
X17526553Y-8579553I-50000J0D01*
G01*
X17526553Y-8579553D02*
G75*
G02*
X17626553Y-8579553I50000J0D01*
G01*
X17626553Y-8833553D02*
G75*
G02*
X17526553Y-8833553I-50000J0D01*
G01*
X17526553Y-8833553D02*
G75*
G02*
X17626553Y-8833553I50000J0D01*
G01*
X17626553Y-9087553D02*
G75*
G02*
X17526553Y-9087553I-50000J0D01*
G01*
X17526553Y-9087553D02*
G75*
G02*
X17626553Y-9087553I50000J0D01*
G01*
X17626553Y-9341553D02*
G75*
G02*
X17526553Y-9341553I-50000J0D01*
G01*
X17526553Y-9341553D02*
G75*
G02*
X17626553Y-9341553I50000J0D01*
G01*
X17626553Y-9595553D02*
G75*
G02*
X17526553Y-9595553I-50000J0D01*
G01*
X17526553Y-9595553D02*
G75*
G02*
X17626553Y-9595553I50000J0D01*
G01*
X17626553Y-9849553D02*
G75*
G02*
X17526553Y-9849553I-50000J0D01*
G01*
X17526553Y-9849553D02*
G75*
G02*
X17626553Y-9849553I50000J0D01*
G01*
X17626553Y-10103553D02*
G75*
G02*
X17526553Y-10103553I-50000J0D01*
G01*
X17526553Y-10103553D02*
G75*
G02*
X17626553Y-10103553I50000J0D01*
G01*
X17626553Y-10357553D02*
G75*
G02*
X17526553Y-10357553I-50000J0D01*
G01*
X17526553Y-10357553D02*
G75*
G02*
X17626553Y-10357553I50000J0D01*
G01*
X17626553Y-10611553D02*
G75*
G02*
X17526553Y-10611553I-50000J0D01*
G01*
X17526553Y-10611553D02*
G75*
G02*
X17626553Y-10611553I50000J0D01*
G01*
X17626553Y-10865553D02*
G75*
G02*
X17526553Y-10865553I-50000J0D01*
G01*
X17526553Y-10865553D02*
G75*
G02*
X17626553Y-10865553I50000J0D01*
G01*
X17626553Y-11119553D02*
G75*
G02*
X17526553Y-11119553I-50000J0D01*
G01*
X17526553Y-11119553D02*
G75*
G02*
X17626553Y-11119553I50000J0D01*
G01*
X17626553Y-11373553D02*
G75*
G02*
X17526553Y-11373553I-50000J0D01*
G01*
X17526553Y-11373553D02*
G75*
G02*
X17626553Y-11373553I50000J0D01*
G01*
X17626553Y-11627553D02*
G75*
G02*
X17526553Y-11627553I-50000J0D01*
G01*
X17526553Y-11627553D02*
G75*
G02*
X17626553Y-11627553I50000J0D01*
G01*
X17626553Y-11881553D02*
G75*
G02*
X17526553Y-11881553I-50000J0D01*
G01*
X17526553Y-11881553D02*
G75*
G02*
X17626553Y-11881553I50000J0D01*
G01*
D11*
X13111830Y-13367537D02*
X13111830Y-13167537D01*
X13111830Y-13167537D02*
X13159449Y-13167537D01*
X13159449Y-13167537D02*
X13188021Y-13177061D01*
X13188021Y-13177061D02*
X13207068Y-13196109D01*
X13207068Y-13196109D02*
X13216592Y-13215156D01*
X13216592Y-13215156D02*
X13226116Y-13253251D01*
X13226116Y-13253251D02*
X13226116Y-13281823D01*
X13226116Y-13281823D02*
X13216592Y-13319918D01*
X13216592Y-13319918D02*
X13207068Y-13338966D01*
X13207068Y-13338966D02*
X13188021Y-13358013D01*
X13188021Y-13358013D02*
X13159449Y-13367537D01*
X13159449Y-13367537D02*
X13111830Y-13367537D01*
X13311830Y-13367537D02*
X13311830Y-13234204D01*
X13311830Y-13272299D02*
X13321354Y-13253251D01*
X13321354Y-13253251D02*
X13330878Y-13243728D01*
X13330878Y-13243728D02*
X13349925Y-13234204D01*
X13349925Y-13234204D02*
X13368973Y-13234204D01*
X13435640Y-13367537D02*
X13435640Y-13234204D01*
X13435640Y-13167537D02*
X13426116Y-13177061D01*
X13426116Y-13177061D02*
X13435640Y-13186585D01*
X13435640Y-13186585D02*
X13445163Y-13177061D01*
X13445163Y-13177061D02*
X13435640Y-13167537D01*
X13435640Y-13167537D02*
X13435640Y-13186585D01*
X13559449Y-13367537D02*
X13540402Y-13358013D01*
X13540402Y-13358013D02*
X13530878Y-13338966D01*
X13530878Y-13338966D02*
X13530878Y-13167537D01*
X13664211Y-13367537D02*
X13645163Y-13358013D01*
X13645163Y-13358013D02*
X13635640Y-13338966D01*
X13635640Y-13338966D02*
X13635640Y-13167537D01*
X13892783Y-13367537D02*
X13892783Y-13167537D01*
X13892783Y-13167537D02*
X13959449Y-13310394D01*
X13959449Y-13310394D02*
X14026116Y-13167537D01*
X14026116Y-13167537D02*
X14026116Y-13367537D01*
X14207068Y-13367537D02*
X14207068Y-13262775D01*
X14207068Y-13262775D02*
X14197544Y-13243728D01*
X14197544Y-13243728D02*
X14178497Y-13234204D01*
X14178497Y-13234204D02*
X14140402Y-13234204D01*
X14140402Y-13234204D02*
X14121354Y-13243728D01*
X14207068Y-13358013D02*
X14188021Y-13367537D01*
X14188021Y-13367537D02*
X14140402Y-13367537D01*
X14140402Y-13367537D02*
X14121354Y-13358013D01*
X14121354Y-13358013D02*
X14111830Y-13338966D01*
X14111830Y-13338966D02*
X14111830Y-13319918D01*
X14111830Y-13319918D02*
X14121354Y-13300870D01*
X14121354Y-13300870D02*
X14140402Y-13291347D01*
X14140402Y-13291347D02*
X14188021Y-13291347D01*
X14188021Y-13291347D02*
X14207068Y-13281823D01*
X14302306Y-13234204D02*
X14302306Y-13434204D01*
X14302306Y-13243728D02*
X14321354Y-13234204D01*
X14321354Y-13234204D02*
X14359449Y-13234204D01*
X14359449Y-13234204D02*
X14378497Y-13243728D01*
X14378497Y-13243728D02*
X14388021Y-13253251D01*
X14388021Y-13253251D02*
X14397544Y-13272299D01*
X14397544Y-13272299D02*
X14397544Y-13329442D01*
X14397544Y-13329442D02*
X14388021Y-13348489D01*
X14388021Y-13348489D02*
X14378497Y-13358013D01*
X14378497Y-13358013D02*
X14359449Y-13367537D01*
X14359449Y-13367537D02*
X14321354Y-13367537D01*
X14321354Y-13367537D02*
X14302306Y-13358013D01*
X14483259Y-13348489D02*
X14492783Y-13358013D01*
X14492783Y-13358013D02*
X14483259Y-13367537D01*
X14483259Y-13367537D02*
X14473735Y-13358013D01*
X14473735Y-13358013D02*
X14483259Y-13348489D01*
X14483259Y-13348489D02*
X14483259Y-13367537D01*
X14483259Y-13243728D02*
X14492783Y-13253251D01*
X14492783Y-13253251D02*
X14483259Y-13262775D01*
X14483259Y-13262775D02*
X14473735Y-13253251D01*
X14473735Y-13253251D02*
X14483259Y-13243728D01*
X14483259Y-13243728D02*
X14483259Y-13262775D01*
D12*
X12821053Y-13681053D02*
X12851053Y-13711053D01*
X12851053Y-13681053D02*
X12821053Y-13711053D01*
D11*
X13149925Y-13587537D02*
X13168973Y-13587537D01*
X13168973Y-13587537D02*
X13188021Y-13597061D01*
X13188021Y-13597061D02*
X13197544Y-13606585D01*
X13197544Y-13606585D02*
X13207068Y-13625632D01*
X13207068Y-13625632D02*
X13216592Y-13663728D01*
X13216592Y-13663728D02*
X13216592Y-13711347D01*
X13216592Y-13711347D02*
X13207068Y-13749442D01*
X13207068Y-13749442D02*
X13197544Y-13768489D01*
X13197544Y-13768489D02*
X13188021Y-13778013D01*
X13188021Y-13778013D02*
X13168973Y-13787537D01*
X13168973Y-13787537D02*
X13149925Y-13787537D01*
X13149925Y-13787537D02*
X13130878Y-13778013D01*
X13130878Y-13778013D02*
X13121354Y-13768489D01*
X13121354Y-13768489D02*
X13111830Y-13749442D01*
X13111830Y-13749442D02*
X13102306Y-13711347D01*
X13102306Y-13711347D02*
X13102306Y-13663728D01*
X13102306Y-13663728D02*
X13111830Y-13625632D01*
X13111830Y-13625632D02*
X13121354Y-13606585D01*
X13121354Y-13606585D02*
X13130878Y-13597061D01*
X13130878Y-13597061D02*
X13149925Y-13587537D01*
X13302306Y-13768489D02*
X13311830Y-13778013D01*
X13311830Y-13778013D02*
X13302306Y-13787537D01*
X13302306Y-13787537D02*
X13292783Y-13778013D01*
X13292783Y-13778013D02*
X13302306Y-13768489D01*
X13302306Y-13768489D02*
X13302306Y-13787537D01*
X13378497Y-13587537D02*
X13502306Y-13587537D01*
X13502306Y-13587537D02*
X13435640Y-13663728D01*
X13435640Y-13663728D02*
X13464211Y-13663728D01*
X13464211Y-13663728D02*
X13483259Y-13673251D01*
X13483259Y-13673251D02*
X13492783Y-13682775D01*
X13492783Y-13682775D02*
X13502306Y-13701823D01*
X13502306Y-13701823D02*
X13502306Y-13749442D01*
X13502306Y-13749442D02*
X13492783Y-13768489D01*
X13492783Y-13768489D02*
X13483259Y-13778013D01*
X13483259Y-13778013D02*
X13464211Y-13787537D01*
X13464211Y-13787537D02*
X13407068Y-13787537D01*
X13407068Y-13787537D02*
X13388021Y-13778013D01*
X13388021Y-13778013D02*
X13378497Y-13768489D01*
X13626116Y-13587537D02*
X13645164Y-13587537D01*
X13645164Y-13587537D02*
X13664211Y-13597061D01*
X13664211Y-13597061D02*
X13673735Y-13606585D01*
X13673735Y-13606585D02*
X13683259Y-13625632D01*
X13683259Y-13625632D02*
X13692783Y-13663728D01*
X13692783Y-13663728D02*
X13692783Y-13711347D01*
X13692783Y-13711347D02*
X13683259Y-13749442D01*
X13683259Y-13749442D02*
X13673735Y-13768489D01*
X13673735Y-13768489D02*
X13664211Y-13778013D01*
X13664211Y-13778013D02*
X13645164Y-13787537D01*
X13645164Y-13787537D02*
X13626116Y-13787537D01*
X13626116Y-13787537D02*
X13607068Y-13778013D01*
X13607068Y-13778013D02*
X13597544Y-13768489D01*
X13597544Y-13768489D02*
X13588021Y-13749442D01*
X13588021Y-13749442D02*
X13578497Y-13711347D01*
X13578497Y-13711347D02*
X13578497Y-13663728D01*
X13578497Y-13663728D02*
X13588021Y-13625632D01*
X13588021Y-13625632D02*
X13597544Y-13606585D01*
X13597544Y-13606585D02*
X13607068Y-13597061D01*
X13607068Y-13597061D02*
X13626116Y-13587537D01*
X13816592Y-13587537D02*
X13835640Y-13587537D01*
X13835640Y-13587537D02*
X13854687Y-13597061D01*
X13854687Y-13597061D02*
X13864211Y-13606585D01*
X13864211Y-13606585D02*
X13873735Y-13625632D01*
X13873735Y-13625632D02*
X13883259Y-13663728D01*
X13883259Y-13663728D02*
X13883259Y-13711347D01*
X13883259Y-13711347D02*
X13873735Y-13749442D01*
X13873735Y-13749442D02*
X13864211Y-13768489D01*
X13864211Y-13768489D02*
X13854687Y-13778013D01*
X13854687Y-13778013D02*
X13835640Y-13787537D01*
X13835640Y-13787537D02*
X13816592Y-13787537D01*
X13816592Y-13787537D02*
X13797544Y-13778013D01*
X13797544Y-13778013D02*
X13788021Y-13768489D01*
X13788021Y-13768489D02*
X13778497Y-13749442D01*
X13778497Y-13749442D02*
X13768973Y-13711347D01*
X13768973Y-13711347D02*
X13768973Y-13663728D01*
X13768973Y-13663728D02*
X13778497Y-13625632D01*
X13778497Y-13625632D02*
X13788021Y-13606585D01*
X13788021Y-13606585D02*
X13797544Y-13597061D01*
X13797544Y-13597061D02*
X13816592Y-13587537D01*
X13968973Y-13787537D02*
X13968973Y-13654204D01*
X13968973Y-13673251D02*
X13978497Y-13663728D01*
X13978497Y-13663728D02*
X13997544Y-13654204D01*
X13997544Y-13654204D02*
X14026116Y-13654204D01*
X14026116Y-13654204D02*
X14045164Y-13663728D01*
X14045164Y-13663728D02*
X14054687Y-13682775D01*
X14054687Y-13682775D02*
X14054687Y-13787537D01*
X14054687Y-13682775D02*
X14064211Y-13663728D01*
X14064211Y-13663728D02*
X14083259Y-13654204D01*
X14083259Y-13654204D02*
X14111830Y-13654204D01*
X14111830Y-13654204D02*
X14130878Y-13663728D01*
X14130878Y-13663728D02*
X14140402Y-13682775D01*
X14140402Y-13682775D02*
X14140402Y-13787537D01*
X14235640Y-13787537D02*
X14235640Y-13654204D01*
X14235640Y-13673251D02*
X14245164Y-13663728D01*
X14245164Y-13663728D02*
X14264211Y-13654204D01*
X14264211Y-13654204D02*
X14292783Y-13654204D01*
X14292783Y-13654204D02*
X14311830Y-13663728D01*
X14311830Y-13663728D02*
X14321354Y-13682775D01*
X14321354Y-13682775D02*
X14321354Y-13787537D01*
X14321354Y-13682775D02*
X14330878Y-13663728D01*
X14330878Y-13663728D02*
X14349925Y-13654204D01*
X14349925Y-13654204D02*
X14378497Y-13654204D01*
X14378497Y-13654204D02*
X14397545Y-13663728D01*
X14397545Y-13663728D02*
X14407068Y-13682775D01*
X14407068Y-13682775D02*
X14407068Y-13787537D01*
X14797545Y-13578013D02*
X14626116Y-13835156D01*
X15054687Y-13587537D02*
X15073735Y-13587537D01*
X15073735Y-13587537D02*
X15092783Y-13597061D01*
X15092783Y-13597061D02*
X15102307Y-13606585D01*
X15102307Y-13606585D02*
X15111830Y-13625632D01*
X15111830Y-13625632D02*
X15121354Y-13663728D01*
X15121354Y-13663728D02*
X15121354Y-13711347D01*
X15121354Y-13711347D02*
X15111830Y-13749442D01*
X15111830Y-13749442D02*
X15102307Y-13768489D01*
X15102307Y-13768489D02*
X15092783Y-13778013D01*
X15092783Y-13778013D02*
X15073735Y-13787537D01*
X15073735Y-13787537D02*
X15054687Y-13787537D01*
X15054687Y-13787537D02*
X15035640Y-13778013D01*
X15035640Y-13778013D02*
X15026116Y-13768489D01*
X15026116Y-13768489D02*
X15016592Y-13749442D01*
X15016592Y-13749442D02*
X15007068Y-13711347D01*
X15007068Y-13711347D02*
X15007068Y-13663728D01*
X15007068Y-13663728D02*
X15016592Y-13625632D01*
X15016592Y-13625632D02*
X15026116Y-13606585D01*
X15026116Y-13606585D02*
X15035640Y-13597061D01*
X15035640Y-13597061D02*
X15054687Y-13587537D01*
X15207068Y-13768489D02*
X15216592Y-13778013D01*
X15216592Y-13778013D02*
X15207068Y-13787537D01*
X15207068Y-13787537D02*
X15197545Y-13778013D01*
X15197545Y-13778013D02*
X15207068Y-13768489D01*
X15207068Y-13768489D02*
X15207068Y-13787537D01*
X15340402Y-13587537D02*
X15359449Y-13587537D01*
X15359449Y-13587537D02*
X15378497Y-13597061D01*
X15378497Y-13597061D02*
X15388021Y-13606585D01*
X15388021Y-13606585D02*
X15397545Y-13625632D01*
X15397545Y-13625632D02*
X15407068Y-13663728D01*
X15407068Y-13663728D02*
X15407068Y-13711347D01*
X15407068Y-13711347D02*
X15397545Y-13749442D01*
X15397545Y-13749442D02*
X15388021Y-13768489D01*
X15388021Y-13768489D02*
X15378497Y-13778013D01*
X15378497Y-13778013D02*
X15359449Y-13787537D01*
X15359449Y-13787537D02*
X15340402Y-13787537D01*
X15340402Y-13787537D02*
X15321354Y-13778013D01*
X15321354Y-13778013D02*
X15311830Y-13768489D01*
X15311830Y-13768489D02*
X15302307Y-13749442D01*
X15302307Y-13749442D02*
X15292783Y-13711347D01*
X15292783Y-13711347D02*
X15292783Y-13663728D01*
X15292783Y-13663728D02*
X15302307Y-13625632D01*
X15302307Y-13625632D02*
X15311830Y-13606585D01*
X15311830Y-13606585D02*
X15321354Y-13597061D01*
X15321354Y-13597061D02*
X15340402Y-13587537D01*
X15597545Y-13787537D02*
X15483259Y-13787537D01*
X15540402Y-13787537D02*
X15540402Y-13587537D01*
X15540402Y-13587537D02*
X15521354Y-13616109D01*
X15521354Y-13616109D02*
X15502307Y-13635156D01*
X15502307Y-13635156D02*
X15483259Y-13644680D01*
X15788021Y-13787537D02*
X15673735Y-13787537D01*
X15730878Y-13787537D02*
X15730878Y-13587537D01*
X15730878Y-13587537D02*
X15711830Y-13616109D01*
X15711830Y-13616109D02*
X15692783Y-13635156D01*
X15692783Y-13635156D02*
X15673735Y-13644680D01*
X15902307Y-13673251D02*
X15883259Y-13663728D01*
X15883259Y-13663728D02*
X15873735Y-13654204D01*
X15873735Y-13654204D02*
X15864211Y-13635156D01*
X15864211Y-13635156D02*
X15864211Y-13625632D01*
X15864211Y-13625632D02*
X15873735Y-13606585D01*
X15873735Y-13606585D02*
X15883259Y-13597061D01*
X15883259Y-13597061D02*
X15902307Y-13587537D01*
X15902307Y-13587537D02*
X15940402Y-13587537D01*
X15940402Y-13587537D02*
X15959449Y-13597061D01*
X15959449Y-13597061D02*
X15968973Y-13606585D01*
X15968973Y-13606585D02*
X15978497Y-13625632D01*
X15978497Y-13625632D02*
X15978497Y-13635156D01*
X15978497Y-13635156D02*
X15968973Y-13654204D01*
X15968973Y-13654204D02*
X15959449Y-13663728D01*
X15959449Y-13663728D02*
X15940402Y-13673251D01*
X15940402Y-13673251D02*
X15902307Y-13673251D01*
X15902307Y-13673251D02*
X15883259Y-13682775D01*
X15883259Y-13682775D02*
X15873735Y-13692299D01*
X15873735Y-13692299D02*
X15864211Y-13711347D01*
X15864211Y-13711347D02*
X15864211Y-13749442D01*
X15864211Y-13749442D02*
X15873735Y-13768489D01*
X15873735Y-13768489D02*
X15883259Y-13778013D01*
X15883259Y-13778013D02*
X15902307Y-13787537D01*
X15902307Y-13787537D02*
X15940402Y-13787537D01*
X15940402Y-13787537D02*
X15959449Y-13778013D01*
X15959449Y-13778013D02*
X15968973Y-13768489D01*
X15968973Y-13768489D02*
X15978497Y-13749442D01*
X15978497Y-13749442D02*
X15978497Y-13711347D01*
X15978497Y-13711347D02*
X15968973Y-13692299D01*
X15968973Y-13692299D02*
X15959449Y-13682775D01*
X15959449Y-13682775D02*
X15940402Y-13673251D01*
X16054688Y-13587537D02*
X16054688Y-13625632D01*
X16130878Y-13587537D02*
X16130878Y-13625632D01*
X16426116Y-13863728D02*
X16416592Y-13854204D01*
X16416592Y-13854204D02*
X16397545Y-13825632D01*
X16397545Y-13825632D02*
X16388021Y-13806585D01*
X16388021Y-13806585D02*
X16378497Y-13778013D01*
X16378497Y-13778013D02*
X16368973Y-13730394D01*
X16368973Y-13730394D02*
X16368973Y-13692299D01*
X16368973Y-13692299D02*
X16378497Y-13644680D01*
X16378497Y-13644680D02*
X16388021Y-13616109D01*
X16388021Y-13616109D02*
X16397545Y-13597061D01*
X16397545Y-13597061D02*
X16416592Y-13568489D01*
X16416592Y-13568489D02*
X16426116Y-13558966D01*
X16607069Y-13787537D02*
X16492783Y-13787537D01*
X16549926Y-13787537D02*
X16549926Y-13587537D01*
X16549926Y-13587537D02*
X16530878Y-13616109D01*
X16530878Y-13616109D02*
X16511830Y-13635156D01*
X16511830Y-13635156D02*
X16492783Y-13644680D01*
X16778497Y-13587537D02*
X16740402Y-13587537D01*
X16740402Y-13587537D02*
X16721354Y-13597061D01*
X16721354Y-13597061D02*
X16711830Y-13606585D01*
X16711830Y-13606585D02*
X16692783Y-13635156D01*
X16692783Y-13635156D02*
X16683259Y-13673251D01*
X16683259Y-13673251D02*
X16683259Y-13749442D01*
X16683259Y-13749442D02*
X16692783Y-13768489D01*
X16692783Y-13768489D02*
X16702307Y-13778013D01*
X16702307Y-13778013D02*
X16721354Y-13787537D01*
X16721354Y-13787537D02*
X16759450Y-13787537D01*
X16759450Y-13787537D02*
X16778497Y-13778013D01*
X16778497Y-13778013D02*
X16788021Y-13768489D01*
X16788021Y-13768489D02*
X16797545Y-13749442D01*
X16797545Y-13749442D02*
X16797545Y-13701823D01*
X16797545Y-13701823D02*
X16788021Y-13682775D01*
X16788021Y-13682775D02*
X16778497Y-13673251D01*
X16778497Y-13673251D02*
X16759450Y-13663728D01*
X16759450Y-13663728D02*
X16721354Y-13663728D01*
X16721354Y-13663728D02*
X16702307Y-13673251D01*
X16702307Y-13673251D02*
X16692783Y-13682775D01*
X16692783Y-13682775D02*
X16683259Y-13701823D01*
X16978497Y-13587537D02*
X16883259Y-13587537D01*
X16883259Y-13587537D02*
X16873735Y-13682775D01*
X16873735Y-13682775D02*
X16883259Y-13673251D01*
X16883259Y-13673251D02*
X16902307Y-13663728D01*
X16902307Y-13663728D02*
X16949926Y-13663728D01*
X16949926Y-13663728D02*
X16968973Y-13673251D01*
X16968973Y-13673251D02*
X16978497Y-13682775D01*
X16978497Y-13682775D02*
X16988021Y-13701823D01*
X16988021Y-13701823D02*
X16988021Y-13749442D01*
X16988021Y-13749442D02*
X16978497Y-13768489D01*
X16978497Y-13768489D02*
X16968973Y-13778013D01*
X16968973Y-13778013D02*
X16949926Y-13787537D01*
X16949926Y-13787537D02*
X16902307Y-13787537D01*
X16902307Y-13787537D02*
X16883259Y-13778013D01*
X16883259Y-13778013D02*
X16873735Y-13768489D01*
X17226116Y-13787537D02*
X17226116Y-13587537D01*
X17311831Y-13787537D02*
X17311831Y-13682775D01*
X17311831Y-13682775D02*
X17302307Y-13663728D01*
X17302307Y-13663728D02*
X17283259Y-13654204D01*
X17283259Y-13654204D02*
X17254688Y-13654204D01*
X17254688Y-13654204D02*
X17235640Y-13663728D01*
X17235640Y-13663728D02*
X17226116Y-13673251D01*
X17435640Y-13787537D02*
X17416593Y-13778013D01*
X17416593Y-13778013D02*
X17407069Y-13768489D01*
X17407069Y-13768489D02*
X17397545Y-13749442D01*
X17397545Y-13749442D02*
X17397545Y-13692299D01*
X17397545Y-13692299D02*
X17407069Y-13673251D01*
X17407069Y-13673251D02*
X17416593Y-13663728D01*
X17416593Y-13663728D02*
X17435640Y-13654204D01*
X17435640Y-13654204D02*
X17464212Y-13654204D01*
X17464212Y-13654204D02*
X17483259Y-13663728D01*
X17483259Y-13663728D02*
X17492783Y-13673251D01*
X17492783Y-13673251D02*
X17502307Y-13692299D01*
X17502307Y-13692299D02*
X17502307Y-13749442D01*
X17502307Y-13749442D02*
X17492783Y-13768489D01*
X17492783Y-13768489D02*
X17483259Y-13778013D01*
X17483259Y-13778013D02*
X17464212Y-13787537D01*
X17464212Y-13787537D02*
X17435640Y-13787537D01*
X17616593Y-13787537D02*
X17597545Y-13778013D01*
X17597545Y-13778013D02*
X17588021Y-13758966D01*
X17588021Y-13758966D02*
X17588021Y-13587537D01*
X17768974Y-13778013D02*
X17749926Y-13787537D01*
X17749926Y-13787537D02*
X17711831Y-13787537D01*
X17711831Y-13787537D02*
X17692783Y-13778013D01*
X17692783Y-13778013D02*
X17683259Y-13758966D01*
X17683259Y-13758966D02*
X17683259Y-13682775D01*
X17683259Y-13682775D02*
X17692783Y-13663728D01*
X17692783Y-13663728D02*
X17711831Y-13654204D01*
X17711831Y-13654204D02*
X17749926Y-13654204D01*
X17749926Y-13654204D02*
X17768974Y-13663728D01*
X17768974Y-13663728D02*
X17778497Y-13682775D01*
X17778497Y-13682775D02*
X17778497Y-13701823D01*
X17778497Y-13701823D02*
X17683259Y-13720870D01*
X17854688Y-13778013D02*
X17873735Y-13787537D01*
X17873735Y-13787537D02*
X17911831Y-13787537D01*
X17911831Y-13787537D02*
X17930878Y-13778013D01*
X17930878Y-13778013D02*
X17940402Y-13758966D01*
X17940402Y-13758966D02*
X17940402Y-13749442D01*
X17940402Y-13749442D02*
X17930878Y-13730394D01*
X17930878Y-13730394D02*
X17911831Y-13720870D01*
X17911831Y-13720870D02*
X17883259Y-13720870D01*
X17883259Y-13720870D02*
X17864212Y-13711347D01*
X17864212Y-13711347D02*
X17854688Y-13692299D01*
X17854688Y-13692299D02*
X17854688Y-13682775D01*
X17854688Y-13682775D02*
X17864212Y-13663728D01*
X17864212Y-13663728D02*
X17883259Y-13654204D01*
X17883259Y-13654204D02*
X17911831Y-13654204D01*
X17911831Y-13654204D02*
X17930878Y-13663728D01*
X18007069Y-13863728D02*
X18016593Y-13854204D01*
X18016593Y-13854204D02*
X18035640Y-13825632D01*
X18035640Y-13825632D02*
X18045164Y-13806585D01*
X18045164Y-13806585D02*
X18054688Y-13778013D01*
X18054688Y-13778013D02*
X18064212Y-13730394D01*
X18064212Y-13730394D02*
X18064212Y-13692299D01*
X18064212Y-13692299D02*
X18054688Y-13644680D01*
X18054688Y-13644680D02*
X18045164Y-13616109D01*
X18045164Y-13616109D02*
X18035640Y-13597061D01*
X18035640Y-13597061D02*
X18016593Y-13568489D01*
X18016593Y-13568489D02*
X18007069Y-13558966D01*
D12*
X12851053Y-13960053D02*
G75*
G02*
X12751053Y-13960053I-50000J0D01*
G01*
X12751053Y-13960053D02*
G75*
G02*
X12851053Y-13960053I50000J0D01*
G01*
D11*
X13216592Y-14051537D02*
X13102306Y-14051537D01*
X13159449Y-14051537D02*
X13159449Y-13851537D01*
X13159449Y-13851537D02*
X13140402Y-13880109D01*
X13140402Y-13880109D02*
X13121354Y-13899156D01*
X13121354Y-13899156D02*
X13102306Y-13908680D01*
X13302306Y-14032489D02*
X13311830Y-14042013D01*
X13311830Y-14042013D02*
X13302306Y-14051537D01*
X13302306Y-14051537D02*
X13292783Y-14042013D01*
X13292783Y-14042013D02*
X13302306Y-14032489D01*
X13302306Y-14032489D02*
X13302306Y-14051537D01*
X13435640Y-13851537D02*
X13454687Y-13851537D01*
X13454687Y-13851537D02*
X13473735Y-13861061D01*
X13473735Y-13861061D02*
X13483259Y-13870585D01*
X13483259Y-13870585D02*
X13492783Y-13889632D01*
X13492783Y-13889632D02*
X13502306Y-13927728D01*
X13502306Y-13927728D02*
X13502306Y-13975347D01*
X13502306Y-13975347D02*
X13492783Y-14013442D01*
X13492783Y-14013442D02*
X13483259Y-14032489D01*
X13483259Y-14032489D02*
X13473735Y-14042013D01*
X13473735Y-14042013D02*
X13454687Y-14051537D01*
X13454687Y-14051537D02*
X13435640Y-14051537D01*
X13435640Y-14051537D02*
X13416592Y-14042013D01*
X13416592Y-14042013D02*
X13407068Y-14032489D01*
X13407068Y-14032489D02*
X13397544Y-14013442D01*
X13397544Y-14013442D02*
X13388021Y-13975347D01*
X13388021Y-13975347D02*
X13388021Y-13927728D01*
X13388021Y-13927728D02*
X13397544Y-13889632D01*
X13397544Y-13889632D02*
X13407068Y-13870585D01*
X13407068Y-13870585D02*
X13416592Y-13861061D01*
X13416592Y-13861061D02*
X13435640Y-13851537D01*
X13626116Y-13851537D02*
X13645164Y-13851537D01*
X13645164Y-13851537D02*
X13664211Y-13861061D01*
X13664211Y-13861061D02*
X13673735Y-13870585D01*
X13673735Y-13870585D02*
X13683259Y-13889632D01*
X13683259Y-13889632D02*
X13692783Y-13927728D01*
X13692783Y-13927728D02*
X13692783Y-13975347D01*
X13692783Y-13975347D02*
X13683259Y-14013442D01*
X13683259Y-14013442D02*
X13673735Y-14032489D01*
X13673735Y-14032489D02*
X13664211Y-14042013D01*
X13664211Y-14042013D02*
X13645164Y-14051537D01*
X13645164Y-14051537D02*
X13626116Y-14051537D01*
X13626116Y-14051537D02*
X13607068Y-14042013D01*
X13607068Y-14042013D02*
X13597544Y-14032489D01*
X13597544Y-14032489D02*
X13588021Y-14013442D01*
X13588021Y-14013442D02*
X13578497Y-13975347D01*
X13578497Y-13975347D02*
X13578497Y-13927728D01*
X13578497Y-13927728D02*
X13588021Y-13889632D01*
X13588021Y-13889632D02*
X13597544Y-13870585D01*
X13597544Y-13870585D02*
X13607068Y-13861061D01*
X13607068Y-13861061D02*
X13626116Y-13851537D01*
X13816592Y-13851537D02*
X13835640Y-13851537D01*
X13835640Y-13851537D02*
X13854687Y-13861061D01*
X13854687Y-13861061D02*
X13864211Y-13870585D01*
X13864211Y-13870585D02*
X13873735Y-13889632D01*
X13873735Y-13889632D02*
X13883259Y-13927728D01*
X13883259Y-13927728D02*
X13883259Y-13975347D01*
X13883259Y-13975347D02*
X13873735Y-14013442D01*
X13873735Y-14013442D02*
X13864211Y-14032489D01*
X13864211Y-14032489D02*
X13854687Y-14042013D01*
X13854687Y-14042013D02*
X13835640Y-14051537D01*
X13835640Y-14051537D02*
X13816592Y-14051537D01*
X13816592Y-14051537D02*
X13797544Y-14042013D01*
X13797544Y-14042013D02*
X13788021Y-14032489D01*
X13788021Y-14032489D02*
X13778497Y-14013442D01*
X13778497Y-14013442D02*
X13768973Y-13975347D01*
X13768973Y-13975347D02*
X13768973Y-13927728D01*
X13768973Y-13927728D02*
X13778497Y-13889632D01*
X13778497Y-13889632D02*
X13788021Y-13870585D01*
X13788021Y-13870585D02*
X13797544Y-13861061D01*
X13797544Y-13861061D02*
X13816592Y-13851537D01*
X13968973Y-14051537D02*
X13968973Y-13918204D01*
X13968973Y-13937251D02*
X13978497Y-13927728D01*
X13978497Y-13927728D02*
X13997544Y-13918204D01*
X13997544Y-13918204D02*
X14026116Y-13918204D01*
X14026116Y-13918204D02*
X14045164Y-13927728D01*
X14045164Y-13927728D02*
X14054687Y-13946775D01*
X14054687Y-13946775D02*
X14054687Y-14051537D01*
X14054687Y-13946775D02*
X14064211Y-13927728D01*
X14064211Y-13927728D02*
X14083259Y-13918204D01*
X14083259Y-13918204D02*
X14111830Y-13918204D01*
X14111830Y-13918204D02*
X14130878Y-13927728D01*
X14130878Y-13927728D02*
X14140402Y-13946775D01*
X14140402Y-13946775D02*
X14140402Y-14051537D01*
X14235640Y-14051537D02*
X14235640Y-13918204D01*
X14235640Y-13937251D02*
X14245164Y-13927728D01*
X14245164Y-13927728D02*
X14264211Y-13918204D01*
X14264211Y-13918204D02*
X14292783Y-13918204D01*
X14292783Y-13918204D02*
X14311830Y-13927728D01*
X14311830Y-13927728D02*
X14321354Y-13946775D01*
X14321354Y-13946775D02*
X14321354Y-14051537D01*
X14321354Y-13946775D02*
X14330878Y-13927728D01*
X14330878Y-13927728D02*
X14349925Y-13918204D01*
X14349925Y-13918204D02*
X14378497Y-13918204D01*
X14378497Y-13918204D02*
X14397545Y-13927728D01*
X14397545Y-13927728D02*
X14407068Y-13946775D01*
X14407068Y-13946775D02*
X14407068Y-14051537D01*
X14797545Y-13842013D02*
X14626116Y-14099156D01*
X15054687Y-13851537D02*
X15073735Y-13851537D01*
X15073735Y-13851537D02*
X15092783Y-13861061D01*
X15092783Y-13861061D02*
X15102307Y-13870585D01*
X15102307Y-13870585D02*
X15111830Y-13889632D01*
X15111830Y-13889632D02*
X15121354Y-13927728D01*
X15121354Y-13927728D02*
X15121354Y-13975347D01*
X15121354Y-13975347D02*
X15111830Y-14013442D01*
X15111830Y-14013442D02*
X15102307Y-14032489D01*
X15102307Y-14032489D02*
X15092783Y-14042013D01*
X15092783Y-14042013D02*
X15073735Y-14051537D01*
X15073735Y-14051537D02*
X15054687Y-14051537D01*
X15054687Y-14051537D02*
X15035640Y-14042013D01*
X15035640Y-14042013D02*
X15026116Y-14032489D01*
X15026116Y-14032489D02*
X15016592Y-14013442D01*
X15016592Y-14013442D02*
X15007068Y-13975347D01*
X15007068Y-13975347D02*
X15007068Y-13927728D01*
X15007068Y-13927728D02*
X15016592Y-13889632D01*
X15016592Y-13889632D02*
X15026116Y-13870585D01*
X15026116Y-13870585D02*
X15035640Y-13861061D01*
X15035640Y-13861061D02*
X15054687Y-13851537D01*
X15207068Y-14032489D02*
X15216592Y-14042013D01*
X15216592Y-14042013D02*
X15207068Y-14051537D01*
X15207068Y-14051537D02*
X15197545Y-14042013D01*
X15197545Y-14042013D02*
X15207068Y-14032489D01*
X15207068Y-14032489D02*
X15207068Y-14051537D01*
X15340402Y-13851537D02*
X15359449Y-13851537D01*
X15359449Y-13851537D02*
X15378497Y-13861061D01*
X15378497Y-13861061D02*
X15388021Y-13870585D01*
X15388021Y-13870585D02*
X15397545Y-13889632D01*
X15397545Y-13889632D02*
X15407068Y-13927728D01*
X15407068Y-13927728D02*
X15407068Y-13975347D01*
X15407068Y-13975347D02*
X15397545Y-14013442D01*
X15397545Y-14013442D02*
X15388021Y-14032489D01*
X15388021Y-14032489D02*
X15378497Y-14042013D01*
X15378497Y-14042013D02*
X15359449Y-14051537D01*
X15359449Y-14051537D02*
X15340402Y-14051537D01*
X15340402Y-14051537D02*
X15321354Y-14042013D01*
X15321354Y-14042013D02*
X15311830Y-14032489D01*
X15311830Y-14032489D02*
X15302307Y-14013442D01*
X15302307Y-14013442D02*
X15292783Y-13975347D01*
X15292783Y-13975347D02*
X15292783Y-13927728D01*
X15292783Y-13927728D02*
X15302307Y-13889632D01*
X15302307Y-13889632D02*
X15311830Y-13870585D01*
X15311830Y-13870585D02*
X15321354Y-13861061D01*
X15321354Y-13861061D02*
X15340402Y-13851537D01*
X15473735Y-13851537D02*
X15597545Y-13851537D01*
X15597545Y-13851537D02*
X15530878Y-13927728D01*
X15530878Y-13927728D02*
X15559449Y-13927728D01*
X15559449Y-13927728D02*
X15578497Y-13937251D01*
X15578497Y-13937251D02*
X15588021Y-13946775D01*
X15588021Y-13946775D02*
X15597545Y-13965823D01*
X15597545Y-13965823D02*
X15597545Y-14013442D01*
X15597545Y-14013442D02*
X15588021Y-14032489D01*
X15588021Y-14032489D02*
X15578497Y-14042013D01*
X15578497Y-14042013D02*
X15559449Y-14051537D01*
X15559449Y-14051537D02*
X15502307Y-14051537D01*
X15502307Y-14051537D02*
X15483259Y-14042013D01*
X15483259Y-14042013D02*
X15473735Y-14032489D01*
X15692783Y-14051537D02*
X15730878Y-14051537D01*
X15730878Y-14051537D02*
X15749926Y-14042013D01*
X15749926Y-14042013D02*
X15759449Y-14032489D01*
X15759449Y-14032489D02*
X15778497Y-14003918D01*
X15778497Y-14003918D02*
X15788021Y-13965823D01*
X15788021Y-13965823D02*
X15788021Y-13889632D01*
X15788021Y-13889632D02*
X15778497Y-13870585D01*
X15778497Y-13870585D02*
X15768973Y-13861061D01*
X15768973Y-13861061D02*
X15749926Y-13851537D01*
X15749926Y-13851537D02*
X15711830Y-13851537D01*
X15711830Y-13851537D02*
X15692783Y-13861061D01*
X15692783Y-13861061D02*
X15683259Y-13870585D01*
X15683259Y-13870585D02*
X15673735Y-13889632D01*
X15673735Y-13889632D02*
X15673735Y-13937251D01*
X15673735Y-13937251D02*
X15683259Y-13956299D01*
X15683259Y-13956299D02*
X15692783Y-13965823D01*
X15692783Y-13965823D02*
X15711830Y-13975347D01*
X15711830Y-13975347D02*
X15749926Y-13975347D01*
X15749926Y-13975347D02*
X15768973Y-13965823D01*
X15768973Y-13965823D02*
X15778497Y-13956299D01*
X15778497Y-13956299D02*
X15788021Y-13937251D01*
X15959449Y-13918204D02*
X15959449Y-14051537D01*
X15911830Y-13842013D02*
X15864211Y-13984870D01*
X15864211Y-13984870D02*
X15988021Y-13984870D01*
X16054688Y-13851537D02*
X16054688Y-13889632D01*
X16130878Y-13851537D02*
X16130878Y-13889632D01*
X16426116Y-14127728D02*
X16416592Y-14118204D01*
X16416592Y-14118204D02*
X16397545Y-14089632D01*
X16397545Y-14089632D02*
X16388021Y-14070585D01*
X16388021Y-14070585D02*
X16378497Y-14042013D01*
X16378497Y-14042013D02*
X16368973Y-13994394D01*
X16368973Y-13994394D02*
X16368973Y-13956299D01*
X16368973Y-13956299D02*
X16378497Y-13908680D01*
X16378497Y-13908680D02*
X16388021Y-13880109D01*
X16388021Y-13880109D02*
X16397545Y-13861061D01*
X16397545Y-13861061D02*
X16416592Y-13832489D01*
X16416592Y-13832489D02*
X16426116Y-13822966D01*
X16483259Y-13851537D02*
X16607069Y-13851537D01*
X16607069Y-13851537D02*
X16540402Y-13927728D01*
X16540402Y-13927728D02*
X16568973Y-13927728D01*
X16568973Y-13927728D02*
X16588021Y-13937251D01*
X16588021Y-13937251D02*
X16597545Y-13946775D01*
X16597545Y-13946775D02*
X16607069Y-13965823D01*
X16607069Y-13965823D02*
X16607069Y-14013442D01*
X16607069Y-14013442D02*
X16597545Y-14032489D01*
X16597545Y-14032489D02*
X16588021Y-14042013D01*
X16588021Y-14042013D02*
X16568973Y-14051537D01*
X16568973Y-14051537D02*
X16511830Y-14051537D01*
X16511830Y-14051537D02*
X16492783Y-14042013D01*
X16492783Y-14042013D02*
X16483259Y-14032489D01*
X16683259Y-13870585D02*
X16692783Y-13861061D01*
X16692783Y-13861061D02*
X16711830Y-13851537D01*
X16711830Y-13851537D02*
X16759450Y-13851537D01*
X16759450Y-13851537D02*
X16778497Y-13861061D01*
X16778497Y-13861061D02*
X16788021Y-13870585D01*
X16788021Y-13870585D02*
X16797545Y-13889632D01*
X16797545Y-13889632D02*
X16797545Y-13908680D01*
X16797545Y-13908680D02*
X16788021Y-13937251D01*
X16788021Y-13937251D02*
X16673735Y-14051537D01*
X16673735Y-14051537D02*
X16797545Y-14051537D01*
X17035640Y-14051537D02*
X17035640Y-13851537D01*
X17121354Y-14051537D02*
X17121354Y-13946775D01*
X17121354Y-13946775D02*
X17111831Y-13927728D01*
X17111831Y-13927728D02*
X17092783Y-13918204D01*
X17092783Y-13918204D02*
X17064212Y-13918204D01*
X17064212Y-13918204D02*
X17045164Y-13927728D01*
X17045164Y-13927728D02*
X17035640Y-13937251D01*
X17245164Y-14051537D02*
X17226116Y-14042013D01*
X17226116Y-14042013D02*
X17216593Y-14032489D01*
X17216593Y-14032489D02*
X17207069Y-14013442D01*
X17207069Y-14013442D02*
X17207069Y-13956299D01*
X17207069Y-13956299D02*
X17216593Y-13937251D01*
X17216593Y-13937251D02*
X17226116Y-13927728D01*
X17226116Y-13927728D02*
X17245164Y-13918204D01*
X17245164Y-13918204D02*
X17273735Y-13918204D01*
X17273735Y-13918204D02*
X17292783Y-13927728D01*
X17292783Y-13927728D02*
X17302307Y-13937251D01*
X17302307Y-13937251D02*
X17311831Y-13956299D01*
X17311831Y-13956299D02*
X17311831Y-14013442D01*
X17311831Y-14013442D02*
X17302307Y-14032489D01*
X17302307Y-14032489D02*
X17292783Y-14042013D01*
X17292783Y-14042013D02*
X17273735Y-14051537D01*
X17273735Y-14051537D02*
X17245164Y-14051537D01*
X17426116Y-14051537D02*
X17407069Y-14042013D01*
X17407069Y-14042013D02*
X17397545Y-14022966D01*
X17397545Y-14022966D02*
X17397545Y-13851537D01*
X17578497Y-14042013D02*
X17559450Y-14051537D01*
X17559450Y-14051537D02*
X17521354Y-14051537D01*
X17521354Y-14051537D02*
X17502307Y-14042013D01*
X17502307Y-14042013D02*
X17492783Y-14022966D01*
X17492783Y-14022966D02*
X17492783Y-13946775D01*
X17492783Y-13946775D02*
X17502307Y-13927728D01*
X17502307Y-13927728D02*
X17521354Y-13918204D01*
X17521354Y-13918204D02*
X17559450Y-13918204D01*
X17559450Y-13918204D02*
X17578497Y-13927728D01*
X17578497Y-13927728D02*
X17588021Y-13946775D01*
X17588021Y-13946775D02*
X17588021Y-13965823D01*
X17588021Y-13965823D02*
X17492783Y-13984870D01*
X17664212Y-14042013D02*
X17683259Y-14051537D01*
X17683259Y-14051537D02*
X17721354Y-14051537D01*
X17721354Y-14051537D02*
X17740402Y-14042013D01*
X17740402Y-14042013D02*
X17749926Y-14022966D01*
X17749926Y-14022966D02*
X17749926Y-14013442D01*
X17749926Y-14013442D02*
X17740402Y-13994394D01*
X17740402Y-13994394D02*
X17721354Y-13984870D01*
X17721354Y-13984870D02*
X17692783Y-13984870D01*
X17692783Y-13984870D02*
X17673735Y-13975347D01*
X17673735Y-13975347D02*
X17664212Y-13956299D01*
X17664212Y-13956299D02*
X17664212Y-13946775D01*
X17664212Y-13946775D02*
X17673735Y-13927728D01*
X17673735Y-13927728D02*
X17692783Y-13918204D01*
X17692783Y-13918204D02*
X17721354Y-13918204D01*
X17721354Y-13918204D02*
X17740402Y-13927728D01*
X17816593Y-14127728D02*
X17826116Y-14118204D01*
X17826116Y-14118204D02*
X17845164Y-14089632D01*
X17845164Y-14089632D02*
X17854688Y-14070585D01*
X17854688Y-14070585D02*
X17864212Y-14042013D01*
X17864212Y-14042013D02*
X17873735Y-13994394D01*
X17873735Y-13994394D02*
X17873735Y-13956299D01*
X17873735Y-13956299D02*
X17864212Y-13908680D01*
X17864212Y-13908680D02*
X17854688Y-13880109D01*
X17854688Y-13880109D02*
X17845164Y-13861061D01*
X17845164Y-13861061D02*
X17826116Y-13832489D01*
X17826116Y-13832489D02*
X17816593Y-13822966D01*
M02*
