M48
; DRILL file {KiCad 8.0.5} date 2024-11-08T20:04:09-0500
; FORMAT={-:-/ absolute / metric / decimal}
; #@! TF.CreationDate,2024-11-08T20:04:09-05:00
; #@! TF.GenerationSoftware,Kicad,Pcbnew,8.0.5
; #@! TF.FileFunction,Plated,1,4,PTH
FMAT,2
METRIC
; #@! TA.AperFunction,Plated,PTH,ViaDrill
T1C0.300
; #@! TA.AperFunction,Plated,PTH,ComponentDrill
T2C1.000
%
G90
G05
T1
X130.036Y-60.536
X130.536Y-65.036
X130.536Y-67.536
X131.286Y-73.286
X131.536Y-101.886
X131.536Y-108.186
X132.036Y-84.036
X132.036Y-88.286
X132.286Y-97.536
X134.536Y-94.176
X134.536Y-105.536
X135.036Y-66.036
X135.036Y-74.536
X135.036Y-115.036
X135.136Y-91.97
X135.136Y-104.536
X135.736Y-92.541
X135.736Y-103.536
X136.036Y-65.536
X136.036Y-106.036
X136.336Y-96.036
X136.536Y-66.536
X136.536Y-73.936
X137.036Y-76.036
X137.036Y-98.036
X137.536Y-100.536
X137.636Y-76.836
X138.236Y-77.636
X138.236Y-95.736
X138.836Y-78.436
X139.096Y-92.976
X139.536Y-79.236
X139.536Y-85.536
X140.036Y-113.536
X140.136Y-81.536
X141.536Y-75.786
X142.766Y-118.576
X143.053Y-87.076
X143.266Y-120.076
X143.566Y-102.576
X145.0Y-122.0
X145.0Y-127.5
X145.766Y-106.076
X145.766Y-116.076
X145.936Y-80.136
X145.936Y-88.036
X146.536Y-80.836
X146.536Y-90.536
X147.166Y-102.576
X147.166Y-103.536
X147.266Y-92.076
X147.266Y-118.576
X147.766Y-93.576
X147.766Y-108.576
X147.766Y-109.576
X147.766Y-116.986
X148.466Y-79.976
X148.5Y-115.5
X148.5Y-124.0
X148.536Y-78.036
X149.0Y-71.0
X149.036Y-76.036
X149.666Y-75.376
X151.0Y-124.0
X152.231Y-101.076
X152.231Y-117.576
X152.266Y-78.076
X152.766Y-119.236
X152.831Y-96.141
X153.431Y-114.606
X153.666Y-106.576
X153.766Y-90.076
X153.766Y-93.576
X153.766Y-119.576
X154.036Y-57.436
X154.036Y-58.636
X154.036Y-62.184
X154.036Y-65.536
X154.366Y-78.676
X154.766Y-98.576
X154.776Y-109.539
X155.5Y-92.5
X156.0Y-118.5
X156.766Y-120.076
X157.766Y-118.0
X158.036Y-62.784
X158.036Y-65.536
X158.536Y-61.536
X158.636Y-64.036
X159.0Y-90.0
X159.266Y-94.076
X159.266Y-115.076
X159.266Y-118.0
X159.266Y-119.576
X160.0Y-108.0
X160.536Y-111.036
X160.536Y-112.806
X161.0Y-110.0
X161.0Y-116.0
X161.536Y-73.936
X161.536Y-76.536
X161.766Y-84.076
X161.766Y-88.576
X161.766Y-108.576
X162.266Y-92.576
X162.366Y-82.5
X162.536Y-99.536
X163.036Y-59.536
X163.036Y-61.036
X163.266Y-93.576
X163.5Y-126.0
X164.092Y-96.964
X164.366Y-118.076
X164.5Y-90.5
X164.536Y-58.036
X164.606Y-93.416
X164.766Y-97.396
X165.536Y-64.536
X165.536Y-68.536
X165.536Y-71.536
X165.536Y-72.536
X165.536Y-74.036
X167.266Y-119.576
X167.266Y-126.076
X167.97Y-57.97
X168.536Y-58.536
X168.536Y-66.036
X168.536Y-68.036
X168.536Y-70.036
X168.536Y-71.536
X168.536Y-73.536
X168.536Y-111.036
X168.536Y-112.036
X168.731Y-82.546
X169.036Y-100.036
X169.136Y-59.101
X169.136Y-64.536
X169.266Y-107.076
X169.266Y-109.576
X169.266Y-115.076
X169.636Y-60.536
X169.766Y-96.576
X169.936Y-64.536
X170.536Y-66.536
X170.536Y-68.676
X170.786Y-61.536
X172.266Y-97.396
X172.666Y-118.816
X173.166Y-95.036
X173.266Y-85.576
X173.536Y-57.036
X173.536Y-60.036
X173.536Y-62.536
X173.536Y-64.536
X173.766Y-86.576
X173.766Y-113.576
X173.936Y-70.036
X174.036Y-65.531
X174.036Y-66.731
X174.036Y-78.676
X174.036Y-122.036
X174.536Y-69.036
X174.548Y-78.061
X178.266Y-83.076
X178.266Y-102.076
T2
X150.266Y-80.536
X150.266Y-83.076
X150.266Y-85.616
X150.266Y-88.156
X150.266Y-90.696
X150.266Y-93.236
X150.266Y-95.776
X150.266Y-98.316
X150.266Y-100.856
X150.266Y-103.396
X150.266Y-105.936
X150.266Y-108.476
X150.266Y-111.016
X150.266Y-113.556
X150.266Y-116.096
X150.266Y-118.636
X175.766Y-80.716
X175.766Y-83.256
X175.766Y-85.796
X175.766Y-88.336
X175.766Y-90.876
X175.766Y-93.416
X175.766Y-95.956
X175.766Y-98.496
X175.766Y-101.036
X175.766Y-103.576
X175.766Y-106.116
X175.766Y-108.656
X175.766Y-111.196
X175.766Y-113.736
X175.766Y-116.276
X175.766Y-118.816
M30
