%TF.GenerationSoftware,KiCad,Pcbnew,8.0.5*%
%TF.CreationDate,2024-11-08T20:04:07-05:00*%
%TF.ProjectId,Main,4d61696e-2e6b-4696-9361-645f70636258,rev?*%
%TF.SameCoordinates,Original*%
%TF.FileFunction,Legend,Top*%
%TF.FilePolarity,Positive*%
%FSLAX46Y46*%
G04 Gerber Fmt 4.6, Leading zero omitted, Abs format (unit mm)*
G04 Created by KiCad (PCBNEW 8.0.5) date 2024-11-08 20:04:07*
%MOMM*%
%LPD*%
G01*
G04 APERTURE LIST*
%ADD10C,0.125000*%
%ADD11C,0.200000*%
%ADD12C,0.100000*%
%ADD13C,0.150000*%
%ADD14C,0.254000*%
%ADD15C,0.050000*%
%ADD16C,0.120000*%
%ADD17C,0.127000*%
%ADD18C,0.000000*%
%ADD19C,0.152400*%
G04 APERTURE END LIST*
D10*
G36*
X137792641Y-106312961D02*
G01*
X137839810Y-106316898D01*
X137883725Y-106323459D01*
X137924388Y-106332646D01*
X137961797Y-106344457D01*
X138011812Y-106367094D01*
X138054508Y-106395637D01*
X138089885Y-106430086D01*
X138117942Y-106470440D01*
X138138680Y-106516700D01*
X138148439Y-106550820D01*
X138154945Y-106587566D01*
X138158198Y-106626935D01*
X138158605Y-106647605D01*
X138156797Y-106686546D01*
X138151375Y-106723526D01*
X138142338Y-106758545D01*
X138129686Y-106791604D01*
X138113420Y-106822702D01*
X138088003Y-106858817D01*
X138056938Y-106891868D01*
X138042931Y-106904230D01*
X138012792Y-106926911D01*
X137980210Y-106946567D01*
X137945185Y-106963199D01*
X137907718Y-106976807D01*
X137867809Y-106987391D01*
X137825457Y-106994951D01*
X137780663Y-106999487D01*
X137733427Y-107001000D01*
X137524550Y-107001000D01*
X137524550Y-106924405D01*
X137616776Y-106924405D01*
X137734404Y-106924405D01*
X137781146Y-106922656D01*
X137824529Y-106917409D01*
X137864554Y-106908665D01*
X137901221Y-106896422D01*
X137940789Y-106877114D01*
X137975520Y-106852769D01*
X138004870Y-106823801D01*
X138028148Y-106790626D01*
X138045354Y-106753244D01*
X138055053Y-106718878D01*
X138060535Y-106681590D01*
X138061884Y-106649656D01*
X138059054Y-106602939D01*
X138050564Y-106560817D01*
X138036413Y-106523289D01*
X138016602Y-106490358D01*
X137991130Y-106462021D01*
X137959998Y-106438279D01*
X137923206Y-106419133D01*
X137880754Y-106404581D01*
X137832641Y-106394625D01*
X137778868Y-106389264D01*
X137739875Y-106388243D01*
X137616776Y-106388243D01*
X137616776Y-106924405D01*
X137524550Y-106924405D01*
X137524550Y-106311648D01*
X137742219Y-106311648D01*
X137792641Y-106312961D01*
G37*
G36*
X138557771Y-106499834D02*
G01*
X138599573Y-106507850D01*
X138636588Y-106521773D01*
X138668816Y-106541603D01*
X138688905Y-106559384D01*
X138712506Y-106588611D01*
X138730311Y-106622435D01*
X138742319Y-106660858D01*
X138747998Y-106697450D01*
X138749477Y-106730525D01*
X138749477Y-106771216D01*
X138352045Y-106771216D01*
X138355192Y-106806043D01*
X138364192Y-106841378D01*
X138381207Y-106875433D01*
X138402457Y-106900640D01*
X138432589Y-106922707D01*
X138468471Y-106937552D01*
X138510102Y-106945175D01*
X138535715Y-106946289D01*
X138576532Y-106943671D01*
X138615890Y-106935817D01*
X138653789Y-106922727D01*
X138690230Y-106904401D01*
X138710398Y-106891579D01*
X138710398Y-106965096D01*
X138675632Y-106983349D01*
X138636304Y-106997119D01*
X138592413Y-107006406D01*
X138551160Y-107010798D01*
X138514222Y-107011942D01*
X138471319Y-107009591D01*
X138432001Y-107002541D01*
X138390662Y-106988375D01*
X138354204Y-106967811D01*
X138326839Y-106945092D01*
X138300268Y-106913169D01*
X138282687Y-106881665D01*
X138269901Y-106846339D01*
X138261909Y-106807189D01*
X138258913Y-106771645D01*
X138258646Y-106756683D01*
X138260464Y-106721922D01*
X138263393Y-106705563D01*
X138353217Y-106705563D01*
X138657055Y-106705563D01*
X138653835Y-106670039D01*
X138643478Y-106636119D01*
X138623842Y-106605556D01*
X138619344Y-106600759D01*
X138587553Y-106577942D01*
X138547573Y-106565656D01*
X138516371Y-106563316D01*
X138474841Y-106567963D01*
X138437837Y-106581903D01*
X138408123Y-106602639D01*
X138383619Y-106629587D01*
X138365793Y-106661277D01*
X138354645Y-106697708D01*
X138353217Y-106705563D01*
X138263393Y-106705563D01*
X138267443Y-106682941D01*
X138279657Y-106646941D01*
X138297105Y-106613922D01*
X138319787Y-106583885D01*
X138333092Y-106569984D01*
X138362279Y-106545407D01*
X138399544Y-106523160D01*
X138440268Y-106507834D01*
X138484452Y-106499429D01*
X138518130Y-106497664D01*
X138557771Y-106499834D01*
G37*
G36*
X138848542Y-106983732D02*
G01*
X138848542Y-106902521D01*
X138886302Y-106921669D01*
X138925918Y-106935347D01*
X138967390Y-106943554D01*
X139010719Y-106946289D01*
X139051026Y-106943843D01*
X139091796Y-106932970D01*
X139121911Y-106907148D01*
X139129323Y-106876704D01*
X139119163Y-106843365D01*
X139091612Y-106819258D01*
X139056734Y-106802410D01*
X139050970Y-106800281D01*
X139014004Y-106787169D01*
X139000754Y-106782671D01*
X138963485Y-106768817D01*
X138934906Y-106756512D01*
X138901847Y-106737761D01*
X138887621Y-106726764D01*
X138863731Y-106698138D01*
X138859093Y-106689150D01*
X138850276Y-106655123D01*
X138849519Y-106639740D01*
X138854647Y-106605265D01*
X138867690Y-106578533D01*
X138891905Y-106551286D01*
X138915953Y-106533909D01*
X138950503Y-106517345D01*
X138984927Y-106506896D01*
X139024397Y-106499972D01*
X139065039Y-106497664D01*
X139104924Y-106499354D01*
X139146376Y-106505198D01*
X139184814Y-106515216D01*
X139195757Y-106519035D01*
X139195757Y-106596143D01*
X139159338Y-106580274D01*
X139119982Y-106569599D01*
X139077689Y-106564118D01*
X139052924Y-106563316D01*
X139013867Y-106566968D01*
X139007397Y-106568445D01*
X138972422Y-106582636D01*
X138949951Y-106604691D01*
X138941940Y-106632901D01*
X138949951Y-106665043D01*
X138973203Y-106688124D01*
X139007813Y-106705385D01*
X139010524Y-106706418D01*
X139046940Y-106719337D01*
X139060544Y-106724028D01*
X139098047Y-106737530D01*
X139127565Y-106749845D01*
X139161255Y-106767636D01*
X139178172Y-106779593D01*
X139203179Y-106805925D01*
X139210217Y-106817720D01*
X139220443Y-106851219D01*
X139221549Y-106869011D01*
X139216958Y-106903034D01*
X139203182Y-106932270D01*
X139178563Y-106959600D01*
X139153943Y-106976893D01*
X139118647Y-106993179D01*
X139083015Y-107003222D01*
X139041982Y-107009762D01*
X139001739Y-107011933D01*
X138998995Y-107011942D01*
X138957059Y-107010178D01*
X138918004Y-107004889D01*
X138877513Y-106994724D01*
X138848542Y-106983732D01*
G37*
G36*
X139403852Y-106388243D02*
G01*
X139365875Y-106376869D01*
X139362624Y-106374394D01*
X139345774Y-106343116D01*
X139345625Y-106339175D01*
X139359586Y-106306647D01*
X139362624Y-106303955D01*
X139399373Y-106289889D01*
X139403852Y-106289764D01*
X139441444Y-106300629D01*
X139445862Y-106303955D01*
X139463099Y-106335263D01*
X139463252Y-106339175D01*
X139448970Y-106371136D01*
X139445862Y-106373882D01*
X139409937Y-106388019D01*
X139403852Y-106388243D01*
G37*
G36*
X139447816Y-107001000D02*
G01*
X139357739Y-107001000D01*
X139357739Y-106508606D01*
X139447816Y-106508606D01*
X139447816Y-107001000D01*
G37*
G36*
X139888822Y-106500441D02*
G01*
X139930996Y-106510700D01*
X139967522Y-106528519D01*
X139998401Y-106553897D01*
X140016999Y-106576652D01*
X140019149Y-106576652D01*
X140019149Y-106508606D01*
X140109226Y-106508606D01*
X140109226Y-106967147D01*
X140106619Y-107016217D01*
X140098798Y-107060461D01*
X140085763Y-107099878D01*
X140067515Y-107134468D01*
X140044053Y-107164232D01*
X140015377Y-107189169D01*
X139981487Y-107209280D01*
X139942383Y-107224564D01*
X139898066Y-107235022D01*
X139848535Y-107240653D01*
X139812617Y-107241725D01*
X139768154Y-107240130D01*
X139726234Y-107235344D01*
X139686858Y-107227367D01*
X139644970Y-107214344D01*
X139630119Y-107208386D01*
X139630119Y-107132304D01*
X139665487Y-107147179D01*
X139705950Y-107160643D01*
X139745554Y-107169918D01*
X139784297Y-107175004D01*
X139811445Y-107176073D01*
X139860125Y-107172923D01*
X139902315Y-107163474D01*
X139938014Y-107147726D01*
X139973511Y-107119183D01*
X139994606Y-107089262D01*
X140009210Y-107053042D01*
X140017323Y-107010523D01*
X140019149Y-106974499D01*
X140019149Y-106918421D01*
X140016999Y-106918421D01*
X139990612Y-106950203D01*
X139959663Y-106975410D01*
X139924154Y-106994041D01*
X139884083Y-107006097D01*
X139839450Y-107011576D01*
X139823559Y-107011942D01*
X139779532Y-107008808D01*
X139739431Y-106999408D01*
X139703258Y-106983741D01*
X139671011Y-106961807D01*
X139654348Y-106946460D01*
X139629452Y-106915668D01*
X139610670Y-106880590D01*
X139599439Y-106847110D01*
X139592700Y-106810481D01*
X139590454Y-106770703D01*
X139590689Y-106765403D01*
X139682875Y-106765403D01*
X139685044Y-106799811D01*
X139692836Y-106835287D01*
X139708374Y-106870293D01*
X139728207Y-106897050D01*
X139759401Y-106923016D01*
X139796320Y-106939365D01*
X139838963Y-106946097D01*
X139848179Y-106946289D01*
X139888677Y-106942556D01*
X139928382Y-106929654D01*
X139962515Y-106907534D01*
X139971668Y-106899101D01*
X139994620Y-106870476D01*
X140010061Y-106837684D01*
X140017990Y-106800728D01*
X140019149Y-106778397D01*
X140019149Y-106705734D01*
X140014722Y-106670719D01*
X139999626Y-106635982D01*
X139976606Y-106607838D01*
X139973817Y-106605204D01*
X139943310Y-106583115D01*
X139904727Y-106568266D01*
X139865083Y-106563357D01*
X139860879Y-106563316D01*
X139821422Y-106566640D01*
X139782433Y-106578323D01*
X139749164Y-106598418D01*
X139730161Y-106616488D01*
X139709473Y-106645735D01*
X139694697Y-106680303D01*
X139686616Y-106714915D01*
X139683060Y-106753601D01*
X139682875Y-106765403D01*
X139590689Y-106765403D01*
X139592138Y-106732797D01*
X139597190Y-106697403D01*
X139607697Y-106658247D01*
X139623055Y-106622710D01*
X139643262Y-106590792D01*
X139659428Y-106571523D01*
X139687079Y-106546422D01*
X139723854Y-106523702D01*
X139765490Y-106508050D01*
X139805049Y-106500260D01*
X139848179Y-106497664D01*
X139888822Y-106500441D01*
G37*
G36*
X140755004Y-107001000D02*
G01*
X140664732Y-107001000D01*
X140664732Y-106720096D01*
X140662689Y-106683351D01*
X140654391Y-106644309D01*
X140636009Y-106607564D01*
X140608436Y-106581842D01*
X140571671Y-106567144D01*
X140534013Y-106563316D01*
X140494029Y-106567657D01*
X140455293Y-106582460D01*
X140424847Y-106605034D01*
X140422052Y-106607769D01*
X140398765Y-106637839D01*
X140384103Y-106672483D01*
X140378281Y-106707575D01*
X140377893Y-106720096D01*
X140377893Y-107001000D01*
X140287816Y-107001000D01*
X140287816Y-106508606D01*
X140377893Y-106508606D01*
X140377893Y-106590159D01*
X140380042Y-106590159D01*
X140406008Y-106558725D01*
X140435986Y-106533795D01*
X140469975Y-106515368D01*
X140507976Y-106503445D01*
X140549989Y-106498025D01*
X140564885Y-106497664D01*
X140608287Y-106500923D01*
X140646267Y-106510700D01*
X140682513Y-106529491D01*
X140705960Y-106549810D01*
X140727416Y-106578768D01*
X140742743Y-106613496D01*
X140751124Y-106648617D01*
X140754812Y-106688155D01*
X140755004Y-106700263D01*
X140755004Y-107001000D01*
G37*
G36*
X141318130Y-106594946D02*
G01*
X141320279Y-106594946D01*
X141347422Y-106561885D01*
X141378879Y-106535665D01*
X141414650Y-106516284D01*
X141454735Y-106503744D01*
X141499134Y-106498044D01*
X141514892Y-106497664D01*
X141559997Y-106500822D01*
X141600596Y-106510296D01*
X141636688Y-106526085D01*
X141668273Y-106548191D01*
X141684299Y-106563658D01*
X141708205Y-106594674D01*
X141726240Y-106629977D01*
X141737025Y-106663649D01*
X141743496Y-106700470D01*
X141745653Y-106740441D01*
X141743973Y-106777765D01*
X141738936Y-106812693D01*
X141728458Y-106851443D01*
X141713144Y-106886744D01*
X141692994Y-106918595D01*
X141676874Y-106937912D01*
X141649376Y-106963070D01*
X141612798Y-106985843D01*
X141571376Y-107001531D01*
X141532017Y-107009339D01*
X141489100Y-107011942D01*
X141449171Y-107009062D01*
X141407414Y-106998426D01*
X141370856Y-106979951D01*
X141339496Y-106953640D01*
X141320279Y-106930047D01*
X141318130Y-106930047D01*
X141318130Y-107001000D01*
X141228053Y-107001000D01*
X141228053Y-106731209D01*
X141318130Y-106731209D01*
X141318130Y-106800110D01*
X141322557Y-106836454D01*
X141335838Y-106869192D01*
X141357972Y-106898324D01*
X141363461Y-106903718D01*
X141394179Y-106926167D01*
X141433478Y-106941259D01*
X141474213Y-106946248D01*
X141478549Y-106946289D01*
X141521882Y-106941948D01*
X141559559Y-106928924D01*
X141591578Y-106907218D01*
X141606923Y-106891408D01*
X141627268Y-106861296D01*
X141641801Y-106825841D01*
X141649748Y-106790435D01*
X141653245Y-106750939D01*
X141653427Y-106738903D01*
X141651351Y-106704626D01*
X141643895Y-106669620D01*
X141629027Y-106635551D01*
X141610049Y-106609991D01*
X141579923Y-106585377D01*
X141543768Y-106569880D01*
X141501582Y-106563499D01*
X141492422Y-106563316D01*
X141450570Y-106567103D01*
X141413603Y-106578463D01*
X141378256Y-106599968D01*
X141365806Y-106611188D01*
X141342760Y-106640036D01*
X141327255Y-106672725D01*
X141319294Y-106709255D01*
X141318130Y-106731209D01*
X141228053Y-106731209D01*
X141228053Y-106267880D01*
X141318130Y-106267880D01*
X141318130Y-106594946D01*
G37*
G36*
X142333985Y-106508606D02*
G01*
X142075087Y-107080842D01*
X142056919Y-107118549D01*
X142036998Y-107151229D01*
X142009632Y-107185008D01*
X141979528Y-107210931D01*
X141939789Y-107231670D01*
X141896107Y-107241097D01*
X141880670Y-107241725D01*
X141841210Y-107239321D01*
X141821856Y-107235570D01*
X141821856Y-107165131D01*
X141859579Y-107175004D01*
X141875199Y-107176073D01*
X141914396Y-107168676D01*
X141946991Y-107146487D01*
X141970682Y-107113869D01*
X141977390Y-107100333D01*
X142022331Y-107001000D01*
X141802512Y-106508606D01*
X141902554Y-106508606D01*
X142054766Y-106888501D01*
X142065219Y-106922401D01*
X142066295Y-106926115D01*
X142069616Y-106926115D01*
X142079554Y-106892595D01*
X142080558Y-106889527D01*
X142240586Y-106508606D01*
X142333985Y-106508606D01*
G37*
G36*
X142459037Y-106607085D02*
G01*
X142421649Y-106595522D01*
X142415855Y-106590842D01*
X142398508Y-106558809D01*
X142398074Y-106551861D01*
X142410733Y-106518646D01*
X142415855Y-106513564D01*
X142451337Y-106498052D01*
X142459037Y-106497664D01*
X142497136Y-106508983D01*
X142503001Y-106513564D01*
X142520729Y-106544976D01*
X142521173Y-106551861D01*
X142509176Y-106584523D01*
X142503001Y-106590842D01*
X142466911Y-106606688D01*
X142459037Y-106607085D01*
G37*
G36*
X142459037Y-107011942D02*
G01*
X142421649Y-107000500D01*
X142415855Y-106995870D01*
X142398508Y-106964247D01*
X142398074Y-106957402D01*
X142410733Y-106924156D01*
X142415855Y-106918934D01*
X142451337Y-106902921D01*
X142459037Y-106902521D01*
X142497136Y-106914206D01*
X142503001Y-106918934D01*
X142520729Y-106950603D01*
X142521173Y-106957402D01*
X142508236Y-106990694D01*
X142503001Y-106995870D01*
X142466911Y-107011549D01*
X142459037Y-107011942D01*
G37*
G36*
X138144536Y-108177000D02*
G01*
X138031403Y-108177000D01*
X137625764Y-107627502D01*
X137606581Y-107596792D01*
X137600558Y-107584247D01*
X137597236Y-107584247D01*
X137600461Y-107618953D01*
X137601384Y-107653495D01*
X137601535Y-107678964D01*
X137601535Y-108177000D01*
X137509309Y-108177000D01*
X137509309Y-107487648D01*
X137629086Y-107487648D01*
X138023782Y-108028427D01*
X138045033Y-108058229D01*
X138055631Y-108074588D01*
X138057781Y-108074588D01*
X138054041Y-108040541D01*
X138052572Y-108002540D01*
X138052310Y-107973203D01*
X138052310Y-107487648D01*
X138144536Y-107487648D01*
X138144536Y-108177000D01*
G37*
G36*
X138595677Y-107675834D02*
G01*
X138637479Y-107683850D01*
X138674494Y-107697773D01*
X138706722Y-107717603D01*
X138726811Y-107735384D01*
X138750413Y-107764611D01*
X138768218Y-107798435D01*
X138780226Y-107836858D01*
X138785904Y-107873450D01*
X138787383Y-107906525D01*
X138787383Y-107947216D01*
X138389951Y-107947216D01*
X138393098Y-107982043D01*
X138402098Y-108017378D01*
X138419114Y-108051433D01*
X138440363Y-108076640D01*
X138470495Y-108098707D01*
X138506377Y-108113552D01*
X138548009Y-108121175D01*
X138573622Y-108122289D01*
X138614438Y-108119671D01*
X138653796Y-108111817D01*
X138691695Y-108098727D01*
X138728136Y-108080401D01*
X138748304Y-108067579D01*
X138748304Y-108141096D01*
X138713539Y-108159349D01*
X138674210Y-108173119D01*
X138630319Y-108182406D01*
X138589066Y-108186798D01*
X138552128Y-108187942D01*
X138509225Y-108185591D01*
X138469907Y-108178541D01*
X138428568Y-108164375D01*
X138392110Y-108143811D01*
X138364745Y-108121092D01*
X138338174Y-108089169D01*
X138320593Y-108057665D01*
X138307807Y-108022339D01*
X138299816Y-107983189D01*
X138296819Y-107947645D01*
X138296553Y-107932683D01*
X138298370Y-107897922D01*
X138301299Y-107881563D01*
X138391123Y-107881563D01*
X138694962Y-107881563D01*
X138691742Y-107846039D01*
X138681384Y-107812119D01*
X138661748Y-107781556D01*
X138657250Y-107776759D01*
X138625459Y-107753942D01*
X138585480Y-107741656D01*
X138554278Y-107739316D01*
X138512748Y-107743963D01*
X138475743Y-107757903D01*
X138446029Y-107778639D01*
X138421525Y-107805587D01*
X138403699Y-107837277D01*
X138392552Y-107873708D01*
X138391123Y-107881563D01*
X138301299Y-107881563D01*
X138305349Y-107858941D01*
X138317563Y-107822941D01*
X138335011Y-107789922D01*
X138357694Y-107759885D01*
X138370998Y-107745984D01*
X138400186Y-107721407D01*
X138437450Y-107699160D01*
X138478175Y-107683834D01*
X138522358Y-107675429D01*
X138556036Y-107673664D01*
X138595677Y-107675834D01*
G37*
G36*
X139387634Y-108177000D02*
G01*
X139297362Y-108177000D01*
X139297362Y-107893189D01*
X139295320Y-107857125D01*
X139287022Y-107818807D01*
X139268640Y-107782743D01*
X139241066Y-107757499D01*
X139204302Y-107743073D01*
X139166643Y-107739316D01*
X139127408Y-107743657D01*
X139088966Y-107758460D01*
X139058305Y-107781034D01*
X139055464Y-107783769D01*
X139031765Y-107814022D01*
X139016843Y-107849218D01*
X139010918Y-107885120D01*
X139010523Y-107897976D01*
X139010523Y-108177000D01*
X138920447Y-108177000D01*
X138920447Y-107443880D01*
X139010523Y-107443880D01*
X139010523Y-107766159D01*
X139012673Y-107766159D01*
X139038936Y-107734725D01*
X139069074Y-107709795D01*
X139103087Y-107691368D01*
X139140973Y-107679445D01*
X139182734Y-107674025D01*
X139197516Y-107673664D01*
X139242075Y-107676792D01*
X139280693Y-107686177D01*
X139320610Y-107706706D01*
X139351244Y-107737010D01*
X139369068Y-107768292D01*
X139380950Y-107805831D01*
X139386892Y-107849626D01*
X139387634Y-107873870D01*
X139387634Y-108177000D01*
G37*
G36*
X139805170Y-107676530D02*
G01*
X139845455Y-107685130D01*
X139887096Y-107703940D01*
X139919053Y-107731709D01*
X139941325Y-107768435D01*
X139952171Y-107804265D01*
X139956820Y-107845828D01*
X139957013Y-107857115D01*
X139957013Y-108177000D01*
X139866936Y-108177000D01*
X139866936Y-108100234D01*
X139864787Y-108100234D01*
X139840781Y-108130041D01*
X139807843Y-108157021D01*
X139769593Y-108175608D01*
X139726033Y-108185800D01*
X139691668Y-108187942D01*
X139651929Y-108185559D01*
X139612654Y-108177181D01*
X139575758Y-108160799D01*
X139559972Y-108149815D01*
X139534933Y-108123459D01*
X139518102Y-108088874D01*
X139512538Y-108052349D01*
X139512491Y-108048430D01*
X139513001Y-108043985D01*
X139604913Y-108043985D01*
X139614186Y-108078835D01*
X139634222Y-108100405D01*
X139668562Y-108116818D01*
X139709541Y-108122268D01*
X139712575Y-108122289D01*
X139752173Y-108118449D01*
X139790441Y-108105354D01*
X139823168Y-108082966D01*
X139848087Y-108053369D01*
X139862662Y-108018884D01*
X139866936Y-107983290D01*
X139866936Y-107936274D01*
X139731333Y-107952003D01*
X139691860Y-107958391D01*
X139654616Y-107969378D01*
X139636762Y-107977990D01*
X139611911Y-108005897D01*
X139604944Y-108041053D01*
X139604913Y-108043985D01*
X139513001Y-108043985D01*
X139517028Y-108008882D01*
X139530638Y-107974870D01*
X139553321Y-107946392D01*
X139585077Y-107923448D01*
X139625907Y-107906040D01*
X139665103Y-107896098D01*
X139698311Y-107890967D01*
X139866936Y-107870621D01*
X139864103Y-107832794D01*
X139853222Y-107795865D01*
X139830213Y-107764449D01*
X139796096Y-107745599D01*
X139750872Y-107739316D01*
X139707364Y-107742458D01*
X139665745Y-107751883D01*
X139626015Y-107767590D01*
X139588173Y-107789581D01*
X139567397Y-107804969D01*
X139567397Y-107721364D01*
X139604934Y-107702778D01*
X139644884Y-107688757D01*
X139687246Y-107679300D01*
X139732020Y-107674409D01*
X139758688Y-107673664D01*
X139805170Y-107676530D01*
G37*
G36*
X140644215Y-107929606D02*
G01*
X140642765Y-107966533D01*
X140638414Y-108000806D01*
X140629365Y-108038428D01*
X140616139Y-108072228D01*
X140595430Y-108106830D01*
X140584815Y-108120066D01*
X140556911Y-108146514D01*
X140525173Y-108166465D01*
X140484208Y-108181313D01*
X140444255Y-108187345D01*
X140425959Y-108187942D01*
X140386335Y-108185199D01*
X140350146Y-108175461D01*
X140350146Y-108089463D01*
X140386666Y-108106538D01*
X140427132Y-108111347D01*
X140469497Y-108104886D01*
X140503097Y-108085501D01*
X140527932Y-108053194D01*
X140541932Y-108016399D01*
X140548750Y-107980502D01*
X140551672Y-107938862D01*
X140551793Y-107927554D01*
X140551793Y-107487648D01*
X140644215Y-107487648D01*
X140644215Y-107929606D01*
G37*
G36*
X141123429Y-107676044D02*
G01*
X141164785Y-107683185D01*
X141202253Y-107695086D01*
X141241051Y-107714987D01*
X141274557Y-107741368D01*
X141298595Y-107768538D01*
X141317660Y-107799399D01*
X141331751Y-107833950D01*
X141340869Y-107872192D01*
X141344668Y-107906879D01*
X141345290Y-107928922D01*
X141343429Y-107964488D01*
X141336285Y-108004158D01*
X141323783Y-108040547D01*
X141305923Y-108073653D01*
X141282704Y-108103478D01*
X141269086Y-108117160D01*
X141238755Y-108141215D01*
X141204771Y-108160293D01*
X141167131Y-108174394D01*
X141125837Y-108183518D01*
X141080889Y-108187665D01*
X141065094Y-108187942D01*
X141020045Y-108185525D01*
X140978541Y-108178276D01*
X140940581Y-108166195D01*
X140906165Y-108149281D01*
X140875295Y-108127534D01*
X140865792Y-108119212D01*
X140840492Y-108091799D01*
X140820427Y-108061237D01*
X140805596Y-108027525D01*
X140796000Y-107990664D01*
X140791638Y-107950653D01*
X140791347Y-107936616D01*
X140791494Y-107933709D01*
X140883768Y-107933709D01*
X140886209Y-107970239D01*
X140894974Y-108007660D01*
X140910114Y-108040465D01*
X140934766Y-108071853D01*
X140966298Y-108096234D01*
X141003301Y-108112635D01*
X141045776Y-108121058D01*
X141071738Y-108122289D01*
X141112880Y-108119190D01*
X141153123Y-108108296D01*
X141186966Y-108089558D01*
X141205973Y-108072708D01*
X141228737Y-108041518D01*
X141242717Y-108008254D01*
X141250810Y-107969775D01*
X141253063Y-107931829D01*
X141250810Y-107893399D01*
X141244050Y-107859044D01*
X141230806Y-107824770D01*
X141208871Y-107792572D01*
X141205973Y-107789411D01*
X141176396Y-107765195D01*
X141140419Y-107748905D01*
X141098044Y-107740539D01*
X141071738Y-107739316D01*
X141030619Y-107742554D01*
X140989762Y-107753937D01*
X140954624Y-107773515D01*
X140934375Y-107791120D01*
X140912235Y-107819394D01*
X140896420Y-107852584D01*
X140886931Y-107890689D01*
X140883818Y-107928063D01*
X140883768Y-107933709D01*
X140791494Y-107933709D01*
X140793236Y-107899257D01*
X140798903Y-107864544D01*
X140810691Y-107826383D01*
X140827919Y-107792032D01*
X140850588Y-107761492D01*
X140868723Y-107743249D01*
X140899722Y-107719601D01*
X140934540Y-107700845D01*
X140973178Y-107686983D01*
X141015635Y-107678013D01*
X141061911Y-107673936D01*
X141078186Y-107673664D01*
X141123429Y-107676044D01*
G37*
G36*
X141575659Y-107770946D02*
G01*
X141577809Y-107770946D01*
X141604952Y-107737885D01*
X141636409Y-107711665D01*
X141672180Y-107692284D01*
X141712264Y-107679744D01*
X141756663Y-107674044D01*
X141772421Y-107673664D01*
X141817527Y-107676822D01*
X141858125Y-107686296D01*
X141894218Y-107702085D01*
X141925803Y-107724191D01*
X141941828Y-107739658D01*
X141965735Y-107770674D01*
X141983769Y-107805977D01*
X141994554Y-107839649D01*
X142001025Y-107876470D01*
X142003182Y-107916441D01*
X142001503Y-107953765D01*
X141996465Y-107988693D01*
X141985987Y-108027443D01*
X141970673Y-108062744D01*
X141950523Y-108094595D01*
X141934403Y-108113912D01*
X141906905Y-108139070D01*
X141870327Y-108161843D01*
X141828906Y-108177531D01*
X141789547Y-108185339D01*
X141746629Y-108187942D01*
X141706700Y-108185062D01*
X141664944Y-108174426D01*
X141628385Y-108155951D01*
X141597026Y-108129640D01*
X141577809Y-108106047D01*
X141575659Y-108106047D01*
X141575659Y-108177000D01*
X141485583Y-108177000D01*
X141485583Y-107907209D01*
X141575659Y-107907209D01*
X141575659Y-107976110D01*
X141580086Y-108012454D01*
X141593367Y-108045192D01*
X141615502Y-108074324D01*
X141620991Y-108079718D01*
X141651708Y-108102167D01*
X141691007Y-108117259D01*
X141731742Y-108122248D01*
X141736078Y-108122289D01*
X141779412Y-108117948D01*
X141817088Y-108104924D01*
X141849108Y-108083218D01*
X141864452Y-108067408D01*
X141884798Y-108037296D01*
X141899330Y-108001841D01*
X141907277Y-107966435D01*
X141910774Y-107926939D01*
X141910956Y-107914903D01*
X141908880Y-107880626D01*
X141901425Y-107845620D01*
X141886556Y-107811551D01*
X141867578Y-107785991D01*
X141837453Y-107761377D01*
X141801297Y-107745880D01*
X141759112Y-107739499D01*
X141749951Y-107739316D01*
X141708100Y-107743103D01*
X141671132Y-107754463D01*
X141635786Y-107775968D01*
X141623336Y-107787188D01*
X141600289Y-107816036D01*
X141584785Y-107848725D01*
X141576823Y-107885255D01*
X141575659Y-107907209D01*
X141485583Y-107907209D01*
X141485583Y-107443880D01*
X141575659Y-107443880D01*
X141575659Y-107770946D01*
G37*
G36*
X142591514Y-107684606D02*
G01*
X142332617Y-108256842D01*
X142314448Y-108294549D01*
X142294527Y-108327229D01*
X142267161Y-108361008D01*
X142237058Y-108386931D01*
X142197318Y-108407670D01*
X142153636Y-108417097D01*
X142138200Y-108417725D01*
X142098739Y-108415321D01*
X142079386Y-108411570D01*
X142079386Y-108341131D01*
X142117108Y-108351004D01*
X142132728Y-108352073D01*
X142171926Y-108344676D01*
X142204521Y-108322487D01*
X142228211Y-108289869D01*
X142234920Y-108276333D01*
X142279860Y-108177000D01*
X142060042Y-107684606D01*
X142160084Y-107684606D01*
X142312296Y-108064501D01*
X142322749Y-108098401D01*
X142323824Y-108102115D01*
X142327146Y-108102115D01*
X142337083Y-108068595D01*
X142338088Y-108065527D01*
X142498116Y-107684606D01*
X142591514Y-107684606D01*
G37*
G36*
X137546434Y-109353000D02*
G01*
X137454599Y-109353000D01*
X137454599Y-108890526D01*
X137455343Y-108853927D01*
X137457286Y-108816878D01*
X137460024Y-108780675D01*
X137462219Y-108756485D01*
X137460070Y-108756485D01*
X137449758Y-108790035D01*
X137436427Y-108823334D01*
X137167174Y-109353000D01*
X137122038Y-109353000D01*
X136853371Y-108827096D01*
X136840216Y-108793394D01*
X136830485Y-108759432D01*
X136829728Y-108756485D01*
X136827579Y-108756485D01*
X136830026Y-108791112D01*
X136831273Y-108828640D01*
X136831773Y-108863550D01*
X136831877Y-108891551D01*
X136831877Y-109353000D01*
X136742973Y-109353000D01*
X136742973Y-108663648D01*
X136864899Y-108663648D01*
X137106797Y-109144245D01*
X137122333Y-109176128D01*
X137136768Y-109209389D01*
X137142945Y-109226995D01*
X137146267Y-109226995D01*
X137160128Y-109194340D01*
X137175408Y-109160326D01*
X137184173Y-109142364D01*
X137430956Y-108663648D01*
X137546434Y-108663648D01*
X137546434Y-109353000D01*
G37*
G36*
X137986832Y-108852530D02*
G01*
X138027116Y-108861130D01*
X138068757Y-108879940D01*
X138100714Y-108907709D01*
X138122987Y-108944435D01*
X138133832Y-108980265D01*
X138138481Y-109021828D01*
X138138674Y-109033115D01*
X138138674Y-109353000D01*
X138048598Y-109353000D01*
X138048598Y-109276234D01*
X138046448Y-109276234D01*
X138022442Y-109306041D01*
X137989504Y-109333021D01*
X137951255Y-109351608D01*
X137907695Y-109361800D01*
X137873329Y-109363942D01*
X137833591Y-109361559D01*
X137794315Y-109353181D01*
X137757419Y-109336799D01*
X137741633Y-109325815D01*
X137716595Y-109299459D01*
X137699763Y-109264874D01*
X137694199Y-109228349D01*
X137694152Y-109224430D01*
X137694662Y-109219985D01*
X137786574Y-109219985D01*
X137795848Y-109254835D01*
X137815883Y-109276405D01*
X137850224Y-109292818D01*
X137891202Y-109298268D01*
X137894236Y-109298289D01*
X137933834Y-109294449D01*
X137972102Y-109281354D01*
X138004829Y-109258966D01*
X138029748Y-109229369D01*
X138044323Y-109194884D01*
X138048598Y-109159290D01*
X138048598Y-109112274D01*
X137912994Y-109128003D01*
X137873521Y-109134391D01*
X137836277Y-109145378D01*
X137818423Y-109153990D01*
X137793572Y-109181897D01*
X137786605Y-109217053D01*
X137786574Y-109219985D01*
X137694662Y-109219985D01*
X137698689Y-109184882D01*
X137712299Y-109150870D01*
X137734982Y-109122392D01*
X137766738Y-109099448D01*
X137807568Y-109082040D01*
X137846764Y-109072098D01*
X137879972Y-109066967D01*
X138048598Y-109046621D01*
X138045764Y-109008794D01*
X138034883Y-108971865D01*
X138011874Y-108940449D01*
X137977758Y-108921599D01*
X137932533Y-108915316D01*
X137889026Y-108918458D01*
X137847406Y-108927883D01*
X137807676Y-108943590D01*
X137769834Y-108965581D01*
X137749058Y-108980969D01*
X137749058Y-108897364D01*
X137786595Y-108878778D01*
X137826545Y-108864757D01*
X137868907Y-108855300D01*
X137913681Y-108850409D01*
X137940349Y-108849664D01*
X137986832Y-108852530D01*
G37*
G36*
X138716846Y-108860606D02*
G01*
X138527704Y-109109709D01*
X138713524Y-109353000D01*
X138608598Y-109353000D01*
X138498004Y-109193314D01*
X138477747Y-109162736D01*
X138473385Y-109155871D01*
X138471235Y-109155871D01*
X138450698Y-109185473D01*
X138445248Y-109193314D01*
X138332701Y-109353000D01*
X138228751Y-109353000D01*
X138420628Y-109111590D01*
X138236958Y-108860606D01*
X138341884Y-108860606D01*
X138450719Y-109028840D01*
X138470018Y-109059966D01*
X138474362Y-109067309D01*
X138476706Y-109067309D01*
X138617390Y-108860606D01*
X138716846Y-108860606D01*
G37*
G36*
X139546490Y-109353000D02*
G01*
X139137725Y-109353000D01*
X139137725Y-108663648D01*
X139229951Y-108663648D01*
X139229951Y-109276405D01*
X139546490Y-109276405D01*
X139546490Y-109353000D01*
G37*
G36*
X139903259Y-108852530D02*
G01*
X139943544Y-108861130D01*
X139985184Y-108879940D01*
X140017141Y-108907709D01*
X140039414Y-108944435D01*
X140050260Y-108980265D01*
X140054908Y-109021828D01*
X140055101Y-109033115D01*
X140055101Y-109353000D01*
X139965025Y-109353000D01*
X139965025Y-109276234D01*
X139962875Y-109276234D01*
X139938869Y-109306041D01*
X139905931Y-109333021D01*
X139867682Y-109351608D01*
X139824122Y-109361800D01*
X139789756Y-109363942D01*
X139750018Y-109361559D01*
X139710742Y-109353181D01*
X139673846Y-109336799D01*
X139658060Y-109325815D01*
X139633022Y-109299459D01*
X139616190Y-109264874D01*
X139610626Y-109228349D01*
X139610579Y-109224430D01*
X139611089Y-109219985D01*
X139703001Y-109219985D01*
X139712275Y-109254835D01*
X139732310Y-109276405D01*
X139766651Y-109292818D01*
X139807629Y-109298268D01*
X139810663Y-109298289D01*
X139850261Y-109294449D01*
X139888529Y-109281354D01*
X139921256Y-109258966D01*
X139946175Y-109229369D01*
X139960750Y-109194884D01*
X139965025Y-109159290D01*
X139965025Y-109112274D01*
X139829421Y-109128003D01*
X139789948Y-109134391D01*
X139752704Y-109145378D01*
X139734850Y-109153990D01*
X139709999Y-109181897D01*
X139703032Y-109217053D01*
X139703001Y-109219985D01*
X139611089Y-109219985D01*
X139615116Y-109184882D01*
X139628726Y-109150870D01*
X139651409Y-109122392D01*
X139683165Y-109099448D01*
X139723995Y-109082040D01*
X139763191Y-109072098D01*
X139796399Y-109066967D01*
X139965025Y-109046621D01*
X139962191Y-109008794D01*
X139951310Y-108971865D01*
X139928301Y-108940449D01*
X139894185Y-108921599D01*
X139848961Y-108915316D01*
X139805453Y-108918458D01*
X139763833Y-108927883D01*
X139724103Y-108943590D01*
X139686261Y-108965581D01*
X139665485Y-108980969D01*
X139665485Y-108897364D01*
X139703023Y-108878778D01*
X139742972Y-108864757D01*
X139785334Y-108855300D01*
X139830108Y-108850409D01*
X139856776Y-108849664D01*
X139903259Y-108852530D01*
G37*
G36*
X140689351Y-109353000D02*
G01*
X140599079Y-109353000D01*
X140599079Y-109072096D01*
X140597037Y-109035351D01*
X140588739Y-108996309D01*
X140570357Y-108959564D01*
X140542783Y-108933842D01*
X140506019Y-108919144D01*
X140468360Y-108915316D01*
X140428377Y-108919657D01*
X140389641Y-108934460D01*
X140359194Y-108957034D01*
X140356399Y-108959769D01*
X140333112Y-108989839D01*
X140318450Y-109024483D01*
X140312628Y-109059575D01*
X140312240Y-109072096D01*
X140312240Y-109353000D01*
X140222164Y-109353000D01*
X140222164Y-108860606D01*
X140312240Y-108860606D01*
X140312240Y-108942159D01*
X140314390Y-108942159D01*
X140340356Y-108910725D01*
X140370334Y-108885795D01*
X140404323Y-108867368D01*
X140442324Y-108855445D01*
X140484337Y-108850025D01*
X140499233Y-108849664D01*
X140542635Y-108852923D01*
X140580614Y-108862700D01*
X140616860Y-108881491D01*
X140640307Y-108901810D01*
X140661764Y-108930768D01*
X140677090Y-108965496D01*
X140685472Y-109000617D01*
X140689160Y-109040155D01*
X140689351Y-109052263D01*
X140689351Y-109353000D01*
G37*
G36*
X141115899Y-108852441D02*
G01*
X141158072Y-108862700D01*
X141194598Y-108880519D01*
X141225477Y-108905897D01*
X141244076Y-108928652D01*
X141246225Y-108928652D01*
X141246225Y-108860606D01*
X141336302Y-108860606D01*
X141336302Y-109319147D01*
X141333695Y-109368217D01*
X141325874Y-109412461D01*
X141312840Y-109451878D01*
X141294591Y-109486468D01*
X141271129Y-109516232D01*
X141242453Y-109541169D01*
X141208563Y-109561280D01*
X141169459Y-109576564D01*
X141125142Y-109587022D01*
X141075611Y-109592653D01*
X141039693Y-109593725D01*
X140995230Y-109592130D01*
X140953311Y-109587344D01*
X140913934Y-109579367D01*
X140872046Y-109566344D01*
X140857195Y-109560386D01*
X140857195Y-109484304D01*
X140892563Y-109499179D01*
X140933027Y-109512643D01*
X140972630Y-109521918D01*
X141011374Y-109527004D01*
X141038521Y-109528073D01*
X141087202Y-109524923D01*
X141129391Y-109515474D01*
X141165091Y-109499726D01*
X141200587Y-109471183D01*
X141221682Y-109441262D01*
X141236286Y-109405042D01*
X141244399Y-109362523D01*
X141246225Y-109326499D01*
X141246225Y-109270421D01*
X141244076Y-109270421D01*
X141217688Y-109302203D01*
X141186740Y-109327410D01*
X141151230Y-109346041D01*
X141111159Y-109358097D01*
X141066526Y-109363576D01*
X141050635Y-109363942D01*
X141006608Y-109360808D01*
X140966507Y-109351408D01*
X140930334Y-109335741D01*
X140898087Y-109313807D01*
X140881424Y-109298460D01*
X140856528Y-109267668D01*
X140837746Y-109232590D01*
X140826515Y-109199110D01*
X140819776Y-109162481D01*
X140817530Y-109122703D01*
X140817765Y-109117403D01*
X140909951Y-109117403D01*
X140912121Y-109151811D01*
X140919912Y-109187287D01*
X140935450Y-109222293D01*
X140955283Y-109249050D01*
X140986477Y-109275016D01*
X141023396Y-109291365D01*
X141066039Y-109298097D01*
X141075255Y-109298289D01*
X141115753Y-109294556D01*
X141155458Y-109281654D01*
X141189591Y-109259534D01*
X141198744Y-109251101D01*
X141221696Y-109222476D01*
X141237137Y-109189684D01*
X141245066Y-109152728D01*
X141246225Y-109130397D01*
X141246225Y-109057734D01*
X141241798Y-109022719D01*
X141226702Y-108987982D01*
X141203682Y-108959838D01*
X141200894Y-108957204D01*
X141170386Y-108935115D01*
X141131803Y-108920266D01*
X141092159Y-108915357D01*
X141087956Y-108915316D01*
X141048498Y-108918640D01*
X141009510Y-108930323D01*
X140976240Y-108950418D01*
X140957237Y-108968488D01*
X140936549Y-108997735D01*
X140921773Y-109032303D01*
X140913692Y-109066915D01*
X140910136Y-109105601D01*
X140909951Y-109117403D01*
X140817765Y-109117403D01*
X140819214Y-109084797D01*
X140824266Y-109049403D01*
X140834773Y-109010247D01*
X140850131Y-108974710D01*
X140870338Y-108942792D01*
X140886504Y-108923523D01*
X140914155Y-108898422D01*
X140950930Y-108875702D01*
X140992567Y-108860050D01*
X141032125Y-108852260D01*
X141075255Y-108849664D01*
X141115899Y-108852441D01*
G37*
G36*
X142223783Y-108860606D02*
G01*
X142055157Y-109353000D01*
X141961759Y-109353000D01*
X141845695Y-109000459D01*
X141838057Y-108965702D01*
X141836902Y-108954810D01*
X141834753Y-108954810D01*
X141826666Y-108989643D01*
X141823224Y-108999605D01*
X141697390Y-109353000D01*
X141607314Y-109353000D01*
X141436930Y-108860606D01*
X141531501Y-108860606D01*
X141647956Y-109230756D01*
X141654653Y-109265146D01*
X141655576Y-109275037D01*
X141660070Y-109275037D01*
X141666567Y-109240242D01*
X141669840Y-109229901D01*
X141799582Y-108860606D01*
X141882038Y-108860606D01*
X141998493Y-109231782D01*
X142005578Y-109266432D01*
X142006700Y-109276063D01*
X142011194Y-109276063D01*
X142017683Y-109241100D01*
X142020573Y-109231782D01*
X142134683Y-108860606D01*
X142223783Y-108860606D01*
G37*
G36*
X142584456Y-108851834D02*
G01*
X142626258Y-108859850D01*
X142663273Y-108873773D01*
X142695501Y-108893603D01*
X142715590Y-108911384D01*
X142739192Y-108940611D01*
X142756997Y-108974435D01*
X142769005Y-109012858D01*
X142774683Y-109049450D01*
X142776162Y-109082525D01*
X142776162Y-109123216D01*
X142378730Y-109123216D01*
X142381877Y-109158043D01*
X142390877Y-109193378D01*
X142407893Y-109227433D01*
X142429142Y-109252640D01*
X142459274Y-109274707D01*
X142495156Y-109289552D01*
X142536788Y-109297175D01*
X142562401Y-109298289D01*
X142603217Y-109295671D01*
X142642575Y-109287817D01*
X142680474Y-109274727D01*
X142716915Y-109256401D01*
X142737083Y-109243579D01*
X142737083Y-109317096D01*
X142702318Y-109335349D01*
X142662989Y-109349119D01*
X142619098Y-109358406D01*
X142577845Y-109362798D01*
X142540907Y-109363942D01*
X142498004Y-109361591D01*
X142458686Y-109354541D01*
X142417348Y-109340375D01*
X142380889Y-109319811D01*
X142353524Y-109297092D01*
X142326953Y-109265169D01*
X142309372Y-109233665D01*
X142296586Y-109198339D01*
X142288595Y-109159189D01*
X142285598Y-109123645D01*
X142285332Y-109108683D01*
X142287149Y-109073922D01*
X142290078Y-109057563D01*
X142379903Y-109057563D01*
X142683741Y-109057563D01*
X142680521Y-109022039D01*
X142670163Y-108988119D01*
X142650527Y-108957556D01*
X142646030Y-108952759D01*
X142614238Y-108929942D01*
X142574259Y-108917656D01*
X142543057Y-108915316D01*
X142501527Y-108919963D01*
X142464522Y-108933903D01*
X142434808Y-108954639D01*
X142410304Y-108981587D01*
X142392478Y-109013277D01*
X142381331Y-109049708D01*
X142379903Y-109057563D01*
X142290078Y-109057563D01*
X142294129Y-109034941D01*
X142306342Y-108998941D01*
X142323790Y-108965922D01*
X142346473Y-108935885D01*
X142359777Y-108921984D01*
X142388965Y-108897407D01*
X142426230Y-108875160D01*
X142466954Y-108859834D01*
X142511138Y-108851429D01*
X142544815Y-108849664D01*
X142584456Y-108851834D01*
G37*
G36*
X142955339Y-108740243D02*
G01*
X142917361Y-108728869D01*
X142914111Y-108726394D01*
X142897261Y-108695116D01*
X142897111Y-108691175D01*
X142911073Y-108658647D01*
X142914111Y-108655955D01*
X142950859Y-108641889D01*
X142955339Y-108641764D01*
X142992931Y-108652629D01*
X142997349Y-108655955D01*
X143014586Y-108687263D01*
X143014739Y-108691175D01*
X143000456Y-108723136D01*
X142997349Y-108725882D01*
X142961423Y-108740019D01*
X142955339Y-108740243D01*
G37*
G36*
X142999302Y-109353000D02*
G01*
X142909226Y-109353000D01*
X142909226Y-108860606D01*
X142999302Y-108860606D01*
X142999302Y-109353000D01*
G37*
G36*
X143270510Y-109353000D02*
G01*
X143180433Y-109353000D01*
X143180433Y-108619880D01*
X143270510Y-108619880D01*
X143270510Y-109353000D01*
G37*
G36*
X139096888Y-109839648D02*
G01*
X138874334Y-110529000D01*
X138766086Y-110529000D01*
X138603908Y-110025151D01*
X138595555Y-109991555D01*
X138591362Y-109957420D01*
X138591208Y-109955053D01*
X138589058Y-109955053D01*
X138583832Y-109990145D01*
X138574795Y-110024296D01*
X138411640Y-110529000D01*
X138304369Y-110529000D01*
X138073608Y-109839648D01*
X138175213Y-109839648D01*
X138342862Y-110368459D01*
X138351459Y-110402353D01*
X138356148Y-110437702D01*
X138358884Y-110437702D01*
X138365609Y-110403254D01*
X138375883Y-110368459D01*
X138550175Y-109839648D01*
X138638493Y-109839648D01*
X138805555Y-110372220D01*
X138814087Y-110406162D01*
X138818842Y-110436676D01*
X138820991Y-110436676D01*
X138827263Y-110401248D01*
X138835841Y-110370339D01*
X138996846Y-109839648D01*
X139096888Y-109839648D01*
G37*
G36*
X139242457Y-109916243D02*
G01*
X139204480Y-109904869D01*
X139201229Y-109902394D01*
X139184379Y-109871116D01*
X139184229Y-109867175D01*
X139198191Y-109834647D01*
X139201229Y-109831955D01*
X139237977Y-109817889D01*
X139242457Y-109817764D01*
X139280049Y-109828629D01*
X139284467Y-109831955D01*
X139301704Y-109863263D01*
X139301857Y-109867175D01*
X139287574Y-109899136D01*
X139284467Y-109901882D01*
X139248542Y-109916019D01*
X139242457Y-109916243D01*
G37*
G36*
X139286421Y-110529000D02*
G01*
X139196344Y-110529000D01*
X139196344Y-110036606D01*
X139286421Y-110036606D01*
X139286421Y-110529000D01*
G37*
G36*
X139557628Y-110529000D02*
G01*
X139467551Y-110529000D01*
X139467551Y-109795880D01*
X139557628Y-109795880D01*
X139557628Y-110529000D01*
G37*
G36*
X139828835Y-110529000D02*
G01*
X139738758Y-110529000D01*
X139738758Y-109795880D01*
X139828835Y-109795880D01*
X139828835Y-110529000D01*
G37*
G36*
X140728430Y-109916243D02*
G01*
X140420684Y-109916243D01*
X140420684Y-110146027D01*
X140705374Y-110146027D01*
X140705374Y-110222621D01*
X140420684Y-110222621D01*
X140420684Y-110529000D01*
X140328458Y-110529000D01*
X140328458Y-109839648D01*
X140728430Y-109839648D01*
X140728430Y-109916243D01*
G37*
G36*
X141156256Y-110028044D02*
G01*
X141197612Y-110035185D01*
X141235079Y-110047086D01*
X141273877Y-110066987D01*
X141307384Y-110093368D01*
X141331422Y-110120538D01*
X141350486Y-110151399D01*
X141364578Y-110185950D01*
X141373696Y-110224192D01*
X141377495Y-110258879D01*
X141378116Y-110280922D01*
X141376256Y-110316488D01*
X141369112Y-110356158D01*
X141356610Y-110392547D01*
X141338749Y-110425653D01*
X141315531Y-110455478D01*
X141301913Y-110469160D01*
X141271582Y-110493215D01*
X141237597Y-110512293D01*
X141199958Y-110526394D01*
X141158664Y-110535518D01*
X141113716Y-110539665D01*
X141097921Y-110539942D01*
X141052872Y-110537525D01*
X141011367Y-110530276D01*
X140973407Y-110518195D01*
X140938992Y-110501281D01*
X140908121Y-110479534D01*
X140898619Y-110471212D01*
X140873319Y-110443799D01*
X140853254Y-110413237D01*
X140838423Y-110379525D01*
X140828826Y-110342664D01*
X140824464Y-110302653D01*
X140824174Y-110288616D01*
X140824321Y-110285709D01*
X140916595Y-110285709D01*
X140919035Y-110322239D01*
X140927801Y-110359660D01*
X140942941Y-110392465D01*
X140967593Y-110423853D01*
X140999125Y-110448234D01*
X141036128Y-110464635D01*
X141078603Y-110473058D01*
X141104564Y-110474289D01*
X141145707Y-110471190D01*
X141185949Y-110460296D01*
X141219793Y-110441558D01*
X141238800Y-110424708D01*
X141261563Y-110393518D01*
X141275543Y-110360254D01*
X141283637Y-110321775D01*
X141285890Y-110283829D01*
X141283637Y-110245399D01*
X141276877Y-110211044D01*
X141263633Y-110176770D01*
X141241697Y-110144572D01*
X141238800Y-110141411D01*
X141209223Y-110117195D01*
X141173246Y-110100905D01*
X141130871Y-110092539D01*
X141104564Y-110091316D01*
X141063446Y-110094554D01*
X141022589Y-110105937D01*
X140987451Y-110125515D01*
X140967202Y-110143120D01*
X140945062Y-110171394D01*
X140929247Y-110204584D01*
X140919758Y-110242689D01*
X140916644Y-110280063D01*
X140916595Y-110285709D01*
X140824321Y-110285709D01*
X140826063Y-110251257D01*
X140831730Y-110216544D01*
X140843518Y-110178383D01*
X140860746Y-110144032D01*
X140883415Y-110113492D01*
X140901550Y-110095249D01*
X140932549Y-110071601D01*
X140967367Y-110052845D01*
X141006005Y-110038983D01*
X141048462Y-110030013D01*
X141094738Y-110025936D01*
X141111012Y-110025664D01*
X141156256Y-110028044D01*
G37*
G36*
X141929519Y-110036606D02*
G01*
X141740377Y-110285709D01*
X141926197Y-110529000D01*
X141821271Y-110529000D01*
X141710677Y-110369314D01*
X141690420Y-110338736D01*
X141686058Y-110331871D01*
X141683908Y-110331871D01*
X141663371Y-110361473D01*
X141657921Y-110369314D01*
X141545374Y-110529000D01*
X141441424Y-110529000D01*
X141633301Y-110287590D01*
X141449631Y-110036606D01*
X141554557Y-110036606D01*
X141663392Y-110204840D01*
X141682691Y-110235966D01*
X141687035Y-110243309D01*
X141689379Y-110243309D01*
X141830063Y-110036606D01*
X141929519Y-110036606D01*
G37*
G36*
X135681601Y-111016961D02*
G01*
X135728770Y-111020898D01*
X135772685Y-111027459D01*
X135813348Y-111036646D01*
X135850757Y-111048457D01*
X135900772Y-111071094D01*
X135943468Y-111099637D01*
X135978845Y-111134086D01*
X136006902Y-111174440D01*
X136027640Y-111220700D01*
X136037399Y-111254820D01*
X136043905Y-111291566D01*
X136047158Y-111330935D01*
X136047565Y-111351605D01*
X136045757Y-111390546D01*
X136040335Y-111427526D01*
X136031298Y-111462545D01*
X136018646Y-111495604D01*
X136002380Y-111526702D01*
X135976963Y-111562817D01*
X135945898Y-111595868D01*
X135931891Y-111608230D01*
X135901752Y-111630911D01*
X135869170Y-111650567D01*
X135834145Y-111667199D01*
X135796678Y-111680807D01*
X135756769Y-111691391D01*
X135714417Y-111698951D01*
X135669623Y-111703487D01*
X135622387Y-111705000D01*
X135413510Y-111705000D01*
X135413510Y-111628405D01*
X135505736Y-111628405D01*
X135623364Y-111628405D01*
X135670106Y-111626656D01*
X135713489Y-111621409D01*
X135753514Y-111612665D01*
X135790181Y-111600422D01*
X135829749Y-111581114D01*
X135864480Y-111556769D01*
X135893830Y-111527801D01*
X135917108Y-111494626D01*
X135934314Y-111457244D01*
X135944013Y-111422878D01*
X135949495Y-111385590D01*
X135950844Y-111353656D01*
X135948014Y-111306939D01*
X135939524Y-111264817D01*
X135925373Y-111227289D01*
X135905562Y-111194358D01*
X135880090Y-111166021D01*
X135848958Y-111142279D01*
X135812166Y-111123133D01*
X135769714Y-111108581D01*
X135721601Y-111098625D01*
X135667828Y-111093264D01*
X135628835Y-111092243D01*
X135505736Y-111092243D01*
X135505736Y-111628405D01*
X135413510Y-111628405D01*
X135413510Y-111015648D01*
X135631179Y-111015648D01*
X135681601Y-111016961D01*
G37*
G36*
X136436964Y-111204530D02*
G01*
X136477249Y-111213130D01*
X136518889Y-111231940D01*
X136550846Y-111259709D01*
X136573119Y-111296435D01*
X136583965Y-111332265D01*
X136588613Y-111373828D01*
X136588807Y-111385115D01*
X136588807Y-111705000D01*
X136498730Y-111705000D01*
X136498730Y-111628234D01*
X136496581Y-111628234D01*
X136472575Y-111658041D01*
X136439636Y-111685021D01*
X136401387Y-111703608D01*
X136357827Y-111713800D01*
X136323461Y-111715942D01*
X136283723Y-111713559D01*
X136244448Y-111705181D01*
X136207552Y-111688799D01*
X136191765Y-111677815D01*
X136166727Y-111651459D01*
X136149895Y-111616874D01*
X136144331Y-111580349D01*
X136144285Y-111576430D01*
X136144795Y-111571985D01*
X136236706Y-111571985D01*
X136245980Y-111606835D01*
X136266015Y-111628405D01*
X136300356Y-111644818D01*
X136341334Y-111650268D01*
X136344368Y-111650289D01*
X136383966Y-111646449D01*
X136422235Y-111633354D01*
X136454962Y-111610966D01*
X136479880Y-111581369D01*
X136494456Y-111546884D01*
X136498730Y-111511290D01*
X136498730Y-111464274D01*
X136363126Y-111480003D01*
X136323653Y-111486391D01*
X136286410Y-111497378D01*
X136268555Y-111505990D01*
X136243704Y-111533897D01*
X136236737Y-111569053D01*
X136236706Y-111571985D01*
X136144795Y-111571985D01*
X136148821Y-111536882D01*
X136162431Y-111502870D01*
X136185114Y-111474392D01*
X136216871Y-111451448D01*
X136257700Y-111434040D01*
X136296897Y-111424098D01*
X136330105Y-111418967D01*
X136498730Y-111398621D01*
X136495896Y-111360794D01*
X136485015Y-111323865D01*
X136462006Y-111292449D01*
X136427890Y-111273599D01*
X136382666Y-111267316D01*
X136339158Y-111270458D01*
X136297539Y-111279883D01*
X136257808Y-111295590D01*
X136219966Y-111317581D01*
X136199190Y-111332969D01*
X136199190Y-111249364D01*
X136236728Y-111230778D01*
X136276677Y-111216757D01*
X136319039Y-111207300D01*
X136363813Y-111202409D01*
X136390481Y-111201664D01*
X136436964Y-111204530D01*
G37*
G36*
X137198241Y-111212606D02*
G01*
X136973929Y-111705000D01*
X136885415Y-111705000D01*
X136672240Y-111212606D01*
X136771305Y-111212606D01*
X136914138Y-111570446D01*
X136926357Y-111605133D01*
X136933873Y-111639176D01*
X136936022Y-111639176D01*
X136943154Y-111603913D01*
X136953608Y-111572327D01*
X137103084Y-111212606D01*
X137198241Y-111212606D01*
G37*
G36*
X137338144Y-111092243D02*
G01*
X137300166Y-111080869D01*
X137296916Y-111078394D01*
X137280066Y-111047116D01*
X137279916Y-111043175D01*
X137293878Y-111010647D01*
X137296916Y-111007955D01*
X137333664Y-110993889D01*
X137338144Y-110993764D01*
X137375736Y-111004629D01*
X137380153Y-111007955D01*
X137397391Y-111039263D01*
X137397544Y-111043175D01*
X137383261Y-111075136D01*
X137380153Y-111077882D01*
X137344228Y-111092019D01*
X137338144Y-111092243D01*
G37*
G36*
X137382107Y-111705000D02*
G01*
X137292031Y-111705000D01*
X137292031Y-111212606D01*
X137382107Y-111212606D01*
X137382107Y-111705000D01*
G37*
G36*
X138043517Y-111705000D02*
G01*
X137953440Y-111705000D01*
X137953440Y-111621566D01*
X137951291Y-111621566D01*
X137925380Y-111653639D01*
X137894688Y-111679076D01*
X137859214Y-111697878D01*
X137818960Y-111710043D01*
X137773925Y-111715573D01*
X137757851Y-111715942D01*
X137713471Y-111712784D01*
X137673167Y-111703310D01*
X137636940Y-111687520D01*
X137604790Y-111665415D01*
X137588248Y-111649947D01*
X137563504Y-111618792D01*
X137544838Y-111583072D01*
X137533675Y-111548821D01*
X137526978Y-111511216D01*
X137524745Y-111470258D01*
X137524920Y-111466496D01*
X137617167Y-111466496D01*
X137619336Y-111502037D01*
X137627127Y-111538467D01*
X137642666Y-111574111D01*
X137662498Y-111601050D01*
X137693864Y-111627016D01*
X137731298Y-111643365D01*
X137770177Y-111649856D01*
X137784229Y-111650289D01*
X137824303Y-111646529D01*
X137863572Y-111633533D01*
X137897309Y-111611254D01*
X137906350Y-111602759D01*
X137929114Y-111573953D01*
X137944427Y-111541198D01*
X137952291Y-111504494D01*
X137953440Y-111482397D01*
X137953440Y-111409734D01*
X137949032Y-111374228D01*
X137934002Y-111339298D01*
X137911081Y-111311295D01*
X137908304Y-111308691D01*
X137877831Y-111286872D01*
X137838801Y-111272205D01*
X137798310Y-111267357D01*
X137793999Y-111267316D01*
X137755054Y-111270629D01*
X137716467Y-111282275D01*
X137683414Y-111302305D01*
X137664452Y-111320317D01*
X137641594Y-111353239D01*
X137627557Y-111387884D01*
X137620122Y-111422354D01*
X137617213Y-111460702D01*
X137617167Y-111466496D01*
X137524920Y-111466496D01*
X137526463Y-111433398D01*
X137531615Y-111398901D01*
X137542331Y-111360623D01*
X137557993Y-111325747D01*
X137578601Y-111294273D01*
X137595087Y-111275181D01*
X137623107Y-111250197D01*
X137659947Y-111227581D01*
X137701256Y-111212002D01*
X137740222Y-111204248D01*
X137782470Y-111201664D01*
X137823769Y-111204441D01*
X137866324Y-111214700D01*
X137902821Y-111232519D01*
X137933259Y-111257897D01*
X137951291Y-111280652D01*
X137953440Y-111280652D01*
X137953440Y-110971880D01*
X138043517Y-110971880D01*
X138043517Y-111705000D01*
G37*
G36*
X139150621Y-111705000D02*
G01*
X139048430Y-111705000D01*
X138964801Y-111518984D01*
X138630677Y-111518984D01*
X138552128Y-111705000D01*
X138449351Y-111705000D01*
X138564503Y-111442390D01*
X138661549Y-111442390D01*
X138934515Y-111442390D01*
X138811026Y-111149005D01*
X138801183Y-111114381D01*
X138798911Y-111103185D01*
X138796567Y-111103185D01*
X138788305Y-111137331D01*
X138784061Y-111149005D01*
X138661549Y-111442390D01*
X138564503Y-111442390D01*
X138751626Y-111015648D01*
X138847174Y-111015648D01*
X139150621Y-111705000D01*
G37*
G36*
X139340740Y-111298946D02*
G01*
X139342889Y-111298946D01*
X139370032Y-111265885D01*
X139401489Y-111239665D01*
X139437260Y-111220284D01*
X139477345Y-111207744D01*
X139521743Y-111202044D01*
X139537502Y-111201664D01*
X139582607Y-111204822D01*
X139623206Y-111214296D01*
X139659298Y-111230085D01*
X139690883Y-111252191D01*
X139706909Y-111267658D01*
X139730815Y-111298674D01*
X139748850Y-111333977D01*
X139759634Y-111367649D01*
X139766105Y-111404470D01*
X139768262Y-111444441D01*
X139766583Y-111481765D01*
X139761546Y-111516693D01*
X139751068Y-111555443D01*
X139735754Y-111590744D01*
X139715604Y-111622595D01*
X139699484Y-111641912D01*
X139671986Y-111667070D01*
X139635407Y-111689843D01*
X139593986Y-111705531D01*
X139554627Y-111713339D01*
X139511710Y-111715942D01*
X139471781Y-111713062D01*
X139430024Y-111702426D01*
X139393466Y-111683951D01*
X139362106Y-111657640D01*
X139342889Y-111634047D01*
X139340740Y-111634047D01*
X139340740Y-111705000D01*
X139250663Y-111705000D01*
X139250663Y-111435209D01*
X139340740Y-111435209D01*
X139340740Y-111504110D01*
X139345167Y-111540454D01*
X139358447Y-111573192D01*
X139380582Y-111602324D01*
X139386071Y-111607718D01*
X139416788Y-111630167D01*
X139456087Y-111645259D01*
X139496822Y-111650248D01*
X139501158Y-111650289D01*
X139544492Y-111645948D01*
X139582168Y-111632924D01*
X139614188Y-111611218D01*
X139629532Y-111595408D01*
X139649878Y-111565296D01*
X139664410Y-111529841D01*
X139672358Y-111494435D01*
X139675855Y-111454939D01*
X139676036Y-111442903D01*
X139673961Y-111408626D01*
X139666505Y-111373620D01*
X139651636Y-111339551D01*
X139632659Y-111313991D01*
X139602533Y-111289377D01*
X139566377Y-111273880D01*
X139524192Y-111267499D01*
X139515031Y-111267316D01*
X139473180Y-111271103D01*
X139436213Y-111282463D01*
X139400866Y-111303968D01*
X139388416Y-111315188D01*
X139365369Y-111344036D01*
X139349865Y-111376725D01*
X139341904Y-111413255D01*
X139340740Y-111435209D01*
X139250663Y-111435209D01*
X139250663Y-110971880D01*
X139340740Y-110971880D01*
X139340740Y-111298946D01*
G37*
G36*
X140202233Y-111289200D02*
G01*
X140164513Y-111279797D01*
X140134040Y-111278258D01*
X140093447Y-111284942D01*
X140058130Y-111304994D01*
X140037516Y-111325788D01*
X140017114Y-111358760D01*
X140005213Y-111394202D01*
X139999772Y-111430292D01*
X139998828Y-111455041D01*
X139998828Y-111705000D01*
X139908751Y-111705000D01*
X139908751Y-111212606D01*
X139998828Y-111212606D01*
X139998828Y-111315701D01*
X140000977Y-111315701D01*
X140016654Y-111281483D01*
X140039181Y-111250560D01*
X140059791Y-111231755D01*
X140093534Y-111212272D01*
X140133263Y-111202398D01*
X140148304Y-111201664D01*
X140187398Y-111204535D01*
X140202233Y-111208332D01*
X140202233Y-111289200D01*
G37*
G36*
X140548841Y-111204530D02*
G01*
X140589126Y-111213130D01*
X140630766Y-111231940D01*
X140662723Y-111259709D01*
X140684996Y-111296435D01*
X140695842Y-111332265D01*
X140700490Y-111373828D01*
X140700684Y-111385115D01*
X140700684Y-111705000D01*
X140610607Y-111705000D01*
X140610607Y-111628234D01*
X140608458Y-111628234D01*
X140584452Y-111658041D01*
X140551513Y-111685021D01*
X140513264Y-111703608D01*
X140469704Y-111713800D01*
X140435338Y-111715942D01*
X140395600Y-111713559D01*
X140356325Y-111705181D01*
X140319429Y-111688799D01*
X140303643Y-111677815D01*
X140278604Y-111651459D01*
X140261772Y-111616874D01*
X140256208Y-111580349D01*
X140256162Y-111576430D01*
X140256672Y-111571985D01*
X140348583Y-111571985D01*
X140357857Y-111606835D01*
X140377892Y-111628405D01*
X140412233Y-111644818D01*
X140453211Y-111650268D01*
X140456246Y-111650289D01*
X140495843Y-111646449D01*
X140534112Y-111633354D01*
X140566839Y-111610966D01*
X140591758Y-111581369D01*
X140606333Y-111546884D01*
X140610607Y-111511290D01*
X140610607Y-111464274D01*
X140475003Y-111480003D01*
X140435530Y-111486391D01*
X140398287Y-111497378D01*
X140380433Y-111505990D01*
X140355581Y-111533897D01*
X140348614Y-111569053D01*
X140348583Y-111571985D01*
X140256672Y-111571985D01*
X140260698Y-111536882D01*
X140274308Y-111502870D01*
X140296991Y-111474392D01*
X140328748Y-111451448D01*
X140369577Y-111434040D01*
X140408774Y-111424098D01*
X140441982Y-111418967D01*
X140610607Y-111398621D01*
X140607773Y-111360794D01*
X140596892Y-111323865D01*
X140573884Y-111292449D01*
X140539767Y-111273599D01*
X140494543Y-111267316D01*
X140451035Y-111270458D01*
X140409416Y-111279883D01*
X140369685Y-111295590D01*
X140331844Y-111317581D01*
X140311068Y-111332969D01*
X140311068Y-111249364D01*
X140348605Y-111230778D01*
X140388554Y-111216757D01*
X140430916Y-111207300D01*
X140475690Y-111202409D01*
X140502359Y-111201664D01*
X140548841Y-111204530D01*
G37*
G36*
X141334934Y-111705000D02*
G01*
X141244662Y-111705000D01*
X141244662Y-111421189D01*
X141242619Y-111385125D01*
X141234321Y-111346807D01*
X141215939Y-111310743D01*
X141188366Y-111285499D01*
X141151601Y-111271073D01*
X141113943Y-111267316D01*
X141074707Y-111271657D01*
X141036265Y-111286460D01*
X141005605Y-111309034D01*
X141002763Y-111311769D01*
X140979064Y-111342022D01*
X140964142Y-111377218D01*
X140958218Y-111413120D01*
X140957823Y-111425976D01*
X140957823Y-111705000D01*
X140867746Y-111705000D01*
X140867746Y-110971880D01*
X140957823Y-110971880D01*
X140957823Y-111294159D01*
X140959972Y-111294159D01*
X140986236Y-111262725D01*
X141016374Y-111237795D01*
X141050386Y-111219368D01*
X141088273Y-111207445D01*
X141130034Y-111202025D01*
X141144815Y-111201664D01*
X141189374Y-111204792D01*
X141227992Y-111214177D01*
X141267909Y-111234706D01*
X141298544Y-111265010D01*
X141316367Y-111296292D01*
X141328250Y-111333831D01*
X141334191Y-111377626D01*
X141334934Y-111401870D01*
X141334934Y-111705000D01*
G37*
G36*
X141752470Y-111204530D02*
G01*
X141792755Y-111213130D01*
X141834395Y-111231940D01*
X141866352Y-111259709D01*
X141888625Y-111296435D01*
X141899471Y-111332265D01*
X141904119Y-111373828D01*
X141904313Y-111385115D01*
X141904313Y-111705000D01*
X141814236Y-111705000D01*
X141814236Y-111628234D01*
X141812086Y-111628234D01*
X141788080Y-111658041D01*
X141755142Y-111685021D01*
X141716893Y-111703608D01*
X141673333Y-111713800D01*
X141638967Y-111715942D01*
X141599229Y-111713559D01*
X141559953Y-111705181D01*
X141523058Y-111688799D01*
X141507271Y-111677815D01*
X141482233Y-111651459D01*
X141465401Y-111616874D01*
X141459837Y-111580349D01*
X141459791Y-111576430D01*
X141460301Y-111571985D01*
X141552212Y-111571985D01*
X141561486Y-111606835D01*
X141581521Y-111628405D01*
X141615862Y-111644818D01*
X141656840Y-111650268D01*
X141659874Y-111650289D01*
X141699472Y-111646449D01*
X141737740Y-111633354D01*
X141770468Y-111610966D01*
X141795386Y-111581369D01*
X141809962Y-111546884D01*
X141814236Y-111511290D01*
X141814236Y-111464274D01*
X141678632Y-111480003D01*
X141639159Y-111486391D01*
X141601916Y-111497378D01*
X141584061Y-111505990D01*
X141559210Y-111533897D01*
X141552243Y-111569053D01*
X141552212Y-111571985D01*
X141460301Y-111571985D01*
X141464327Y-111536882D01*
X141477937Y-111502870D01*
X141500620Y-111474392D01*
X141532377Y-111451448D01*
X141573206Y-111434040D01*
X141612403Y-111424098D01*
X141645611Y-111418967D01*
X141814236Y-111398621D01*
X141811402Y-111360794D01*
X141800521Y-111323865D01*
X141777512Y-111292449D01*
X141743396Y-111273599D01*
X141698172Y-111267316D01*
X141654664Y-111270458D01*
X141613045Y-111279883D01*
X141573314Y-111295590D01*
X141535472Y-111317581D01*
X141514696Y-111332969D01*
X141514696Y-111249364D01*
X141552234Y-111230778D01*
X141592183Y-111216757D01*
X141634545Y-111207300D01*
X141679319Y-111202409D01*
X141705987Y-111201664D01*
X141752470Y-111204530D01*
G37*
G36*
X142870342Y-111705000D02*
G01*
X142780265Y-111705000D01*
X142780265Y-111422215D01*
X142778458Y-111384174D01*
X142772104Y-111348122D01*
X142758125Y-111313756D01*
X142751347Y-111303904D01*
X142721495Y-111280215D01*
X142682377Y-111269067D01*
X142654431Y-111267316D01*
X142613499Y-111273808D01*
X142577458Y-111293282D01*
X142556148Y-111313478D01*
X142534922Y-111344116D01*
X142521557Y-111378327D01*
X142516054Y-111416110D01*
X142515897Y-111424096D01*
X142515897Y-111705000D01*
X142425820Y-111705000D01*
X142425820Y-111412641D01*
X142422695Y-111370775D01*
X142413322Y-111336005D01*
X142393824Y-111303647D01*
X142359704Y-111278812D01*
X142320709Y-111268594D01*
X142297837Y-111267316D01*
X142256227Y-111273447D01*
X142220497Y-111291840D01*
X142199944Y-111310914D01*
X142179645Y-111340626D01*
X142166864Y-111375482D01*
X142161790Y-111411248D01*
X142161451Y-111424096D01*
X142161451Y-111705000D01*
X142071375Y-111705000D01*
X142071375Y-111212606D01*
X142161451Y-111212606D01*
X142161451Y-111290397D01*
X142163601Y-111290397D01*
X142188019Y-111260242D01*
X142216284Y-111236325D01*
X142254122Y-111216308D01*
X142297196Y-111204783D01*
X142338283Y-111201664D01*
X142379545Y-111205607D01*
X142416575Y-111217436D01*
X142438911Y-111229703D01*
X142469261Y-111255224D01*
X142490776Y-111286501D01*
X142497725Y-111302878D01*
X142518823Y-111273720D01*
X142548096Y-111245253D01*
X142581682Y-111223903D01*
X142619583Y-111209670D01*
X142661797Y-111202553D01*
X142684522Y-111201664D01*
X142728073Y-111204792D01*
X142765818Y-111214177D01*
X142804833Y-111234706D01*
X142834775Y-111265010D01*
X142852195Y-111296292D01*
X142863809Y-111333831D01*
X142869616Y-111377626D01*
X142870342Y-111401870D01*
X142870342Y-111705000D01*
G37*
G36*
X143483685Y-111212606D02*
G01*
X143224787Y-111784842D01*
X143206618Y-111822549D01*
X143186697Y-111855229D01*
X143159332Y-111889008D01*
X143129228Y-111914931D01*
X143089489Y-111935670D01*
X143045807Y-111945097D01*
X143030370Y-111945725D01*
X142990909Y-111943321D01*
X142971556Y-111939570D01*
X142971556Y-111869131D01*
X143009279Y-111879004D01*
X143024899Y-111880073D01*
X143064096Y-111872676D01*
X143096691Y-111850487D01*
X143120382Y-111817869D01*
X143127090Y-111804333D01*
X143172031Y-111705000D01*
X142952212Y-111212606D01*
X143052254Y-111212606D01*
X143204466Y-111592501D01*
X143214919Y-111626401D01*
X143215994Y-111630115D01*
X143219316Y-111630115D01*
X143229254Y-111596595D01*
X143230258Y-111593527D01*
X143390286Y-111212606D01*
X143483685Y-111212606D01*
G37*
G36*
X143828339Y-111204530D02*
G01*
X143868623Y-111213130D01*
X143910264Y-111231940D01*
X143942221Y-111259709D01*
X143964494Y-111296435D01*
X143975339Y-111332265D01*
X143979988Y-111373828D01*
X143980181Y-111385115D01*
X143980181Y-111705000D01*
X143890105Y-111705000D01*
X143890105Y-111628234D01*
X143887955Y-111628234D01*
X143863949Y-111658041D01*
X143831011Y-111685021D01*
X143792762Y-111703608D01*
X143749202Y-111713800D01*
X143714836Y-111715942D01*
X143675098Y-111713559D01*
X143635822Y-111705181D01*
X143598926Y-111688799D01*
X143583140Y-111677815D01*
X143558102Y-111651459D01*
X143541270Y-111616874D01*
X143535706Y-111580349D01*
X143535659Y-111576430D01*
X143536169Y-111571985D01*
X143628081Y-111571985D01*
X143637354Y-111606835D01*
X143657390Y-111628405D01*
X143691731Y-111644818D01*
X143732709Y-111650268D01*
X143735743Y-111650289D01*
X143775341Y-111646449D01*
X143813609Y-111633354D01*
X143846336Y-111610966D01*
X143871255Y-111581369D01*
X143885830Y-111546884D01*
X143890105Y-111511290D01*
X143890105Y-111464274D01*
X143754501Y-111480003D01*
X143715028Y-111486391D01*
X143677784Y-111497378D01*
X143659930Y-111505990D01*
X143635079Y-111533897D01*
X143628112Y-111569053D01*
X143628081Y-111571985D01*
X143536169Y-111571985D01*
X143540196Y-111536882D01*
X143553806Y-111502870D01*
X143576489Y-111474392D01*
X143608245Y-111451448D01*
X143649075Y-111434040D01*
X143688271Y-111424098D01*
X143721479Y-111418967D01*
X143890105Y-111398621D01*
X143887271Y-111360794D01*
X143876390Y-111323865D01*
X143853381Y-111292449D01*
X143819265Y-111273599D01*
X143774040Y-111267316D01*
X143730533Y-111270458D01*
X143688913Y-111279883D01*
X143649183Y-111295590D01*
X143611341Y-111317581D01*
X143590565Y-111332969D01*
X143590565Y-111249364D01*
X143628102Y-111230778D01*
X143668052Y-111216757D01*
X143710414Y-111207300D01*
X143755188Y-111202409D01*
X143781856Y-111201664D01*
X143828339Y-111204530D01*
G37*
G36*
X144614431Y-111705000D02*
G01*
X144524159Y-111705000D01*
X144524159Y-111424096D01*
X144522117Y-111387351D01*
X144513819Y-111348309D01*
X144495437Y-111311564D01*
X144467863Y-111285842D01*
X144431099Y-111271144D01*
X144393440Y-111267316D01*
X144353457Y-111271657D01*
X144314721Y-111286460D01*
X144284274Y-111309034D01*
X144281479Y-111311769D01*
X144258192Y-111341839D01*
X144243530Y-111376483D01*
X144237708Y-111411575D01*
X144237320Y-111424096D01*
X144237320Y-111705000D01*
X144147243Y-111705000D01*
X144147243Y-111212606D01*
X144237320Y-111212606D01*
X144237320Y-111294159D01*
X144239470Y-111294159D01*
X144265436Y-111262725D01*
X144295413Y-111237795D01*
X144329403Y-111219368D01*
X144367404Y-111207445D01*
X144409417Y-111202025D01*
X144424313Y-111201664D01*
X144467715Y-111204923D01*
X144505694Y-111214700D01*
X144541940Y-111233491D01*
X144565387Y-111253810D01*
X144586844Y-111282768D01*
X144602170Y-111317496D01*
X144610552Y-111352617D01*
X144614240Y-111392155D01*
X144614431Y-111404263D01*
X144614431Y-111705000D01*
G37*
G36*
X137196092Y-112849883D02*
G01*
X137155824Y-112866271D01*
X137118033Y-112877114D01*
X137077220Y-112885000D01*
X137033385Y-112889929D01*
X136986527Y-112891901D01*
X136978423Y-112891942D01*
X136937412Y-112890464D01*
X136898495Y-112886032D01*
X136852794Y-112876338D01*
X136810365Y-112862027D01*
X136771209Y-112843099D01*
X136735325Y-112819554D01*
X136708974Y-112797395D01*
X136679872Y-112766409D01*
X136655703Y-112732543D01*
X136636466Y-112695797D01*
X136622161Y-112656171D01*
X136614269Y-112622397D01*
X136609534Y-112586779D01*
X136607956Y-112549318D01*
X136609732Y-112509020D01*
X136615063Y-112470704D01*
X136623947Y-112434370D01*
X136636385Y-112400018D01*
X136652377Y-112367649D01*
X136671923Y-112337261D01*
X136695022Y-112308856D01*
X136721675Y-112282434D01*
X136751103Y-112258591D01*
X136782430Y-112237928D01*
X136824260Y-112216569D01*
X136869057Y-112200178D01*
X136907030Y-112190641D01*
X136946903Y-112184283D01*
X136988674Y-112181104D01*
X137010272Y-112180706D01*
X137050978Y-112181909D01*
X137095047Y-112186350D01*
X137135432Y-112194063D01*
X137177075Y-112206886D01*
X137196092Y-112214900D01*
X137196092Y-112301069D01*
X137158236Y-112284015D01*
X137118696Y-112271150D01*
X137077474Y-112262473D01*
X137034568Y-112257985D01*
X137009295Y-112257301D01*
X136968113Y-112259209D01*
X136929439Y-112264931D01*
X136886344Y-112276834D01*
X136846861Y-112294231D01*
X136810992Y-112317122D01*
X136789086Y-112335434D01*
X136760400Y-112366580D01*
X136737649Y-112401415D01*
X136723223Y-112433264D01*
X136712919Y-112467676D01*
X136706737Y-112504651D01*
X136704676Y-112544189D01*
X136706598Y-112581697D01*
X136712366Y-112616751D01*
X136724362Y-112655576D01*
X136741895Y-112690866D01*
X136764964Y-112722623D01*
X136783420Y-112741830D01*
X136814753Y-112766814D01*
X136849548Y-112786629D01*
X136887806Y-112801275D01*
X136929526Y-112810752D01*
X136974708Y-112815060D01*
X136990538Y-112815347D01*
X137033961Y-112813808D01*
X137075131Y-112809192D01*
X137114048Y-112801498D01*
X137156604Y-112788633D01*
X137196092Y-112771579D01*
X137196092Y-112849883D01*
G37*
G36*
X137808067Y-112881000D02*
G01*
X137717795Y-112881000D01*
X137717795Y-112597189D01*
X137715753Y-112561125D01*
X137707455Y-112522807D01*
X137689073Y-112486743D01*
X137661499Y-112461499D01*
X137624735Y-112447073D01*
X137587076Y-112443316D01*
X137547841Y-112447657D01*
X137509399Y-112462460D01*
X137478738Y-112485034D01*
X137475897Y-112487769D01*
X137452198Y-112518022D01*
X137437276Y-112553218D01*
X137431351Y-112589120D01*
X137430956Y-112601976D01*
X137430956Y-112881000D01*
X137340880Y-112881000D01*
X137340880Y-112147880D01*
X137430956Y-112147880D01*
X137430956Y-112470159D01*
X137433106Y-112470159D01*
X137459369Y-112438725D01*
X137489507Y-112413795D01*
X137523520Y-112395368D01*
X137561406Y-112383445D01*
X137603167Y-112378025D01*
X137617949Y-112377664D01*
X137662508Y-112380792D01*
X137701126Y-112390177D01*
X137741043Y-112410706D01*
X137771677Y-112441010D01*
X137789501Y-112472292D01*
X137801383Y-112509831D01*
X137807325Y-112553626D01*
X137808067Y-112577870D01*
X137808067Y-112881000D01*
G37*
G36*
X138268221Y-112465200D02*
G01*
X138230501Y-112455797D01*
X138200028Y-112454258D01*
X138159435Y-112460942D01*
X138124117Y-112480994D01*
X138103503Y-112501788D01*
X138083101Y-112534760D01*
X138071200Y-112570202D01*
X138065760Y-112606292D01*
X138064815Y-112631041D01*
X138064815Y-112881000D01*
X137974739Y-112881000D01*
X137974739Y-112388606D01*
X138064815Y-112388606D01*
X138064815Y-112491701D01*
X138066965Y-112491701D01*
X138082642Y-112457483D01*
X138105169Y-112426560D01*
X138125778Y-112407755D01*
X138159522Y-112388272D01*
X138199251Y-112378398D01*
X138214292Y-112377664D01*
X138253385Y-112380535D01*
X138268221Y-112384332D01*
X138268221Y-112465200D01*
G37*
G36*
X138410077Y-112268243D02*
G01*
X138372100Y-112256869D01*
X138368849Y-112254394D01*
X138351999Y-112223116D01*
X138351850Y-112219175D01*
X138365811Y-112186647D01*
X138368849Y-112183955D01*
X138405598Y-112169889D01*
X138410077Y-112169764D01*
X138447669Y-112180629D01*
X138452087Y-112183955D01*
X138469324Y-112215263D01*
X138469477Y-112219175D01*
X138455195Y-112251136D01*
X138452087Y-112253882D01*
X138416162Y-112268019D01*
X138410077Y-112268243D01*
G37*
G36*
X138454041Y-112881000D02*
G01*
X138363964Y-112881000D01*
X138363964Y-112388606D01*
X138454041Y-112388606D01*
X138454041Y-112881000D01*
G37*
G36*
X138601173Y-112863732D02*
G01*
X138601173Y-112782521D01*
X138638933Y-112801669D01*
X138678549Y-112815347D01*
X138720021Y-112823554D01*
X138763350Y-112826289D01*
X138803657Y-112823843D01*
X138844427Y-112812970D01*
X138874541Y-112787148D01*
X138881954Y-112756704D01*
X138871794Y-112723365D01*
X138844243Y-112699258D01*
X138809365Y-112682410D01*
X138803601Y-112680281D01*
X138766635Y-112667169D01*
X138753385Y-112662671D01*
X138716116Y-112648817D01*
X138687537Y-112636512D01*
X138654478Y-112617761D01*
X138640251Y-112606764D01*
X138616361Y-112578138D01*
X138611724Y-112569150D01*
X138602907Y-112535123D01*
X138602150Y-112519740D01*
X138607278Y-112485265D01*
X138620321Y-112458533D01*
X138644536Y-112431286D01*
X138668584Y-112413909D01*
X138703134Y-112397345D01*
X138737558Y-112386896D01*
X138777027Y-112379972D01*
X138817669Y-112377664D01*
X138857555Y-112379354D01*
X138899007Y-112385198D01*
X138937445Y-112395216D01*
X138948388Y-112399035D01*
X138948388Y-112476143D01*
X138911969Y-112460274D01*
X138872613Y-112449599D01*
X138830320Y-112444118D01*
X138805555Y-112443316D01*
X138766498Y-112446968D01*
X138760028Y-112448445D01*
X138725053Y-112462636D01*
X138702582Y-112484691D01*
X138694571Y-112512901D01*
X138702582Y-112545043D01*
X138725834Y-112568124D01*
X138760444Y-112585385D01*
X138763154Y-112586418D01*
X138799571Y-112599337D01*
X138813175Y-112604028D01*
X138850678Y-112617530D01*
X138880196Y-112629845D01*
X138913886Y-112647636D01*
X138930803Y-112659593D01*
X138955810Y-112685925D01*
X138962847Y-112697720D01*
X138973074Y-112731219D01*
X138974180Y-112749011D01*
X138969589Y-112783034D01*
X138955813Y-112812270D01*
X138931194Y-112839600D01*
X138906574Y-112856893D01*
X138871278Y-112873179D01*
X138835646Y-112883222D01*
X138794613Y-112889762D01*
X138754370Y-112891933D01*
X138751626Y-112891942D01*
X138709690Y-112890178D01*
X138670635Y-112884889D01*
X138630144Y-112874724D01*
X138601173Y-112863732D01*
G37*
G36*
X140017977Y-112829196D02*
G01*
X139980212Y-112847272D01*
X139941170Y-112862284D01*
X139900849Y-112874233D01*
X139859249Y-112883118D01*
X139816371Y-112888939D01*
X139772215Y-112891696D01*
X139754194Y-112891942D01*
X139713000Y-112890456D01*
X139673826Y-112886000D01*
X139627701Y-112876253D01*
X139584735Y-112861864D01*
X139544926Y-112842834D01*
X139508275Y-112819162D01*
X139481228Y-112796882D01*
X139451226Y-112765678D01*
X139426308Y-112731476D01*
X139406476Y-112694278D01*
X139391729Y-112654082D01*
X139383592Y-112619768D01*
X139378711Y-112583536D01*
X139377083Y-112545385D01*
X139378891Y-112506359D01*
X139384313Y-112469122D01*
X139393350Y-112433675D01*
X139406002Y-112400018D01*
X139422268Y-112368151D01*
X139442150Y-112338074D01*
X139465646Y-112309786D01*
X139492757Y-112283288D01*
X139522643Y-112259246D01*
X139554465Y-112238409D01*
X139588222Y-112220778D01*
X139623915Y-112206352D01*
X139661544Y-112195132D01*
X139701108Y-112187118D01*
X139742608Y-112182309D01*
X139786044Y-112180706D01*
X139825215Y-112181637D01*
X139869563Y-112185212D01*
X139911013Y-112191467D01*
X139949564Y-112200403D01*
X139990875Y-112214216D01*
X140001954Y-112218833D01*
X140001954Y-112312011D01*
X139964880Y-112293418D01*
X139925320Y-112278672D01*
X139883273Y-112267773D01*
X139838739Y-112260720D01*
X139799728Y-112257782D01*
X139775492Y-112257301D01*
X139735262Y-112259221D01*
X139690071Y-112266594D01*
X139648246Y-112279497D01*
X139609787Y-112297930D01*
X139574694Y-112321892D01*
X139558409Y-112335947D01*
X139529656Y-112367010D01*
X139506853Y-112401343D01*
X139489998Y-112438946D01*
X139480496Y-112472779D01*
X139475125Y-112508883D01*
X139473803Y-112539401D01*
X139475721Y-112578289D01*
X139481474Y-112614488D01*
X139491063Y-112647999D01*
X139507631Y-112684664D01*
X139529723Y-112717458D01*
X139552352Y-112741830D01*
X139583786Y-112766814D01*
X139619177Y-112786629D01*
X139658524Y-112801275D01*
X139701829Y-112810752D01*
X139740938Y-112814701D01*
X139765723Y-112815347D01*
X139804893Y-112813801D01*
X139846775Y-112808247D01*
X139885579Y-112798654D01*
X139925555Y-112783034D01*
X139925555Y-112596505D01*
X139753022Y-112596505D01*
X139753022Y-112519911D01*
X140017977Y-112519911D01*
X140017977Y-112829196D01*
G37*
G36*
X140445670Y-112379834D02*
G01*
X140487472Y-112387850D01*
X140524487Y-112401773D01*
X140556715Y-112421603D01*
X140576804Y-112439384D01*
X140600406Y-112468611D01*
X140618211Y-112502435D01*
X140630219Y-112540858D01*
X140635898Y-112577450D01*
X140637376Y-112610525D01*
X140637376Y-112651216D01*
X140239944Y-112651216D01*
X140243091Y-112686043D01*
X140252092Y-112721378D01*
X140269107Y-112755433D01*
X140290356Y-112780640D01*
X140320488Y-112802707D01*
X140356370Y-112817552D01*
X140398002Y-112825175D01*
X140423615Y-112826289D01*
X140464431Y-112823671D01*
X140503789Y-112815817D01*
X140541689Y-112802727D01*
X140578129Y-112784401D01*
X140598298Y-112771579D01*
X140598298Y-112845096D01*
X140563532Y-112863349D01*
X140524203Y-112877119D01*
X140480312Y-112886406D01*
X140439060Y-112890798D01*
X140402122Y-112891942D01*
X140359218Y-112889591D01*
X140319900Y-112882541D01*
X140278562Y-112868375D01*
X140242104Y-112847811D01*
X140214739Y-112825092D01*
X140188167Y-112793169D01*
X140170587Y-112761665D01*
X140157800Y-112726339D01*
X140149809Y-112687189D01*
X140146812Y-112651645D01*
X140146546Y-112636683D01*
X140148363Y-112601922D01*
X140151292Y-112585563D01*
X140241117Y-112585563D01*
X140544955Y-112585563D01*
X140541735Y-112550039D01*
X140531377Y-112516119D01*
X140511742Y-112485556D01*
X140507244Y-112480759D01*
X140475453Y-112457942D01*
X140435473Y-112445656D01*
X140404271Y-112443316D01*
X140362741Y-112447963D01*
X140325736Y-112461903D01*
X140296023Y-112482639D01*
X140271518Y-112509587D01*
X140253692Y-112541277D01*
X140242545Y-112577708D01*
X140241117Y-112585563D01*
X140151292Y-112585563D01*
X140155343Y-112562941D01*
X140167556Y-112526941D01*
X140185004Y-112493922D01*
X140207687Y-112463885D01*
X140220991Y-112449984D01*
X140250179Y-112425407D01*
X140287444Y-112403160D01*
X140328168Y-112387834D01*
X140372352Y-112379429D01*
X140406030Y-112377664D01*
X140445670Y-112379834D01*
G37*
G36*
X141064030Y-112380044D02*
G01*
X141105385Y-112387185D01*
X141142853Y-112399086D01*
X141181651Y-112418987D01*
X141215157Y-112445368D01*
X141239195Y-112472538D01*
X141258260Y-112503399D01*
X141272351Y-112537950D01*
X141281469Y-112576192D01*
X141285268Y-112610879D01*
X141285890Y-112632922D01*
X141284030Y-112668488D01*
X141276885Y-112708158D01*
X141264383Y-112744547D01*
X141246523Y-112777653D01*
X141223305Y-112807478D01*
X141209686Y-112821160D01*
X141179356Y-112845215D01*
X141145371Y-112864293D01*
X141107732Y-112878394D01*
X141066438Y-112887518D01*
X141021489Y-112891665D01*
X141005695Y-112891942D01*
X140960646Y-112889525D01*
X140919141Y-112882276D01*
X140881181Y-112870195D01*
X140846766Y-112853281D01*
X140815895Y-112831534D01*
X140806392Y-112823212D01*
X140781093Y-112795799D01*
X140761027Y-112765237D01*
X140746196Y-112731525D01*
X140736600Y-112694664D01*
X140732238Y-112654653D01*
X140731947Y-112640616D01*
X140732094Y-112637709D01*
X140824369Y-112637709D01*
X140826809Y-112674239D01*
X140835574Y-112711660D01*
X140850714Y-112744465D01*
X140875367Y-112775853D01*
X140906899Y-112800234D01*
X140943902Y-112816635D01*
X140986377Y-112825058D01*
X141012338Y-112826289D01*
X141053481Y-112823190D01*
X141093723Y-112812296D01*
X141127566Y-112793558D01*
X141146574Y-112776708D01*
X141169337Y-112745518D01*
X141183317Y-112712254D01*
X141191411Y-112673775D01*
X141193664Y-112635829D01*
X141191411Y-112597399D01*
X141184651Y-112563044D01*
X141171407Y-112528770D01*
X141149471Y-112496572D01*
X141146574Y-112493411D01*
X141116996Y-112469195D01*
X141081020Y-112452905D01*
X141038645Y-112444539D01*
X141012338Y-112443316D01*
X140971220Y-112446554D01*
X140930363Y-112457937D01*
X140895224Y-112477515D01*
X140874976Y-112495120D01*
X140852835Y-112523394D01*
X140837020Y-112556584D01*
X140827532Y-112594689D01*
X140824418Y-112632063D01*
X140824369Y-112637709D01*
X140732094Y-112637709D01*
X140733836Y-112603257D01*
X140739503Y-112568544D01*
X140751291Y-112530383D01*
X140768520Y-112496032D01*
X140791188Y-112465492D01*
X140809323Y-112447249D01*
X140840322Y-112423601D01*
X140875141Y-112404845D01*
X140913778Y-112390983D01*
X140956235Y-112382013D01*
X141002512Y-112377936D01*
X141018786Y-112377664D01*
X141064030Y-112380044D01*
G37*
G36*
X141719665Y-112465200D02*
G01*
X141681945Y-112455797D01*
X141651473Y-112454258D01*
X141610880Y-112460942D01*
X141575562Y-112480994D01*
X141554948Y-112501788D01*
X141534546Y-112534760D01*
X141522645Y-112570202D01*
X141517204Y-112606292D01*
X141516260Y-112631041D01*
X141516260Y-112881000D01*
X141426183Y-112881000D01*
X141426183Y-112388606D01*
X141516260Y-112388606D01*
X141516260Y-112491701D01*
X141518409Y-112491701D01*
X141534086Y-112457483D01*
X141556613Y-112426560D01*
X141577223Y-112407755D01*
X141610966Y-112388272D01*
X141650695Y-112378398D01*
X141665736Y-112377664D01*
X141704830Y-112380535D01*
X141719665Y-112384332D01*
X141719665Y-112465200D01*
G37*
G36*
X142075284Y-112380441D02*
G01*
X142117458Y-112390700D01*
X142153984Y-112408519D01*
X142184863Y-112433897D01*
X142203462Y-112456652D01*
X142205611Y-112456652D01*
X142205611Y-112388606D01*
X142295688Y-112388606D01*
X142295688Y-112847147D01*
X142293081Y-112896217D01*
X142285260Y-112940461D01*
X142272225Y-112979878D01*
X142253977Y-113014468D01*
X142230515Y-113044232D01*
X142201839Y-113069169D01*
X142167949Y-113089280D01*
X142128845Y-113104564D01*
X142084528Y-113115022D01*
X142034997Y-113120653D01*
X141999079Y-113121725D01*
X141954616Y-113120130D01*
X141912697Y-113115344D01*
X141873320Y-113107367D01*
X141831432Y-113094344D01*
X141816581Y-113088386D01*
X141816581Y-113012304D01*
X141851949Y-113027179D01*
X141892413Y-113040643D01*
X141932016Y-113049918D01*
X141970760Y-113055004D01*
X141997907Y-113056073D01*
X142046587Y-113052923D01*
X142088777Y-113043474D01*
X142124476Y-113027726D01*
X142159973Y-112999183D01*
X142181068Y-112969262D01*
X142195672Y-112933042D01*
X142203785Y-112890523D01*
X142205611Y-112854499D01*
X142205611Y-112798421D01*
X142203462Y-112798421D01*
X142177074Y-112830203D01*
X142146126Y-112855410D01*
X142110616Y-112874041D01*
X142070545Y-112886097D01*
X142025912Y-112891576D01*
X142010021Y-112891942D01*
X141965994Y-112888808D01*
X141925893Y-112879408D01*
X141889720Y-112863741D01*
X141857473Y-112841807D01*
X141840810Y-112826460D01*
X141815914Y-112795668D01*
X141797132Y-112760590D01*
X141785901Y-112727110D01*
X141779162Y-112690481D01*
X141776916Y-112650703D01*
X141777151Y-112645403D01*
X141869337Y-112645403D01*
X141871506Y-112679811D01*
X141879298Y-112715287D01*
X141894836Y-112750293D01*
X141914669Y-112777050D01*
X141945863Y-112803016D01*
X141982782Y-112819365D01*
X142025425Y-112826097D01*
X142034641Y-112826289D01*
X142075139Y-112822556D01*
X142114844Y-112809654D01*
X142148977Y-112787534D01*
X142158130Y-112779101D01*
X142181082Y-112750476D01*
X142196523Y-112717684D01*
X142204452Y-112680728D01*
X142205611Y-112658397D01*
X142205611Y-112585734D01*
X142201184Y-112550719D01*
X142186088Y-112515982D01*
X142163068Y-112487838D01*
X142160279Y-112485204D01*
X142129772Y-112463115D01*
X142091189Y-112448266D01*
X142051545Y-112443357D01*
X142047341Y-112443316D01*
X142007884Y-112446640D01*
X141968895Y-112458323D01*
X141935626Y-112478418D01*
X141916623Y-112496488D01*
X141895935Y-112525735D01*
X141881159Y-112560303D01*
X141873078Y-112594915D01*
X141869522Y-112633601D01*
X141869337Y-112645403D01*
X141777151Y-112645403D01*
X141778600Y-112612797D01*
X141783652Y-112577403D01*
X141794159Y-112538247D01*
X141809517Y-112502710D01*
X141829724Y-112470792D01*
X141845890Y-112451523D01*
X141873541Y-112426422D01*
X141910316Y-112403702D01*
X141951952Y-112388050D01*
X141991511Y-112380260D01*
X142034641Y-112377664D01*
X142075284Y-112380441D01*
G37*
G36*
X142734910Y-112379834D02*
G01*
X142776712Y-112387850D01*
X142813727Y-112401773D01*
X142845955Y-112421603D01*
X142866044Y-112439384D01*
X142889645Y-112468611D01*
X142907450Y-112502435D01*
X142919458Y-112540858D01*
X142925137Y-112577450D01*
X142926616Y-112610525D01*
X142926616Y-112651216D01*
X142529184Y-112651216D01*
X142532331Y-112686043D01*
X142541331Y-112721378D01*
X142558346Y-112755433D01*
X142579596Y-112780640D01*
X142609728Y-112802707D01*
X142645610Y-112817552D01*
X142687241Y-112825175D01*
X142712854Y-112826289D01*
X142753671Y-112823671D01*
X142793029Y-112815817D01*
X142830928Y-112802727D01*
X142867369Y-112784401D01*
X142887537Y-112771579D01*
X142887537Y-112845096D01*
X142852771Y-112863349D01*
X142813443Y-112877119D01*
X142769552Y-112886406D01*
X142728299Y-112890798D01*
X142691361Y-112891942D01*
X142648457Y-112889591D01*
X142609140Y-112882541D01*
X142567801Y-112868375D01*
X142531343Y-112847811D01*
X142503978Y-112825092D01*
X142477407Y-112793169D01*
X142459826Y-112761665D01*
X142447040Y-112726339D01*
X142439048Y-112687189D01*
X142436052Y-112651645D01*
X142435785Y-112636683D01*
X142437603Y-112601922D01*
X142440532Y-112585563D01*
X142530356Y-112585563D01*
X142834194Y-112585563D01*
X142830974Y-112550039D01*
X142820617Y-112516119D01*
X142800981Y-112485556D01*
X142796483Y-112480759D01*
X142764692Y-112457942D01*
X142724712Y-112445656D01*
X142693510Y-112443316D01*
X142651980Y-112447963D01*
X142614976Y-112461903D01*
X142585262Y-112482639D01*
X142560758Y-112509587D01*
X142542932Y-112541277D01*
X142531784Y-112577708D01*
X142530356Y-112585563D01*
X142440532Y-112585563D01*
X142444582Y-112562941D01*
X142456796Y-112526941D01*
X142474244Y-112493922D01*
X142496926Y-112463885D01*
X142510231Y-112449984D01*
X142539418Y-112425407D01*
X142576683Y-112403160D01*
X142617407Y-112387834D01*
X142661591Y-112379429D01*
X142695269Y-112377664D01*
X142734910Y-112379834D01*
G37*
G36*
X143025681Y-112863732D02*
G01*
X143025681Y-112782521D01*
X143063441Y-112801669D01*
X143103057Y-112815347D01*
X143144529Y-112823554D01*
X143187858Y-112826289D01*
X143228165Y-112823843D01*
X143268935Y-112812970D01*
X143299049Y-112787148D01*
X143306462Y-112756704D01*
X143296302Y-112723365D01*
X143268751Y-112699258D01*
X143233873Y-112682410D01*
X143228109Y-112680281D01*
X143191143Y-112667169D01*
X143177893Y-112662671D01*
X143140624Y-112648817D01*
X143112045Y-112636512D01*
X143078986Y-112617761D01*
X143064759Y-112606764D01*
X143040869Y-112578138D01*
X143036232Y-112569150D01*
X143027415Y-112535123D01*
X143026658Y-112519740D01*
X143031786Y-112485265D01*
X143044829Y-112458533D01*
X143069044Y-112431286D01*
X143093092Y-112413909D01*
X143127642Y-112397345D01*
X143162066Y-112386896D01*
X143201535Y-112379972D01*
X143242178Y-112377664D01*
X143282063Y-112379354D01*
X143323515Y-112385198D01*
X143361953Y-112395216D01*
X143372896Y-112399035D01*
X143372896Y-112476143D01*
X143336477Y-112460274D01*
X143297121Y-112449599D01*
X143254828Y-112444118D01*
X143230063Y-112443316D01*
X143191006Y-112446968D01*
X143184536Y-112448445D01*
X143149561Y-112462636D01*
X143127090Y-112484691D01*
X143119079Y-112512901D01*
X143127090Y-112545043D01*
X143150342Y-112568124D01*
X143184952Y-112585385D01*
X143187662Y-112586418D01*
X143224079Y-112599337D01*
X143237683Y-112604028D01*
X143275186Y-112617530D01*
X143304704Y-112629845D01*
X143338394Y-112647636D01*
X143355311Y-112659593D01*
X143380318Y-112685925D01*
X143387355Y-112697720D01*
X143397582Y-112731219D01*
X143398688Y-112749011D01*
X143394097Y-112783034D01*
X143380321Y-112812270D01*
X143355702Y-112839600D01*
X143331082Y-112856893D01*
X143295786Y-112873179D01*
X143260154Y-112883222D01*
X143219121Y-112889762D01*
X143178878Y-112891933D01*
X143176134Y-112891942D01*
X143134198Y-112890178D01*
X143095143Y-112884889D01*
X143054652Y-112874724D01*
X143025681Y-112863732D01*
G37*
D11*
G36*
X143864340Y-71065582D02*
G01*
X143169225Y-71065582D01*
X143169225Y-71534528D01*
X143808164Y-71534528D01*
X143808164Y-71909685D01*
X143169225Y-71909685D01*
X143169225Y-72660000D01*
X142725191Y-72660000D01*
X142725191Y-70690425D01*
X143864340Y-70690425D01*
X143864340Y-71065582D01*
G37*
G36*
X144789532Y-70690425D02*
G01*
X144789532Y-71034319D01*
X144624912Y-71034319D01*
X144624912Y-72316106D01*
X144789532Y-72316106D01*
X144789532Y-72660000D01*
X144016259Y-72660000D01*
X144016259Y-72316106D01*
X144180879Y-72316106D01*
X144180879Y-71034319D01*
X144016259Y-71034319D01*
X144016259Y-70690425D01*
X144789532Y-70690425D01*
G37*
G36*
X146451360Y-71065582D02*
G01*
X145889602Y-71065582D01*
X145889602Y-72660000D01*
X145444591Y-72660000D01*
X145444591Y-71065582D01*
X144885275Y-71065582D01*
X144885275Y-70690425D01*
X146451360Y-70690425D01*
X146451360Y-71065582D01*
G37*
G36*
X147674445Y-70663467D02*
G01*
X147772378Y-70676381D01*
X147887690Y-70704631D01*
X147995107Y-70746334D01*
X148094629Y-70801489D01*
X148186255Y-70870096D01*
X148253872Y-70934668D01*
X148328879Y-71025045D01*
X148391173Y-71123985D01*
X148440754Y-71231487D01*
X148477622Y-71347553D01*
X148497963Y-71446571D01*
X148510167Y-71551068D01*
X148514235Y-71661046D01*
X148510015Y-71774016D01*
X148497352Y-71881384D01*
X148476248Y-71983149D01*
X148446702Y-72079312D01*
X148408715Y-72169873D01*
X148349360Y-72275195D01*
X148276814Y-72371764D01*
X148244103Y-72407941D01*
X148155820Y-72489562D01*
X148059499Y-72557349D01*
X147955140Y-72611302D01*
X147842743Y-72651420D01*
X147747038Y-72673555D01*
X147646189Y-72686836D01*
X147540195Y-72691263D01*
X147436766Y-72686973D01*
X147338237Y-72674105D01*
X147221966Y-72645955D01*
X147113352Y-72604400D01*
X147012394Y-72549440D01*
X146919093Y-72481076D01*
X146849965Y-72416734D01*
X146773269Y-72326736D01*
X146709573Y-72228628D01*
X146658876Y-72122411D01*
X146621178Y-72008085D01*
X146600379Y-71910785D01*
X146587900Y-71808294D01*
X146583740Y-71700614D01*
X146584575Y-71678143D01*
X147050732Y-71678143D01*
X147055558Y-71784292D01*
X147070035Y-71881819D01*
X147099123Y-71984705D01*
X147141348Y-72075856D01*
X147187997Y-72144647D01*
X147261972Y-72219660D01*
X147346632Y-72273241D01*
X147441979Y-72305389D01*
X147548011Y-72316106D01*
X147656851Y-72305695D01*
X147753785Y-72274462D01*
X147838812Y-72222408D01*
X147911933Y-72149532D01*
X147970917Y-72057941D01*
X148008704Y-71964575D01*
X148033588Y-71858868D01*
X148044648Y-71758438D01*
X148046755Y-71686448D01*
X148042169Y-71575502D01*
X148028413Y-71474208D01*
X148000774Y-71368230D01*
X147960653Y-71275389D01*
X147916329Y-71206266D01*
X147845102Y-71131039D01*
X147761845Y-71077306D01*
X147666560Y-71045066D01*
X147559246Y-71034319D01*
X147461506Y-71042781D01*
X147361137Y-71073174D01*
X147272859Y-71125671D01*
X147196670Y-71200272D01*
X147187997Y-71211151D01*
X147134512Y-71293771D01*
X147094164Y-71387330D01*
X147066952Y-71491829D01*
X147054083Y-71590106D01*
X147050732Y-71678143D01*
X146584575Y-71678143D01*
X146587968Y-71586896D01*
X146600654Y-71478750D01*
X146621796Y-71376175D01*
X146651395Y-71279173D01*
X146689451Y-71187742D01*
X146748914Y-71081289D01*
X146821590Y-70983541D01*
X146854361Y-70946880D01*
X146943223Y-70863993D01*
X147040672Y-70795154D01*
X147146708Y-70740364D01*
X147261331Y-70699622D01*
X147359211Y-70677144D01*
X147462587Y-70663658D01*
X147571458Y-70659162D01*
X147674445Y-70663467D01*
G37*
G36*
X150002651Y-72660000D02*
G01*
X148829309Y-72660000D01*
X148829309Y-70690425D01*
X149273342Y-70690425D01*
X149273342Y-72284842D01*
X150002651Y-72284842D01*
X150002651Y-72660000D01*
G37*
G36*
X151865736Y-71805150D02*
G01*
X151862505Y-71912452D01*
X151852814Y-72012832D01*
X151826162Y-72150422D01*
X151784973Y-72272436D01*
X151729247Y-72378873D01*
X151658984Y-72469734D01*
X151574184Y-72545019D01*
X151474846Y-72604728D01*
X151360971Y-72648861D01*
X151232559Y-72677417D01*
X151089610Y-72690397D01*
X151038729Y-72691263D01*
X150895299Y-72683659D01*
X150765977Y-72660849D01*
X150650763Y-72622831D01*
X150549656Y-72569607D01*
X150462657Y-72501175D01*
X150389767Y-72417537D01*
X150330984Y-72318692D01*
X150286309Y-72204639D01*
X150255742Y-72075380D01*
X150239283Y-71930914D01*
X150236147Y-71826154D01*
X150236147Y-70690425D01*
X150681646Y-70690425D01*
X150681646Y-71836901D01*
X150687485Y-71949215D01*
X150705002Y-72046553D01*
X150743320Y-72147167D01*
X150813387Y-72237018D01*
X150909730Y-72293175D01*
X151010086Y-72314234D01*
X151055338Y-72316106D01*
X151161023Y-72304800D01*
X151264200Y-72261386D01*
X151341583Y-72185411D01*
X151386365Y-72097226D01*
X151413234Y-71986429D01*
X151421832Y-71881512D01*
X151422191Y-71853021D01*
X151422191Y-70690425D01*
X151865736Y-70690425D01*
X151865736Y-71805150D01*
G37*
G36*
X153892951Y-72660000D02*
G01*
X153366364Y-72660000D01*
X153027355Y-72018618D01*
X152996228Y-71925930D01*
X152987299Y-71886727D01*
X152981926Y-71886727D01*
X152952708Y-71980974D01*
X152936496Y-72023991D01*
X152596022Y-72660000D01*
X152066992Y-72660000D01*
X152694696Y-71675212D01*
X152120725Y-70690425D01*
X152660502Y-70690425D01*
X152942358Y-71281004D01*
X152978985Y-71373255D01*
X153001465Y-71447090D01*
X153006838Y-71447090D01*
X153038857Y-71353094D01*
X153068876Y-71275631D01*
X153381995Y-70690425D01*
X153876343Y-70690425D01*
X153285764Y-71666908D01*
X153892951Y-72660000D01*
G37*
D12*
X162708646Y-128921371D02*
X162708646Y-128321371D01*
X162708646Y-128321371D02*
X162908646Y-128749942D01*
X162908646Y-128749942D02*
X163108646Y-128321371D01*
X163108646Y-128321371D02*
X163108646Y-128921371D01*
X163394360Y-128921371D02*
X163394360Y-128521371D01*
X163394360Y-128321371D02*
X163365788Y-128349942D01*
X163365788Y-128349942D02*
X163394360Y-128378514D01*
X163394360Y-128378514D02*
X163422931Y-128349942D01*
X163422931Y-128349942D02*
X163394360Y-128321371D01*
X163394360Y-128321371D02*
X163394360Y-128378514D01*
X163937217Y-128892800D02*
X163880074Y-128921371D01*
X163880074Y-128921371D02*
X163765788Y-128921371D01*
X163765788Y-128921371D02*
X163708645Y-128892800D01*
X163708645Y-128892800D02*
X163680074Y-128864228D01*
X163680074Y-128864228D02*
X163651502Y-128807085D01*
X163651502Y-128807085D02*
X163651502Y-128635657D01*
X163651502Y-128635657D02*
X163680074Y-128578514D01*
X163680074Y-128578514D02*
X163708645Y-128549942D01*
X163708645Y-128549942D02*
X163765788Y-128521371D01*
X163765788Y-128521371D02*
X163880074Y-128521371D01*
X163880074Y-128521371D02*
X163937217Y-128549942D01*
X164194360Y-128921371D02*
X164194360Y-128521371D01*
X164194360Y-128635657D02*
X164222931Y-128578514D01*
X164222931Y-128578514D02*
X164251503Y-128549942D01*
X164251503Y-128549942D02*
X164308645Y-128521371D01*
X164308645Y-128521371D02*
X164365788Y-128521371D01*
X164651503Y-128921371D02*
X164594360Y-128892800D01*
X164594360Y-128892800D02*
X164565789Y-128864228D01*
X164565789Y-128864228D02*
X164537217Y-128807085D01*
X164537217Y-128807085D02*
X164537217Y-128635657D01*
X164537217Y-128635657D02*
X164565789Y-128578514D01*
X164565789Y-128578514D02*
X164594360Y-128549942D01*
X164594360Y-128549942D02*
X164651503Y-128521371D01*
X164651503Y-128521371D02*
X164737217Y-128521371D01*
X164737217Y-128521371D02*
X164794360Y-128549942D01*
X164794360Y-128549942D02*
X164822932Y-128578514D01*
X164822932Y-128578514D02*
X164851503Y-128635657D01*
X164851503Y-128635657D02*
X164851503Y-128807085D01*
X164851503Y-128807085D02*
X164822932Y-128864228D01*
X164822932Y-128864228D02*
X164794360Y-128892800D01*
X164794360Y-128892800D02*
X164737217Y-128921371D01*
X164737217Y-128921371D02*
X164651503Y-128921371D01*
X165565789Y-128321371D02*
X165565789Y-128807085D01*
X165565789Y-128807085D02*
X165594360Y-128864228D01*
X165594360Y-128864228D02*
X165622932Y-128892800D01*
X165622932Y-128892800D02*
X165680074Y-128921371D01*
X165680074Y-128921371D02*
X165794360Y-128921371D01*
X165794360Y-128921371D02*
X165851503Y-128892800D01*
X165851503Y-128892800D02*
X165880074Y-128864228D01*
X165880074Y-128864228D02*
X165908646Y-128807085D01*
X165908646Y-128807085D02*
X165908646Y-128321371D01*
X166165788Y-128892800D02*
X166251503Y-128921371D01*
X166251503Y-128921371D02*
X166394360Y-128921371D01*
X166394360Y-128921371D02*
X166451503Y-128892800D01*
X166451503Y-128892800D02*
X166480074Y-128864228D01*
X166480074Y-128864228D02*
X166508645Y-128807085D01*
X166508645Y-128807085D02*
X166508645Y-128749942D01*
X166508645Y-128749942D02*
X166480074Y-128692800D01*
X166480074Y-128692800D02*
X166451503Y-128664228D01*
X166451503Y-128664228D02*
X166394360Y-128635657D01*
X166394360Y-128635657D02*
X166280074Y-128607085D01*
X166280074Y-128607085D02*
X166222931Y-128578514D01*
X166222931Y-128578514D02*
X166194360Y-128549942D01*
X166194360Y-128549942D02*
X166165788Y-128492800D01*
X166165788Y-128492800D02*
X166165788Y-128435657D01*
X166165788Y-128435657D02*
X166194360Y-128378514D01*
X166194360Y-128378514D02*
X166222931Y-128349942D01*
X166222931Y-128349942D02*
X166280074Y-128321371D01*
X166280074Y-128321371D02*
X166422931Y-128321371D01*
X166422931Y-128321371D02*
X166508645Y-128349942D01*
X166965789Y-128607085D02*
X167051503Y-128635657D01*
X167051503Y-128635657D02*
X167080074Y-128664228D01*
X167080074Y-128664228D02*
X167108646Y-128721371D01*
X167108646Y-128721371D02*
X167108646Y-128807085D01*
X167108646Y-128807085D02*
X167080074Y-128864228D01*
X167080074Y-128864228D02*
X167051503Y-128892800D01*
X167051503Y-128892800D02*
X166994360Y-128921371D01*
X166994360Y-128921371D02*
X166765789Y-128921371D01*
X166765789Y-128921371D02*
X166765789Y-128321371D01*
X166765789Y-128321371D02*
X166965789Y-128321371D01*
X166965789Y-128321371D02*
X167022932Y-128349942D01*
X167022932Y-128349942D02*
X167051503Y-128378514D01*
X167051503Y-128378514D02*
X167080074Y-128435657D01*
X167080074Y-128435657D02*
X167080074Y-128492800D01*
X167080074Y-128492800D02*
X167051503Y-128549942D01*
X167051503Y-128549942D02*
X167022932Y-128578514D01*
X167022932Y-128578514D02*
X166965789Y-128607085D01*
X166965789Y-128607085D02*
X166765789Y-128607085D01*
X167794360Y-128892800D02*
X167880075Y-128921371D01*
X167880075Y-128921371D02*
X168022932Y-128921371D01*
X168022932Y-128921371D02*
X168080075Y-128892800D01*
X168080075Y-128892800D02*
X168108646Y-128864228D01*
X168108646Y-128864228D02*
X168137217Y-128807085D01*
X168137217Y-128807085D02*
X168137217Y-128749942D01*
X168137217Y-128749942D02*
X168108646Y-128692800D01*
X168108646Y-128692800D02*
X168080075Y-128664228D01*
X168080075Y-128664228D02*
X168022932Y-128635657D01*
X168022932Y-128635657D02*
X167908646Y-128607085D01*
X167908646Y-128607085D02*
X167851503Y-128578514D01*
X167851503Y-128578514D02*
X167822932Y-128549942D01*
X167822932Y-128549942D02*
X167794360Y-128492800D01*
X167794360Y-128492800D02*
X167794360Y-128435657D01*
X167794360Y-128435657D02*
X167822932Y-128378514D01*
X167822932Y-128378514D02*
X167851503Y-128349942D01*
X167851503Y-128349942D02*
X167908646Y-128321371D01*
X167908646Y-128321371D02*
X168051503Y-128321371D01*
X168051503Y-128321371D02*
X168137217Y-128349942D01*
X168394361Y-128921371D02*
X168394361Y-128521371D01*
X168394361Y-128321371D02*
X168365789Y-128349942D01*
X168365789Y-128349942D02*
X168394361Y-128378514D01*
X168394361Y-128378514D02*
X168422932Y-128349942D01*
X168422932Y-128349942D02*
X168394361Y-128321371D01*
X168394361Y-128321371D02*
X168394361Y-128378514D01*
X168937218Y-128921371D02*
X168937218Y-128321371D01*
X168937218Y-128892800D02*
X168880075Y-128921371D01*
X168880075Y-128921371D02*
X168765789Y-128921371D01*
X168765789Y-128921371D02*
X168708646Y-128892800D01*
X168708646Y-128892800D02*
X168680075Y-128864228D01*
X168680075Y-128864228D02*
X168651503Y-128807085D01*
X168651503Y-128807085D02*
X168651503Y-128635657D01*
X168651503Y-128635657D02*
X168680075Y-128578514D01*
X168680075Y-128578514D02*
X168708646Y-128549942D01*
X168708646Y-128549942D02*
X168765789Y-128521371D01*
X168765789Y-128521371D02*
X168880075Y-128521371D01*
X168880075Y-128521371D02*
X168937218Y-128549942D01*
X169451503Y-128892800D02*
X169394360Y-128921371D01*
X169394360Y-128921371D02*
X169280075Y-128921371D01*
X169280075Y-128921371D02*
X169222932Y-128892800D01*
X169222932Y-128892800D02*
X169194360Y-128835657D01*
X169194360Y-128835657D02*
X169194360Y-128607085D01*
X169194360Y-128607085D02*
X169222932Y-128549942D01*
X169222932Y-128549942D02*
X169280075Y-128521371D01*
X169280075Y-128521371D02*
X169394360Y-128521371D01*
X169394360Y-128521371D02*
X169451503Y-128549942D01*
X169451503Y-128549942D02*
X169480075Y-128607085D01*
X169480075Y-128607085D02*
X169480075Y-128664228D01*
X169480075Y-128664228D02*
X169194360Y-128721371D01*
D13*
G36*
X158716084Y-121669637D02*
G01*
X158768730Y-121678052D01*
X158814849Y-121703507D01*
X158846057Y-121741374D01*
X158866364Y-121786246D01*
X158878836Y-121833885D01*
X158886056Y-121888820D01*
X158888066Y-121942875D01*
X158888012Y-121951556D01*
X158884586Y-122008652D01*
X158875830Y-122059320D01*
X158859298Y-122109356D01*
X158832379Y-122155610D01*
X158817816Y-122172669D01*
X158775264Y-122205365D01*
X158729463Y-122222637D01*
X158676552Y-122228394D01*
X158643041Y-122227158D01*
X158593754Y-122219602D01*
X158553942Y-122206840D01*
X158506803Y-122186140D01*
X158506803Y-121755785D01*
X158518420Y-121746534D01*
X158560281Y-121717522D01*
X158604012Y-121693747D01*
X158610438Y-121690819D01*
X158659543Y-121674880D01*
X158710258Y-121669567D01*
X158716084Y-121669637D01*
G37*
G36*
X145920291Y-121662369D02*
G01*
X145970566Y-121671643D01*
X146017907Y-121694999D01*
X146056280Y-121732093D01*
X146062876Y-121741177D01*
X146087290Y-121789256D01*
X146101757Y-121841886D01*
X146108831Y-121895576D01*
X146110746Y-121947271D01*
X146110532Y-121964851D01*
X146107327Y-122014224D01*
X146098725Y-122065445D01*
X146082483Y-122115568D01*
X146056036Y-122161228D01*
X146045385Y-122173930D01*
X146004207Y-122207246D01*
X145954299Y-122226680D01*
X145901919Y-122232302D01*
X145877365Y-122231173D01*
X145827420Y-122220371D01*
X145780537Y-122194954D01*
X145746092Y-122160006D01*
X145739496Y-122150675D01*
X145715082Y-122102141D01*
X145700615Y-122050014D01*
X145693540Y-121997466D01*
X145691625Y-121947271D01*
X145691838Y-121929457D01*
X145695030Y-121879509D01*
X145703593Y-121827856D01*
X145719763Y-121777553D01*
X145746092Y-121732093D01*
X145756758Y-121719522D01*
X145798203Y-121686549D01*
X145848711Y-121667315D01*
X145901919Y-121661751D01*
X145920291Y-121662369D01*
G37*
G36*
X150109490Y-122135582D02*
G01*
X150098526Y-122144745D01*
X150058648Y-122173990D01*
X150016434Y-122198841D01*
X150003916Y-122204852D01*
X149957220Y-122219578D01*
X149906036Y-122224487D01*
X149892964Y-122224205D01*
X149843265Y-122216488D01*
X149797592Y-122192491D01*
X149795308Y-122190461D01*
X149767573Y-122146758D01*
X149760467Y-122097725D01*
X149766872Y-122053887D01*
X149793928Y-122011263D01*
X149832091Y-121984274D01*
X149879169Y-121965345D01*
X149893411Y-121961589D01*
X149944008Y-121951969D01*
X149992986Y-121946050D01*
X150005963Y-121944793D01*
X150057283Y-121939944D01*
X150109490Y-121935303D01*
X150109490Y-122135582D01*
G37*
G36*
X153088330Y-121662369D02*
G01*
X153138605Y-121671643D01*
X153185946Y-121694999D01*
X153224319Y-121732093D01*
X153230915Y-121741177D01*
X153255329Y-121789256D01*
X153269796Y-121841886D01*
X153276870Y-121895576D01*
X153278785Y-121947271D01*
X153278572Y-121964851D01*
X153275366Y-122014224D01*
X153266764Y-122065445D01*
X153250522Y-122115568D01*
X153224075Y-122161228D01*
X153213424Y-122173930D01*
X153172246Y-122207246D01*
X153122338Y-122226680D01*
X153069958Y-122232302D01*
X153045404Y-122231173D01*
X152995459Y-122220371D01*
X152948576Y-122194954D01*
X152914131Y-122160006D01*
X152907535Y-122150675D01*
X152883121Y-122102141D01*
X152868654Y-122050014D01*
X152861579Y-121997466D01*
X152859665Y-121947271D01*
X152859877Y-121929457D01*
X152863069Y-121879509D01*
X152871632Y-121827856D01*
X152887802Y-121777553D01*
X152914131Y-121732093D01*
X152924797Y-121719522D01*
X152966242Y-121686549D01*
X153016750Y-121667315D01*
X153069958Y-121661751D01*
X153088330Y-121662369D01*
G37*
G36*
X153972435Y-122135582D02*
G01*
X153961471Y-122144745D01*
X153921593Y-122173990D01*
X153879378Y-122198841D01*
X153866861Y-122204852D01*
X153820165Y-122219578D01*
X153768981Y-122224487D01*
X153755909Y-122224205D01*
X153706210Y-122216488D01*
X153660537Y-122192491D01*
X153658253Y-122190461D01*
X153630518Y-122146758D01*
X153623412Y-122097725D01*
X153629817Y-122053887D01*
X153656873Y-122011263D01*
X153695036Y-121984274D01*
X153742114Y-121965345D01*
X153756356Y-121961589D01*
X153806953Y-121951969D01*
X153855931Y-121946050D01*
X153868908Y-121944793D01*
X153920228Y-121939944D01*
X153972435Y-121935303D01*
X153972435Y-122135582D01*
G37*
G36*
X155104707Y-121670735D02*
G01*
X155154815Y-121677871D01*
X155195603Y-121689534D01*
X155241277Y-121707913D01*
X155241277Y-122137536D01*
X155229824Y-122147291D01*
X155188237Y-122177344D01*
X155144312Y-122201039D01*
X155141092Y-122202482D01*
X155092960Y-122218625D01*
X155041974Y-122224487D01*
X155036057Y-122224418D01*
X154982495Y-122216232D01*
X154935368Y-122191470D01*
X154903244Y-122154633D01*
X154900585Y-122150191D01*
X154880447Y-122104764D01*
X154868288Y-122056144D01*
X154862082Y-122007241D01*
X154860013Y-121952400D01*
X154860068Y-121943869D01*
X154863524Y-121887706D01*
X154872357Y-121837761D01*
X154889034Y-121788294D01*
X154916189Y-121742351D01*
X154930970Y-121725292D01*
X154973832Y-121692596D01*
X155019626Y-121675324D01*
X155072260Y-121669567D01*
X155104707Y-121670735D01*
G37*
G36*
X159491325Y-121417496D02*
G01*
X159535799Y-121438269D01*
X159568039Y-121470997D01*
X159592463Y-121515938D01*
X159602049Y-121542713D01*
X159614242Y-121593125D01*
X159621284Y-121642456D01*
X159623676Y-121666849D01*
X159627244Y-121719571D01*
X159629069Y-121771508D01*
X159629588Y-121821242D01*
X159629458Y-121846704D01*
X159628217Y-121900869D01*
X159625663Y-121950706D01*
X159621284Y-122001004D01*
X159617840Y-122028570D01*
X159608429Y-122078190D01*
X159593196Y-122126789D01*
X159570366Y-122170156D01*
X159535799Y-122205680D01*
X159491082Y-122226453D01*
X159442009Y-122232302D01*
X159391480Y-122226184D01*
X159346022Y-122204459D01*
X159313599Y-122170448D01*
X159289602Y-122124591D01*
X159280721Y-122099515D01*
X159268135Y-122049162D01*
X159261025Y-121998318D01*
X159259126Y-121975354D01*
X159256292Y-121924455D01*
X159254843Y-121872975D01*
X159254431Y-121822707D01*
X159254549Y-121798477D01*
X159255680Y-121746277D01*
X159258009Y-121697284D01*
X159262002Y-121646608D01*
X159265305Y-121618243D01*
X159274693Y-121567181D01*
X159290334Y-121517159D01*
X159313637Y-121473793D01*
X159348220Y-121438269D01*
X159393058Y-121417496D01*
X159442009Y-121411646D01*
X159491325Y-121417496D01*
G37*
G36*
X152261603Y-121837625D02*
G01*
X152311652Y-121838679D01*
X152361165Y-121842491D01*
X152384430Y-121846608D01*
X152431751Y-121864228D01*
X152466870Y-121887118D01*
X152498185Y-121927243D01*
X152511144Y-121972410D01*
X152514794Y-122021765D01*
X152511851Y-122062276D01*
X152496964Y-122109448D01*
X152477389Y-122137585D01*
X152440544Y-122169776D01*
X152398351Y-122191819D01*
X152349930Y-122204703D01*
X152310026Y-122209292D01*
X152261175Y-122211976D01*
X152209002Y-122212763D01*
X152098604Y-122212763D01*
X152098604Y-121837606D01*
X152252965Y-121837606D01*
X152261603Y-121837625D01*
G37*
G36*
X152237824Y-121431202D02*
G01*
X152289129Y-121432098D01*
X152340893Y-121435338D01*
X152367872Y-121439670D01*
X152414410Y-121457076D01*
X152421069Y-121461037D01*
X152454221Y-121498597D01*
X152459671Y-121512274D01*
X152466678Y-121560635D01*
X152465390Y-121587773D01*
X152453489Y-121637571D01*
X152445902Y-121652348D01*
X152409769Y-121687885D01*
X152393664Y-121696937D01*
X152346999Y-121714019D01*
X152302460Y-121719154D01*
X152252965Y-121720369D01*
X152098604Y-121720369D01*
X152098604Y-121431186D01*
X152229030Y-121431186D01*
X152237824Y-121431202D01*
G37*
G36*
X159880161Y-122722478D02*
G01*
X143992692Y-122722478D01*
X143992692Y-122330000D01*
X144103803Y-122330000D01*
X144239846Y-122330000D01*
X144826029Y-122330000D01*
X144955233Y-122330000D01*
X144955233Y-121564054D01*
X145064654Y-121564054D01*
X145064654Y-121673475D01*
X145151849Y-121673475D01*
X145151849Y-122096748D01*
X145153292Y-122135430D01*
X145161604Y-122190278D01*
X145179786Y-122241618D01*
X145210956Y-122285792D01*
X145230565Y-122303030D01*
X145276618Y-122328743D01*
X145325857Y-122341891D01*
X145375819Y-122345631D01*
X145396213Y-122345035D01*
X145444940Y-122339525D01*
X145470516Y-122334947D01*
X145518702Y-122323161D01*
X145518702Y-122204947D01*
X145511130Y-122204947D01*
X145468632Y-122222044D01*
X145457481Y-122225530D01*
X145407571Y-122232302D01*
X145386383Y-122231554D01*
X145336741Y-122220334D01*
X145335121Y-122219575D01*
X145298883Y-122184431D01*
X145294157Y-122174035D01*
X145283007Y-122125812D01*
X145281542Y-122087650D01*
X145281053Y-122036175D01*
X145281053Y-121947271D01*
X145558269Y-121947271D01*
X145559700Y-121992051D01*
X145565514Y-122044657D01*
X145575800Y-122093517D01*
X145594047Y-122147207D01*
X145618733Y-122195504D01*
X145649860Y-122238408D01*
X145661606Y-122251392D01*
X145700052Y-122285318D01*
X145743306Y-122311705D01*
X145791368Y-122330553D01*
X145844239Y-122341861D01*
X145901919Y-122345631D01*
X145921064Y-122345226D01*
X145975604Y-122339143D01*
X146009901Y-122330000D01*
X146375505Y-122330000D01*
X146504710Y-122330000D01*
X146504710Y-122057669D01*
X146686671Y-122057669D01*
X146687536Y-122090218D01*
X146693043Y-122140851D01*
X146704745Y-122188339D01*
X146705904Y-122191679D01*
X146726727Y-122237493D01*
X146756036Y-122277487D01*
X146789416Y-122306503D01*
X146833217Y-122329267D01*
X146876125Y-122341013D01*
X146927739Y-122345631D01*
X146948042Y-122344969D01*
X146997986Y-122337053D01*
X147047173Y-122318520D01*
X147077881Y-122301280D01*
X147120328Y-122272103D01*
X147160746Y-122239141D01*
X147160746Y-122330000D01*
X147289706Y-122330000D01*
X147386182Y-122330000D01*
X147532484Y-122330000D01*
X147724214Y-122040572D01*
X147910327Y-122330000D01*
X148069085Y-122330000D01*
X148612526Y-122330000D01*
X148739532Y-122330000D01*
X148739532Y-121454145D01*
X149004047Y-122048632D01*
X149086357Y-122048632D01*
X149353070Y-121454145D01*
X149353070Y-122330000D01*
X149488869Y-122330000D01*
X149488869Y-122106517D01*
X149627110Y-122106517D01*
X149631189Y-122152789D01*
X149645673Y-122202505D01*
X149664299Y-122239497D01*
X149695254Y-122278953D01*
X149725428Y-122304024D01*
X149769993Y-122328290D01*
X149811083Y-122340737D01*
X149860118Y-122345631D01*
X149899708Y-122344257D01*
X149949511Y-122335861D01*
X149969747Y-122329097D01*
X150015945Y-122308506D01*
X150025256Y-122303617D01*
X150066992Y-122275289D01*
X150070278Y-122272700D01*
X150109490Y-122242561D01*
X150109490Y-122330000D01*
X150237718Y-122330000D01*
X150418213Y-122330000D01*
X150547418Y-122330000D01*
X150547418Y-121564054D01*
X150734996Y-121564054D01*
X150734996Y-122330000D01*
X150863956Y-122330000D01*
X150863956Y-121761646D01*
X150879275Y-121749205D01*
X150919606Y-121720430D01*
X150963852Y-121695212D01*
X150967054Y-121693635D01*
X151014349Y-121675978D01*
X151063258Y-121669567D01*
X151091761Y-121670926D01*
X151140195Y-121683489D01*
X151150299Y-121689233D01*
X151184159Y-121726231D01*
X151193661Y-121749140D01*
X151203698Y-121798771D01*
X151207545Y-121845788D01*
X151208827Y-121896468D01*
X151208827Y-122330000D01*
X151338032Y-122330000D01*
X151338032Y-121836385D01*
X151337782Y-121819120D01*
X151332970Y-121762780D01*
X151323691Y-121720369D01*
X151962561Y-121720369D01*
X151962561Y-122212763D01*
X151962561Y-122330000D01*
X152255896Y-122330000D01*
X152268783Y-122329926D01*
X152323066Y-122327777D01*
X152376265Y-122321900D01*
X152426133Y-122311193D01*
X152462571Y-122298390D01*
X152509111Y-122274828D01*
X152549720Y-122246713D01*
X152567334Y-122231795D01*
X152600667Y-122194524D01*
X152627390Y-122150481D01*
X152641321Y-122116098D01*
X152652805Y-122065866D01*
X152656210Y-122015415D01*
X152655770Y-121997247D01*
X152649308Y-121947271D01*
X152726308Y-121947271D01*
X152727739Y-121992051D01*
X152733553Y-122044657D01*
X152743839Y-122093517D01*
X152762086Y-122147207D01*
X152786772Y-122195504D01*
X152817899Y-122238408D01*
X152829646Y-122251392D01*
X152868091Y-122285318D01*
X152911345Y-122311705D01*
X152959407Y-122330553D01*
X153012278Y-122341861D01*
X153069958Y-122345631D01*
X153089103Y-122345226D01*
X153143643Y-122339143D01*
X153193837Y-122325762D01*
X153239687Y-122305083D01*
X153281192Y-122277105D01*
X153318353Y-122241828D01*
X153345302Y-122207267D01*
X153371611Y-122160189D01*
X153391343Y-122106997D01*
X153391455Y-122106517D01*
X153490055Y-122106517D01*
X153494134Y-122152789D01*
X153508618Y-122202505D01*
X153527244Y-122239497D01*
X153558199Y-122278953D01*
X153588373Y-122304024D01*
X153632937Y-122328290D01*
X153674028Y-122340737D01*
X153723063Y-122345631D01*
X153762653Y-122344257D01*
X153812456Y-122335861D01*
X153832692Y-122329097D01*
X153878890Y-122308506D01*
X153888201Y-122303617D01*
X153929937Y-122275289D01*
X153933223Y-122272700D01*
X153972435Y-122242561D01*
X153972435Y-122330000D01*
X154100662Y-122330000D01*
X154278471Y-122330000D01*
X154407431Y-122330000D01*
X154407431Y-121952889D01*
X154726657Y-121952889D01*
X154726837Y-121970558D01*
X154729542Y-122021273D01*
X154736354Y-122073589D01*
X154747173Y-122121660D01*
X154757062Y-122152607D01*
X154777768Y-122200492D01*
X154805547Y-122245003D01*
X154815080Y-122256967D01*
X154852413Y-122293011D01*
X154895917Y-122319986D01*
X154912783Y-122327374D01*
X154962418Y-122341399D01*
X155011688Y-122345631D01*
X155030632Y-122345173D01*
X155080321Y-122338304D01*
X155091334Y-122335433D01*
X155137473Y-122318032D01*
X155146524Y-122313692D01*
X155189009Y-122287990D01*
X155202030Y-122277952D01*
X155241277Y-122245980D01*
X155241277Y-122330000D01*
X155370237Y-122330000D01*
X156059490Y-122330000D01*
X156223866Y-122330000D01*
X156223866Y-122126789D01*
X156059490Y-122126789D01*
X156059490Y-122330000D01*
X155370237Y-122330000D01*
X155370237Y-121767264D01*
X156059490Y-121767264D01*
X156223866Y-121767264D01*
X156223866Y-121564054D01*
X156827878Y-121564054D01*
X157115108Y-122330000D01*
X157231123Y-122330000D01*
X157520307Y-121564054D01*
X157385729Y-121564054D01*
X157177390Y-122155122D01*
X156967341Y-121564054D01*
X156827878Y-121564054D01*
X156223866Y-121564054D01*
X156059490Y-121564054D01*
X156059490Y-121767264D01*
X155370237Y-121767264D01*
X155370237Y-121454633D01*
X157675645Y-121454633D01*
X157675645Y-121548422D01*
X157861025Y-121548422D01*
X157861025Y-122224487D01*
X157675645Y-122224487D01*
X157675645Y-122330000D01*
X158174389Y-122330000D01*
X158174389Y-122224487D01*
X157992916Y-122224487D01*
X157992916Y-121564054D01*
X158377843Y-121564054D01*
X158377843Y-121755785D01*
X158377843Y-122611367D01*
X158506803Y-122611367D01*
X158506803Y-122292386D01*
X158549597Y-122314865D01*
X158596929Y-122332686D01*
X158647294Y-122342787D01*
X158697801Y-122345631D01*
X158748666Y-122341673D01*
X158803688Y-122327048D01*
X158854059Y-122301648D01*
X158893532Y-122271300D01*
X158929588Y-122233035D01*
X158956044Y-122195882D01*
X158981873Y-122146309D01*
X159001244Y-122091291D01*
X159012455Y-122041284D01*
X159019181Y-121987497D01*
X159021423Y-121929930D01*
X159021134Y-121908408D01*
X159017882Y-121857024D01*
X159012669Y-121822707D01*
X159114968Y-121822707D01*
X159115045Y-121839122D01*
X159116894Y-121902135D01*
X159121208Y-121960912D01*
X159127988Y-122015452D01*
X159137233Y-122065757D01*
X159152256Y-122122680D01*
X159171131Y-122172985D01*
X159193859Y-122216671D01*
X159209486Y-122239717D01*
X159245482Y-122279010D01*
X159287797Y-122309235D01*
X159336431Y-122330393D01*
X159391386Y-122342483D01*
X159442009Y-122345631D01*
X159462551Y-122345137D01*
X159520091Y-122337724D01*
X159571499Y-122321415D01*
X159616776Y-122296210D01*
X159655923Y-122262110D01*
X159688939Y-122219113D01*
X159703256Y-122194077D01*
X159723988Y-122146711D01*
X159740808Y-122092296D01*
X159751448Y-122043690D01*
X159759584Y-121990573D01*
X159765217Y-121932945D01*
X159768346Y-121870806D01*
X159769050Y-121821242D01*
X159768973Y-121804991D01*
X159767118Y-121742558D01*
X159762791Y-121684239D01*
X159755990Y-121630035D01*
X159746717Y-121579944D01*
X159731647Y-121523116D01*
X159712713Y-121472715D01*
X159689916Y-121428743D01*
X159674332Y-121405435D01*
X159638411Y-121365696D01*
X159596153Y-121335127D01*
X159547558Y-121313729D01*
X159492626Y-121301502D01*
X159442009Y-121298318D01*
X159421496Y-121298810D01*
X159364019Y-121306195D01*
X159312640Y-121322441D01*
X159267357Y-121347548D01*
X159228170Y-121381517D01*
X159195080Y-121424347D01*
X159180763Y-121449263D01*
X159160031Y-121496506D01*
X159143211Y-121550891D01*
X159132571Y-121599543D01*
X159124434Y-121652767D01*
X159118802Y-121710563D01*
X159115672Y-121772931D01*
X159114968Y-121822707D01*
X159012669Y-121822707D01*
X159009209Y-121799928D01*
X158995333Y-121747813D01*
X158976254Y-121700678D01*
X158947418Y-121651981D01*
X158928069Y-121627710D01*
X158889838Y-121593022D01*
X158846043Y-121568244D01*
X158796686Y-121553378D01*
X158741765Y-121548422D01*
X158707739Y-121550239D01*
X158659161Y-121559776D01*
X158613538Y-121577487D01*
X158591925Y-121588793D01*
X158547631Y-121616706D01*
X158506803Y-121649295D01*
X158506803Y-121564054D01*
X158377843Y-121564054D01*
X157992916Y-121564054D01*
X157992916Y-121313949D01*
X157886427Y-121313949D01*
X157882600Y-121342795D01*
X157865724Y-121389460D01*
X157830495Y-121425324D01*
X157824051Y-121428873D01*
X157776332Y-121445360D01*
X157724707Y-121452801D01*
X157675645Y-121454633D01*
X155370237Y-121454633D01*
X155370237Y-121267055D01*
X155241277Y-121267055D01*
X155241277Y-121600690D01*
X155197753Y-121578615D01*
X155151151Y-121561123D01*
X155101654Y-121551213D01*
X155050767Y-121548422D01*
X155026518Y-121549410D01*
X154975393Y-121558324D01*
X154926203Y-121576510D01*
X154904556Y-121587790D01*
X154861837Y-121617356D01*
X154824842Y-121653935D01*
X154798076Y-121689508D01*
X154773096Y-121732880D01*
X154752791Y-121780697D01*
X154746666Y-121799309D01*
X154734926Y-121849479D01*
X154728724Y-121899078D01*
X154726676Y-121952400D01*
X154726657Y-121952889D01*
X154407431Y-121952889D01*
X154407431Y-121786559D01*
X154421988Y-121773205D01*
X154461064Y-121743506D01*
X154505129Y-121719637D01*
X154511572Y-121716886D01*
X154560023Y-121701913D01*
X154608688Y-121696922D01*
X154647522Y-121698387D01*
X154678053Y-121704738D01*
X154685136Y-121704738D01*
X154685136Y-121568206D01*
X154662665Y-121565275D01*
X154632868Y-121564054D01*
X154629766Y-121564079D01*
X154579360Y-121571361D01*
X154530774Y-121589944D01*
X154488814Y-121614330D01*
X154445825Y-121645736D01*
X154407431Y-121677871D01*
X154407431Y-121564054D01*
X154278471Y-121564054D01*
X154278471Y-122330000D01*
X154100662Y-122330000D01*
X154100662Y-121808053D01*
X154100162Y-121786149D01*
X154094171Y-121734224D01*
X154080146Y-121686420D01*
X154054256Y-121641174D01*
X154017620Y-121605087D01*
X154012173Y-121601165D01*
X153968585Y-121576675D01*
X153920167Y-121560879D01*
X153887697Y-121554857D01*
X153838272Y-121549894D01*
X153786810Y-121548422D01*
X153754112Y-121549231D01*
X153704722Y-121553479D01*
X153654919Y-121561367D01*
X153650782Y-121562159D01*
X153602513Y-121572060D01*
X153552581Y-121584570D01*
X153552581Y-121720369D01*
X153560153Y-121720369D01*
X153582859Y-121710134D01*
X153631996Y-121691257D01*
X153681053Y-121676894D01*
X153684823Y-121675962D01*
X153734298Y-121666025D01*
X153786078Y-121661751D01*
X153809524Y-121662252D01*
X153859595Y-121666880D01*
X153874765Y-121669650D01*
X153920167Y-121688129D01*
X153927608Y-121693178D01*
X153958513Y-121731360D01*
X153966997Y-121754750D01*
X153972435Y-121804877D01*
X153972435Y-121829790D01*
X153934731Y-121832011D01*
X153885982Y-121835614D01*
X153833219Y-121840543D01*
X153782658Y-121846399D01*
X153777186Y-121847103D01*
X153724979Y-121856091D01*
X153677351Y-121868608D01*
X153630251Y-121886454D01*
X153596301Y-121903994D01*
X153554535Y-121935627D01*
X153523761Y-121973649D01*
X153507468Y-122006279D01*
X153494038Y-122055554D01*
X153490742Y-122097725D01*
X153490055Y-122106517D01*
X153391455Y-122106517D01*
X153402762Y-122058001D01*
X153409614Y-122004759D01*
X153411898Y-121947271D01*
X153410436Y-121901105D01*
X153404498Y-121847165D01*
X153393993Y-121797412D01*
X153375357Y-121743233D01*
X153350143Y-121695082D01*
X153318353Y-121652958D01*
X153306449Y-121640300D01*
X153267840Y-121607224D01*
X153224887Y-121581498D01*
X153177589Y-121563123D01*
X153125946Y-121552097D01*
X153069958Y-121548422D01*
X153050867Y-121548832D01*
X152996410Y-121554971D01*
X152946178Y-121568478D01*
X152900171Y-121589352D01*
X152858388Y-121617594D01*
X152820830Y-121653203D01*
X152793599Y-121688010D01*
X152767015Y-121735225D01*
X152747077Y-121788382D01*
X152735539Y-121837219D01*
X152728616Y-121890182D01*
X152726308Y-121947271D01*
X152649308Y-121947271D01*
X152649169Y-121946195D01*
X152632544Y-121895543D01*
X152606140Y-121851284D01*
X152596390Y-121839325D01*
X152558646Y-121804673D01*
X152512841Y-121778035D01*
X152464724Y-121760914D01*
X152464724Y-121755296D01*
X152496491Y-121737176D01*
X152537329Y-121704787D01*
X152569993Y-121666147D01*
X152586662Y-121637266D01*
X152602736Y-121590508D01*
X152608094Y-121539630D01*
X152607871Y-121527958D01*
X152600925Y-121477295D01*
X152582693Y-121429965D01*
X152577671Y-121421331D01*
X152544766Y-121382927D01*
X152502337Y-121354249D01*
X152496060Y-121351057D01*
X152447828Y-121331859D01*
X152397557Y-121321032D01*
X152386864Y-121319766D01*
X152334474Y-121315948D01*
X152285083Y-121314392D01*
X152233914Y-121313949D01*
X151962561Y-121313949D01*
X151962561Y-121720369D01*
X151323691Y-121720369D01*
X151322034Y-121712798D01*
X151302036Y-121663461D01*
X151274040Y-121622428D01*
X151243778Y-121593592D01*
X151197897Y-121566924D01*
X151150529Y-121553048D01*
X151096964Y-121548422D01*
X151073731Y-121549384D01*
X151024867Y-121558066D01*
X150978018Y-121575778D01*
X150946283Y-121592921D01*
X150903551Y-121621669D01*
X150863956Y-121653935D01*
X150863956Y-121564054D01*
X150734996Y-121564054D01*
X150547418Y-121564054D01*
X150418213Y-121564054D01*
X150418213Y-122330000D01*
X150237718Y-122330000D01*
X150237718Y-121808053D01*
X150237217Y-121786149D01*
X150231226Y-121734224D01*
X150217201Y-121686420D01*
X150191311Y-121641174D01*
X150154675Y-121605087D01*
X150149228Y-121601165D01*
X150105640Y-121576675D01*
X150057222Y-121560879D01*
X150024752Y-121554857D01*
X149975327Y-121549894D01*
X149923866Y-121548422D01*
X149891168Y-121549231D01*
X149841777Y-121553479D01*
X149791974Y-121561367D01*
X149787837Y-121562159D01*
X149739568Y-121572060D01*
X149689637Y-121584570D01*
X149689637Y-121720369D01*
X149697208Y-121720369D01*
X149719914Y-121710134D01*
X149769052Y-121691257D01*
X149818108Y-121676894D01*
X149821878Y-121675962D01*
X149871353Y-121666025D01*
X149923133Y-121661751D01*
X149946579Y-121662252D01*
X149996650Y-121666880D01*
X150011820Y-121669650D01*
X150057222Y-121688129D01*
X150064663Y-121693178D01*
X150095568Y-121731360D01*
X150104052Y-121754750D01*
X150109490Y-121804877D01*
X150109490Y-121829790D01*
X150071786Y-121832011D01*
X150023037Y-121835614D01*
X149970274Y-121840543D01*
X149919713Y-121846399D01*
X149914241Y-121847103D01*
X149862034Y-121856091D01*
X149814407Y-121868608D01*
X149767306Y-121886454D01*
X149733356Y-121903994D01*
X149691591Y-121935627D01*
X149660816Y-121973649D01*
X149644523Y-122006279D01*
X149631093Y-122055554D01*
X149627797Y-122097725D01*
X149627110Y-122106517D01*
X149488869Y-122106517D01*
X149488869Y-121446817D01*
X150409176Y-121446817D01*
X150556210Y-121446817D01*
X150556210Y-121313949D01*
X150409176Y-121313949D01*
X150409176Y-121446817D01*
X149488869Y-121446817D01*
X149488869Y-121313949D01*
X149300069Y-121313949D01*
X149053384Y-121878394D01*
X148797906Y-121313949D01*
X148612526Y-121313949D01*
X148612526Y-122330000D01*
X148069085Y-122330000D01*
X147803838Y-121941165D01*
X148069085Y-121564054D01*
X147922051Y-121564054D01*
X147732519Y-121850795D01*
X147547627Y-121564054D01*
X147388869Y-121564054D01*
X147652651Y-121950202D01*
X147386182Y-122330000D01*
X147289706Y-122330000D01*
X147289706Y-121564054D01*
X147160746Y-121564054D01*
X147160746Y-122129965D01*
X147149431Y-122139723D01*
X147107603Y-122170811D01*
X147062316Y-122197131D01*
X147058979Y-122198814D01*
X147010354Y-122217648D01*
X146961444Y-122224487D01*
X146932006Y-122223151D01*
X146883531Y-122210809D01*
X146873759Y-122205130D01*
X146840544Y-122167822D01*
X146830986Y-122146153D01*
X146820272Y-122098213D01*
X146820001Y-122095690D01*
X146816717Y-122046659D01*
X146815875Y-121997585D01*
X146815875Y-121564054D01*
X146686671Y-121564054D01*
X146686671Y-122057669D01*
X146504710Y-122057669D01*
X146504710Y-121267055D01*
X146375505Y-121267055D01*
X146375505Y-122330000D01*
X146009901Y-122330000D01*
X146025798Y-122325762D01*
X146071648Y-122305083D01*
X146113153Y-122277105D01*
X146150314Y-122241828D01*
X146177263Y-122207267D01*
X146203572Y-122160189D01*
X146223304Y-122106997D01*
X146234723Y-122058001D01*
X146241575Y-122004759D01*
X146243859Y-121947271D01*
X146242397Y-121901105D01*
X146236459Y-121847165D01*
X146225953Y-121797412D01*
X146207318Y-121743233D01*
X146182104Y-121695082D01*
X146150314Y-121652958D01*
X146138410Y-121640300D01*
X146099801Y-121607224D01*
X146056848Y-121581498D01*
X146009550Y-121563123D01*
X145957906Y-121552097D01*
X145901919Y-121548422D01*
X145882828Y-121548832D01*
X145828371Y-121554971D01*
X145778139Y-121568478D01*
X145732132Y-121589352D01*
X145690349Y-121617594D01*
X145652791Y-121653203D01*
X145625560Y-121688010D01*
X145598976Y-121735225D01*
X145579038Y-121788382D01*
X145567500Y-121837219D01*
X145560577Y-121890182D01*
X145558269Y-121947271D01*
X145281053Y-121947271D01*
X145281053Y-121673475D01*
X145518702Y-121673475D01*
X145518702Y-121564054D01*
X145281053Y-121564054D01*
X145281053Y-121345212D01*
X145151849Y-121345212D01*
X145151849Y-121564054D01*
X145064654Y-121564054D01*
X144955233Y-121564054D01*
X144826029Y-121564054D01*
X144826029Y-122330000D01*
X144239846Y-122330000D01*
X144239846Y-121841514D01*
X144695847Y-121841514D01*
X144695847Y-121720369D01*
X144239846Y-121720369D01*
X144239846Y-121446817D01*
X144816992Y-121446817D01*
X144964026Y-121446817D01*
X144964026Y-121313949D01*
X144816992Y-121313949D01*
X144816992Y-121446817D01*
X144239846Y-121446817D01*
X144239846Y-121435094D01*
X144715875Y-121435094D01*
X144715875Y-121313949D01*
X144103803Y-121313949D01*
X144103803Y-122330000D01*
X143992692Y-122330000D01*
X143992692Y-121155944D01*
X159880161Y-121155944D01*
X159880161Y-122722478D01*
G37*
X156508333Y-89024819D02*
X156175000Y-88548628D01*
X155936905Y-89024819D02*
X155936905Y-88024819D01*
X155936905Y-88024819D02*
X156317857Y-88024819D01*
X156317857Y-88024819D02*
X156413095Y-88072438D01*
X156413095Y-88072438D02*
X156460714Y-88120057D01*
X156460714Y-88120057D02*
X156508333Y-88215295D01*
X156508333Y-88215295D02*
X156508333Y-88358152D01*
X156508333Y-88358152D02*
X156460714Y-88453390D01*
X156460714Y-88453390D02*
X156413095Y-88501009D01*
X156413095Y-88501009D02*
X156317857Y-88548628D01*
X156317857Y-88548628D02*
X155936905Y-88548628D01*
X157460714Y-89024819D02*
X156889286Y-89024819D01*
X157175000Y-89024819D02*
X157175000Y-88024819D01*
X157175000Y-88024819D02*
X157079762Y-88167676D01*
X157079762Y-88167676D02*
X156984524Y-88262914D01*
X156984524Y-88262914D02*
X156889286Y-88310533D01*
X168480295Y-126400591D02*
X168385057Y-126352972D01*
X168385057Y-126352972D02*
X168289819Y-126257734D01*
X168289819Y-126257734D02*
X168146962Y-126114876D01*
X168146962Y-126114876D02*
X168051724Y-126067257D01*
X168051724Y-126067257D02*
X167956486Y-126067257D01*
X168004105Y-126305353D02*
X167908867Y-126257734D01*
X167908867Y-126257734D02*
X167813629Y-126162495D01*
X167813629Y-126162495D02*
X167766010Y-125972019D01*
X167766010Y-125972019D02*
X167766010Y-125638686D01*
X167766010Y-125638686D02*
X167813629Y-125448210D01*
X167813629Y-125448210D02*
X167908867Y-125352972D01*
X167908867Y-125352972D02*
X168004105Y-125305353D01*
X168004105Y-125305353D02*
X168194581Y-125305353D01*
X168194581Y-125305353D02*
X168289819Y-125352972D01*
X168289819Y-125352972D02*
X168385057Y-125448210D01*
X168385057Y-125448210D02*
X168432676Y-125638686D01*
X168432676Y-125638686D02*
X168432676Y-125972019D01*
X168432676Y-125972019D02*
X168385057Y-126162495D01*
X168385057Y-126162495D02*
X168289819Y-126257734D01*
X168289819Y-126257734D02*
X168194581Y-126305353D01*
X168194581Y-126305353D02*
X168004105Y-126305353D01*
X168813629Y-125400591D02*
X168861248Y-125352972D01*
X168861248Y-125352972D02*
X168956486Y-125305353D01*
X168956486Y-125305353D02*
X169194581Y-125305353D01*
X169194581Y-125305353D02*
X169289819Y-125352972D01*
X169289819Y-125352972D02*
X169337438Y-125400591D01*
X169337438Y-125400591D02*
X169385057Y-125495829D01*
X169385057Y-125495829D02*
X169385057Y-125591067D01*
X169385057Y-125591067D02*
X169337438Y-125733924D01*
X169337438Y-125733924D02*
X168766010Y-126305353D01*
X168766010Y-126305353D02*
X169385057Y-126305353D01*
X159559761Y-127735057D02*
X159464523Y-127687438D01*
X159464523Y-127687438D02*
X159369285Y-127592200D01*
X159369285Y-127592200D02*
X159226428Y-127449342D01*
X159226428Y-127449342D02*
X159131190Y-127401723D01*
X159131190Y-127401723D02*
X159035952Y-127401723D01*
X159083571Y-127639819D02*
X158988333Y-127592200D01*
X158988333Y-127592200D02*
X158893095Y-127496961D01*
X158893095Y-127496961D02*
X158845476Y-127306485D01*
X158845476Y-127306485D02*
X158845476Y-126973152D01*
X158845476Y-126973152D02*
X158893095Y-126782676D01*
X158893095Y-126782676D02*
X158988333Y-126687438D01*
X158988333Y-126687438D02*
X159083571Y-126639819D01*
X159083571Y-126639819D02*
X159274047Y-126639819D01*
X159274047Y-126639819D02*
X159369285Y-126687438D01*
X159369285Y-126687438D02*
X159464523Y-126782676D01*
X159464523Y-126782676D02*
X159512142Y-126973152D01*
X159512142Y-126973152D02*
X159512142Y-127306485D01*
X159512142Y-127306485D02*
X159464523Y-127496961D01*
X159464523Y-127496961D02*
X159369285Y-127592200D01*
X159369285Y-127592200D02*
X159274047Y-127639819D01*
X159274047Y-127639819D02*
X159083571Y-127639819D01*
X160464523Y-127639819D02*
X159893095Y-127639819D01*
X160178809Y-127639819D02*
X160178809Y-126639819D01*
X160178809Y-126639819D02*
X160083571Y-126782676D01*
X160083571Y-126782676D02*
X159988333Y-126877914D01*
X159988333Y-126877914D02*
X159893095Y-126925533D01*
X158833333Y-68454819D02*
X158357143Y-68454819D01*
X158357143Y-68454819D02*
X158357143Y-67454819D01*
X159690476Y-68454819D02*
X159119048Y-68454819D01*
X159404762Y-68454819D02*
X159404762Y-67454819D01*
X159404762Y-67454819D02*
X159309524Y-67597676D01*
X159309524Y-67597676D02*
X159214286Y-67692914D01*
X159214286Y-67692914D02*
X159119048Y-67740533D01*
X144717676Y-74560353D02*
X144384343Y-74084162D01*
X144146248Y-74560353D02*
X144146248Y-73560353D01*
X144146248Y-73560353D02*
X144527200Y-73560353D01*
X144527200Y-73560353D02*
X144622438Y-73607972D01*
X144622438Y-73607972D02*
X144670057Y-73655591D01*
X144670057Y-73655591D02*
X144717676Y-73750829D01*
X144717676Y-73750829D02*
X144717676Y-73893686D01*
X144717676Y-73893686D02*
X144670057Y-73988924D01*
X144670057Y-73988924D02*
X144622438Y-74036543D01*
X144622438Y-74036543D02*
X144527200Y-74084162D01*
X144527200Y-74084162D02*
X144146248Y-74084162D01*
X145670057Y-74560353D02*
X145098629Y-74560353D01*
X145384343Y-74560353D02*
X145384343Y-73560353D01*
X145384343Y-73560353D02*
X145289105Y-73703210D01*
X145289105Y-73703210D02*
X145193867Y-73798448D01*
X145193867Y-73798448D02*
X145098629Y-73846067D01*
X146289105Y-73560353D02*
X146384343Y-73560353D01*
X146384343Y-73560353D02*
X146479581Y-73607972D01*
X146479581Y-73607972D02*
X146527200Y-73655591D01*
X146527200Y-73655591D02*
X146574819Y-73750829D01*
X146574819Y-73750829D02*
X146622438Y-73941305D01*
X146622438Y-73941305D02*
X146622438Y-74179400D01*
X146622438Y-74179400D02*
X146574819Y-74369876D01*
X146574819Y-74369876D02*
X146527200Y-74465114D01*
X146527200Y-74465114D02*
X146479581Y-74512734D01*
X146479581Y-74512734D02*
X146384343Y-74560353D01*
X146384343Y-74560353D02*
X146289105Y-74560353D01*
X146289105Y-74560353D02*
X146193867Y-74512734D01*
X146193867Y-74512734D02*
X146146248Y-74465114D01*
X146146248Y-74465114D02*
X146098629Y-74369876D01*
X146098629Y-74369876D02*
X146051010Y-74179400D01*
X146051010Y-74179400D02*
X146051010Y-73941305D01*
X146051010Y-73941305D02*
X146098629Y-73750829D01*
X146098629Y-73750829D02*
X146146248Y-73655591D01*
X146146248Y-73655591D02*
X146193867Y-73607972D01*
X146193867Y-73607972D02*
X146289105Y-73560353D01*
X166403629Y-109990353D02*
X166403629Y-110799876D01*
X166403629Y-110799876D02*
X166451248Y-110895114D01*
X166451248Y-110895114D02*
X166498867Y-110942734D01*
X166498867Y-110942734D02*
X166594105Y-110990353D01*
X166594105Y-110990353D02*
X166784581Y-110990353D01*
X166784581Y-110990353D02*
X166879819Y-110942734D01*
X166879819Y-110942734D02*
X166927438Y-110895114D01*
X166927438Y-110895114D02*
X166975057Y-110799876D01*
X166975057Y-110799876D02*
X166975057Y-109990353D01*
X167975057Y-110990353D02*
X167403629Y-110990353D01*
X167689343Y-110990353D02*
X167689343Y-109990353D01*
X167689343Y-109990353D02*
X167594105Y-110133210D01*
X167594105Y-110133210D02*
X167498867Y-110228448D01*
X167498867Y-110228448D02*
X167403629Y-110276067D01*
X169108333Y-77000114D02*
X169060714Y-77047734D01*
X169060714Y-77047734D02*
X168917857Y-77095353D01*
X168917857Y-77095353D02*
X168822619Y-77095353D01*
X168822619Y-77095353D02*
X168679762Y-77047734D01*
X168679762Y-77047734D02*
X168584524Y-76952495D01*
X168584524Y-76952495D02*
X168536905Y-76857257D01*
X168536905Y-76857257D02*
X168489286Y-76666781D01*
X168489286Y-76666781D02*
X168489286Y-76523924D01*
X168489286Y-76523924D02*
X168536905Y-76333448D01*
X168536905Y-76333448D02*
X168584524Y-76238210D01*
X168584524Y-76238210D02*
X168679762Y-76142972D01*
X168679762Y-76142972D02*
X168822619Y-76095353D01*
X168822619Y-76095353D02*
X168917857Y-76095353D01*
X168917857Y-76095353D02*
X169060714Y-76142972D01*
X169060714Y-76142972D02*
X169108333Y-76190591D01*
X169679762Y-76523924D02*
X169584524Y-76476305D01*
X169584524Y-76476305D02*
X169536905Y-76428686D01*
X169536905Y-76428686D02*
X169489286Y-76333448D01*
X169489286Y-76333448D02*
X169489286Y-76285829D01*
X169489286Y-76285829D02*
X169536905Y-76190591D01*
X169536905Y-76190591D02*
X169584524Y-76142972D01*
X169584524Y-76142972D02*
X169679762Y-76095353D01*
X169679762Y-76095353D02*
X169870238Y-76095353D01*
X169870238Y-76095353D02*
X169965476Y-76142972D01*
X169965476Y-76142972D02*
X170013095Y-76190591D01*
X170013095Y-76190591D02*
X170060714Y-76285829D01*
X170060714Y-76285829D02*
X170060714Y-76333448D01*
X170060714Y-76333448D02*
X170013095Y-76428686D01*
X170013095Y-76428686D02*
X169965476Y-76476305D01*
X169965476Y-76476305D02*
X169870238Y-76523924D01*
X169870238Y-76523924D02*
X169679762Y-76523924D01*
X169679762Y-76523924D02*
X169584524Y-76571543D01*
X169584524Y-76571543D02*
X169536905Y-76619162D01*
X169536905Y-76619162D02*
X169489286Y-76714400D01*
X169489286Y-76714400D02*
X169489286Y-76904876D01*
X169489286Y-76904876D02*
X169536905Y-77000114D01*
X169536905Y-77000114D02*
X169584524Y-77047734D01*
X169584524Y-77047734D02*
X169679762Y-77095353D01*
X169679762Y-77095353D02*
X169870238Y-77095353D01*
X169870238Y-77095353D02*
X169965476Y-77047734D01*
X169965476Y-77047734D02*
X170013095Y-77000114D01*
X170013095Y-77000114D02*
X170060714Y-76904876D01*
X170060714Y-76904876D02*
X170060714Y-76714400D01*
X170060714Y-76714400D02*
X170013095Y-76619162D01*
X170013095Y-76619162D02*
X169965476Y-76571543D01*
X169965476Y-76571543D02*
X169870238Y-76523924D01*
D14*
X140476667Y-126454318D02*
X140476667Y-127361461D01*
X140476667Y-127361461D02*
X140416190Y-127542889D01*
X140416190Y-127542889D02*
X140295238Y-127663842D01*
X140295238Y-127663842D02*
X140113809Y-127724318D01*
X140113809Y-127724318D02*
X139992857Y-127724318D01*
X141686190Y-126454318D02*
X141081428Y-126454318D01*
X141081428Y-126454318D02*
X141020952Y-127059080D01*
X141020952Y-127059080D02*
X141081428Y-126998603D01*
X141081428Y-126998603D02*
X141202381Y-126938127D01*
X141202381Y-126938127D02*
X141504762Y-126938127D01*
X141504762Y-126938127D02*
X141625714Y-126998603D01*
X141625714Y-126998603D02*
X141686190Y-127059080D01*
X141686190Y-127059080D02*
X141746667Y-127180032D01*
X141746667Y-127180032D02*
X141746667Y-127482413D01*
X141746667Y-127482413D02*
X141686190Y-127603365D01*
X141686190Y-127603365D02*
X141625714Y-127663842D01*
X141625714Y-127663842D02*
X141504762Y-127724318D01*
X141504762Y-127724318D02*
X141202381Y-127724318D01*
X141202381Y-127724318D02*
X141081428Y-127663842D01*
X141081428Y-127663842D02*
X141020952Y-127603365D01*
D13*
X170404663Y-57314861D02*
X170309327Y-57267193D01*
X170309327Y-57267193D02*
X170213991Y-57171857D01*
X170213991Y-57171857D02*
X170070986Y-57028852D01*
X170070986Y-57028852D02*
X169975650Y-56981184D01*
X169975650Y-56981184D02*
X169880314Y-56981184D01*
X169927982Y-57219525D02*
X169832646Y-57171857D01*
X169832646Y-57171857D02*
X169737309Y-57076520D01*
X169737309Y-57076520D02*
X169689641Y-56885848D01*
X169689641Y-56885848D02*
X169689641Y-56552171D01*
X169689641Y-56552171D02*
X169737309Y-56361498D01*
X169737309Y-56361498D02*
X169832646Y-56266162D01*
X169832646Y-56266162D02*
X169927982Y-56218494D01*
X169927982Y-56218494D02*
X170118654Y-56218494D01*
X170118654Y-56218494D02*
X170213991Y-56266162D01*
X170213991Y-56266162D02*
X170309327Y-56361498D01*
X170309327Y-56361498D02*
X170356995Y-56552171D01*
X170356995Y-56552171D02*
X170356995Y-56885848D01*
X170356995Y-56885848D02*
X170309327Y-57076520D01*
X170309327Y-57076520D02*
X170213991Y-57171857D01*
X170213991Y-57171857D02*
X170118654Y-57219525D01*
X170118654Y-57219525D02*
X169927982Y-57219525D01*
X170690672Y-56218494D02*
X171310358Y-56218494D01*
X171310358Y-56218494D02*
X170976681Y-56599839D01*
X170976681Y-56599839D02*
X171119685Y-56599839D01*
X171119685Y-56599839D02*
X171215022Y-56647507D01*
X171215022Y-56647507D02*
X171262690Y-56695175D01*
X171262690Y-56695175D02*
X171310358Y-56790511D01*
X171310358Y-56790511D02*
X171310358Y-57028852D01*
X171310358Y-57028852D02*
X171262690Y-57124188D01*
X171262690Y-57124188D02*
X171215022Y-57171857D01*
X171215022Y-57171857D02*
X171119685Y-57219525D01*
X171119685Y-57219525D02*
X170833676Y-57219525D01*
X170833676Y-57219525D02*
X170738340Y-57171857D01*
X170738340Y-57171857D02*
X170690672Y-57124188D01*
X163323810Y-70642200D02*
X163019048Y-70855534D01*
X163323810Y-71007915D02*
X162683810Y-71007915D01*
X162683810Y-71007915D02*
X162683810Y-70764105D01*
X162683810Y-70764105D02*
X162714286Y-70703153D01*
X162714286Y-70703153D02*
X162744762Y-70672676D01*
X162744762Y-70672676D02*
X162805714Y-70642200D01*
X162805714Y-70642200D02*
X162897143Y-70642200D01*
X162897143Y-70642200D02*
X162958095Y-70672676D01*
X162958095Y-70672676D02*
X162988572Y-70703153D01*
X162988572Y-70703153D02*
X163019048Y-70764105D01*
X163019048Y-70764105D02*
X163019048Y-71007915D01*
X162897143Y-70093629D02*
X163323810Y-70093629D01*
X162653334Y-70246010D02*
X163110476Y-70398391D01*
X163110476Y-70398391D02*
X163110476Y-70002200D01*
D15*
X164416666Y-63681090D02*
X164392857Y-63704900D01*
X164392857Y-63704900D02*
X164321428Y-63728709D01*
X164321428Y-63728709D02*
X164273809Y-63728709D01*
X164273809Y-63728709D02*
X164202381Y-63704900D01*
X164202381Y-63704900D02*
X164154762Y-63657280D01*
X164154762Y-63657280D02*
X164130952Y-63609661D01*
X164130952Y-63609661D02*
X164107143Y-63514423D01*
X164107143Y-63514423D02*
X164107143Y-63442995D01*
X164107143Y-63442995D02*
X164130952Y-63347757D01*
X164130952Y-63347757D02*
X164154762Y-63300138D01*
X164154762Y-63300138D02*
X164202381Y-63252519D01*
X164202381Y-63252519D02*
X164273809Y-63228709D01*
X164273809Y-63228709D02*
X164321428Y-63228709D01*
X164321428Y-63228709D02*
X164392857Y-63252519D01*
X164392857Y-63252519D02*
X164416666Y-63276328D01*
X164869047Y-63228709D02*
X164630952Y-63228709D01*
X164630952Y-63228709D02*
X164607143Y-63466804D01*
X164607143Y-63466804D02*
X164630952Y-63442995D01*
X164630952Y-63442995D02*
X164678571Y-63419185D01*
X164678571Y-63419185D02*
X164797619Y-63419185D01*
X164797619Y-63419185D02*
X164845238Y-63442995D01*
X164845238Y-63442995D02*
X164869047Y-63466804D01*
X164869047Y-63466804D02*
X164892857Y-63514423D01*
X164892857Y-63514423D02*
X164892857Y-63633471D01*
X164892857Y-63633471D02*
X164869047Y-63681090D01*
X164869047Y-63681090D02*
X164845238Y-63704900D01*
X164845238Y-63704900D02*
X164797619Y-63728709D01*
X164797619Y-63728709D02*
X164678571Y-63728709D01*
X164678571Y-63728709D02*
X164630952Y-63704900D01*
X164630952Y-63704900D02*
X164607143Y-63681090D01*
D13*
X146392676Y-84420353D02*
X146059343Y-83944162D01*
X145821248Y-84420353D02*
X145821248Y-83420353D01*
X145821248Y-83420353D02*
X146202200Y-83420353D01*
X146202200Y-83420353D02*
X146297438Y-83467972D01*
X146297438Y-83467972D02*
X146345057Y-83515591D01*
X146345057Y-83515591D02*
X146392676Y-83610829D01*
X146392676Y-83610829D02*
X146392676Y-83753686D01*
X146392676Y-83753686D02*
X146345057Y-83848924D01*
X146345057Y-83848924D02*
X146297438Y-83896543D01*
X146297438Y-83896543D02*
X146202200Y-83944162D01*
X146202200Y-83944162D02*
X145821248Y-83944162D01*
X147345057Y-84420353D02*
X146773629Y-84420353D01*
X147059343Y-84420353D02*
X147059343Y-83420353D01*
X147059343Y-83420353D02*
X146964105Y-83563210D01*
X146964105Y-83563210D02*
X146868867Y-83658448D01*
X146868867Y-83658448D02*
X146773629Y-83706067D01*
X147678391Y-83420353D02*
X148297438Y-83420353D01*
X148297438Y-83420353D02*
X147964105Y-83801305D01*
X147964105Y-83801305D02*
X148106962Y-83801305D01*
X148106962Y-83801305D02*
X148202200Y-83848924D01*
X148202200Y-83848924D02*
X148249819Y-83896543D01*
X148249819Y-83896543D02*
X148297438Y-83991781D01*
X148297438Y-83991781D02*
X148297438Y-84229876D01*
X148297438Y-84229876D02*
X148249819Y-84325114D01*
X148249819Y-84325114D02*
X148202200Y-84372734D01*
X148202200Y-84372734D02*
X148106962Y-84420353D01*
X148106962Y-84420353D02*
X147821248Y-84420353D01*
X147821248Y-84420353D02*
X147726010Y-84372734D01*
X147726010Y-84372734D02*
X147678391Y-84325114D01*
D14*
X149569852Y-80958866D02*
X150476995Y-80958866D01*
X150476995Y-80958866D02*
X150658423Y-81019343D01*
X150658423Y-81019343D02*
X150779376Y-81140295D01*
X150779376Y-81140295D02*
X150839852Y-81321724D01*
X150839852Y-81321724D02*
X150839852Y-81442676D01*
X150114137Y-80172676D02*
X150053661Y-80293628D01*
X150053661Y-80293628D02*
X149993185Y-80354105D01*
X149993185Y-80354105D02*
X149872233Y-80414581D01*
X149872233Y-80414581D02*
X149811756Y-80414581D01*
X149811756Y-80414581D02*
X149690804Y-80354105D01*
X149690804Y-80354105D02*
X149630328Y-80293628D01*
X149630328Y-80293628D02*
X149569852Y-80172676D01*
X149569852Y-80172676D02*
X149569852Y-79930771D01*
X149569852Y-79930771D02*
X149630328Y-79809819D01*
X149630328Y-79809819D02*
X149690804Y-79749343D01*
X149690804Y-79749343D02*
X149811756Y-79688866D01*
X149811756Y-79688866D02*
X149872233Y-79688866D01*
X149872233Y-79688866D02*
X149993185Y-79749343D01*
X149993185Y-79749343D02*
X150053661Y-79809819D01*
X150053661Y-79809819D02*
X150114137Y-79930771D01*
X150114137Y-79930771D02*
X150114137Y-80172676D01*
X150114137Y-80172676D02*
X150174614Y-80293628D01*
X150174614Y-80293628D02*
X150235090Y-80354105D01*
X150235090Y-80354105D02*
X150356042Y-80414581D01*
X150356042Y-80414581D02*
X150597947Y-80414581D01*
X150597947Y-80414581D02*
X150718899Y-80354105D01*
X150718899Y-80354105D02*
X150779376Y-80293628D01*
X150779376Y-80293628D02*
X150839852Y-80172676D01*
X150839852Y-80172676D02*
X150839852Y-79930771D01*
X150839852Y-79930771D02*
X150779376Y-79809819D01*
X150779376Y-79809819D02*
X150718899Y-79749343D01*
X150718899Y-79749343D02*
X150597947Y-79688866D01*
X150597947Y-79688866D02*
X150356042Y-79688866D01*
X150356042Y-79688866D02*
X150235090Y-79749343D01*
X150235090Y-79749343D02*
X150174614Y-79809819D01*
X150174614Y-79809819D02*
X150114137Y-79930771D01*
X130689852Y-93458866D02*
X131596995Y-93458866D01*
X131596995Y-93458866D02*
X131778423Y-93519343D01*
X131778423Y-93519343D02*
X131899376Y-93640295D01*
X131899376Y-93640295D02*
X131959852Y-93821724D01*
X131959852Y-93821724D02*
X131959852Y-93942676D01*
X131959852Y-92188866D02*
X131959852Y-92914581D01*
X131959852Y-92551724D02*
X130689852Y-92551724D01*
X130689852Y-92551724D02*
X130871280Y-92672676D01*
X130871280Y-92672676D02*
X130992233Y-92793628D01*
X130992233Y-92793628D02*
X131052709Y-92914581D01*
D13*
X158384819Y-93666666D02*
X157908628Y-93999999D01*
X158384819Y-94238094D02*
X157384819Y-94238094D01*
X157384819Y-94238094D02*
X157384819Y-93857142D01*
X157384819Y-93857142D02*
X157432438Y-93761904D01*
X157432438Y-93761904D02*
X157480057Y-93714285D01*
X157480057Y-93714285D02*
X157575295Y-93666666D01*
X157575295Y-93666666D02*
X157718152Y-93666666D01*
X157718152Y-93666666D02*
X157813390Y-93714285D01*
X157813390Y-93714285D02*
X157861009Y-93761904D01*
X157861009Y-93761904D02*
X157908628Y-93857142D01*
X157908628Y-93857142D02*
X157908628Y-94238094D01*
X157480057Y-93285713D02*
X157432438Y-93238094D01*
X157432438Y-93238094D02*
X157384819Y-93142856D01*
X157384819Y-93142856D02*
X157384819Y-92904761D01*
X157384819Y-92904761D02*
X157432438Y-92809523D01*
X157432438Y-92809523D02*
X157480057Y-92761904D01*
X157480057Y-92761904D02*
X157575295Y-92714285D01*
X157575295Y-92714285D02*
X157670533Y-92714285D01*
X157670533Y-92714285D02*
X157813390Y-92761904D01*
X157813390Y-92761904D02*
X158384819Y-93333332D01*
X158384819Y-93333332D02*
X158384819Y-92714285D01*
D14*
X130689852Y-67263628D02*
X131596995Y-67263628D01*
X131596995Y-67263628D02*
X131778423Y-67324105D01*
X131778423Y-67324105D02*
X131899376Y-67445057D01*
X131899376Y-67445057D02*
X131959852Y-67626486D01*
X131959852Y-67626486D02*
X131959852Y-67747438D01*
X131959852Y-65993628D02*
X131959852Y-66719343D01*
X131959852Y-66356486D02*
X130689852Y-66356486D01*
X130689852Y-66356486D02*
X130871280Y-66477438D01*
X130871280Y-66477438D02*
X130992233Y-66598390D01*
X130992233Y-66598390D02*
X131052709Y-66719343D01*
X130689852Y-65207438D02*
X130689852Y-65086485D01*
X130689852Y-65086485D02*
X130750328Y-64965533D01*
X130750328Y-64965533D02*
X130810804Y-64905057D01*
X130810804Y-64905057D02*
X130931756Y-64844581D01*
X130931756Y-64844581D02*
X131173661Y-64784104D01*
X131173661Y-64784104D02*
X131476042Y-64784104D01*
X131476042Y-64784104D02*
X131717947Y-64844581D01*
X131717947Y-64844581D02*
X131838899Y-64905057D01*
X131838899Y-64905057D02*
X131899376Y-64965533D01*
X131899376Y-64965533D02*
X131959852Y-65086485D01*
X131959852Y-65086485D02*
X131959852Y-65207438D01*
X131959852Y-65207438D02*
X131899376Y-65328390D01*
X131899376Y-65328390D02*
X131838899Y-65388866D01*
X131838899Y-65388866D02*
X131717947Y-65449343D01*
X131717947Y-65449343D02*
X131476042Y-65509819D01*
X131476042Y-65509819D02*
X131173661Y-65509819D01*
X131173661Y-65509819D02*
X130931756Y-65449343D01*
X130931756Y-65449343D02*
X130810804Y-65388866D01*
X130810804Y-65388866D02*
X130750328Y-65328390D01*
X130750328Y-65328390D02*
X130689852Y-65207438D01*
D13*
X130683810Y-105553628D02*
X131140953Y-105553628D01*
X131140953Y-105553628D02*
X131232381Y-105584105D01*
X131232381Y-105584105D02*
X131293334Y-105645057D01*
X131293334Y-105645057D02*
X131323810Y-105736486D01*
X131323810Y-105736486D02*
X131323810Y-105797438D01*
X131323810Y-104913628D02*
X131323810Y-105279343D01*
X131323810Y-105096486D02*
X130683810Y-105096486D01*
X130683810Y-105096486D02*
X130775238Y-105157438D01*
X130775238Y-105157438D02*
X130836191Y-105218390D01*
X130836191Y-105218390D02*
X130866667Y-105279343D01*
X131323810Y-104304104D02*
X131323810Y-104669819D01*
X131323810Y-104486962D02*
X130683810Y-104486962D01*
X130683810Y-104486962D02*
X130775238Y-104547914D01*
X130775238Y-104547914D02*
X130836191Y-104608866D01*
X130836191Y-104608866D02*
X130866667Y-104669819D01*
X143833333Y-77954819D02*
X143500000Y-77478628D01*
X143261905Y-77954819D02*
X143261905Y-76954819D01*
X143261905Y-76954819D02*
X143642857Y-76954819D01*
X143642857Y-76954819D02*
X143738095Y-77002438D01*
X143738095Y-77002438D02*
X143785714Y-77050057D01*
X143785714Y-77050057D02*
X143833333Y-77145295D01*
X143833333Y-77145295D02*
X143833333Y-77288152D01*
X143833333Y-77288152D02*
X143785714Y-77383390D01*
X143785714Y-77383390D02*
X143738095Y-77431009D01*
X143738095Y-77431009D02*
X143642857Y-77478628D01*
X143642857Y-77478628D02*
X143261905Y-77478628D01*
X144309524Y-77954819D02*
X144500000Y-77954819D01*
X144500000Y-77954819D02*
X144595238Y-77907200D01*
X144595238Y-77907200D02*
X144642857Y-77859580D01*
X144642857Y-77859580D02*
X144738095Y-77716723D01*
X144738095Y-77716723D02*
X144785714Y-77526247D01*
X144785714Y-77526247D02*
X144785714Y-77145295D01*
X144785714Y-77145295D02*
X144738095Y-77050057D01*
X144738095Y-77050057D02*
X144690476Y-77002438D01*
X144690476Y-77002438D02*
X144595238Y-76954819D01*
X144595238Y-76954819D02*
X144404762Y-76954819D01*
X144404762Y-76954819D02*
X144309524Y-77002438D01*
X144309524Y-77002438D02*
X144261905Y-77050057D01*
X144261905Y-77050057D02*
X144214286Y-77145295D01*
X144214286Y-77145295D02*
X144214286Y-77383390D01*
X144214286Y-77383390D02*
X144261905Y-77478628D01*
X144261905Y-77478628D02*
X144309524Y-77526247D01*
X144309524Y-77526247D02*
X144404762Y-77573866D01*
X144404762Y-77573866D02*
X144595238Y-77573866D01*
X144595238Y-77573866D02*
X144690476Y-77526247D01*
X144690476Y-77526247D02*
X144738095Y-77478628D01*
X144738095Y-77478628D02*
X144785714Y-77383390D01*
X163773629Y-58560353D02*
X163773629Y-57560353D01*
X163773629Y-57560353D02*
X164011724Y-57560353D01*
X164011724Y-57560353D02*
X164154581Y-57607972D01*
X164154581Y-57607972D02*
X164249819Y-57703210D01*
X164249819Y-57703210D02*
X164297438Y-57798448D01*
X164297438Y-57798448D02*
X164345057Y-57988924D01*
X164345057Y-57988924D02*
X164345057Y-58131781D01*
X164345057Y-58131781D02*
X164297438Y-58322257D01*
X164297438Y-58322257D02*
X164249819Y-58417495D01*
X164249819Y-58417495D02*
X164154581Y-58512734D01*
X164154581Y-58512734D02*
X164011724Y-58560353D01*
X164011724Y-58560353D02*
X163773629Y-58560353D01*
X164773629Y-58560353D02*
X164773629Y-57560353D01*
X164773629Y-57560353D02*
X165345057Y-58560353D01*
X165345057Y-58560353D02*
X165345057Y-57560353D01*
X165821248Y-58560353D02*
X165821248Y-57560353D01*
X165821248Y-57560353D02*
X166202200Y-57560353D01*
X166202200Y-57560353D02*
X166297438Y-57607972D01*
X166297438Y-57607972D02*
X166345057Y-57655591D01*
X166345057Y-57655591D02*
X166392676Y-57750829D01*
X166392676Y-57750829D02*
X166392676Y-57893686D01*
X166392676Y-57893686D02*
X166345057Y-57988924D01*
X166345057Y-57988924D02*
X166297438Y-58036543D01*
X166297438Y-58036543D02*
X166202200Y-58084162D01*
X166202200Y-58084162D02*
X165821248Y-58084162D01*
X166726010Y-57560353D02*
X167345057Y-57560353D01*
X167345057Y-57560353D02*
X167011724Y-57941305D01*
X167011724Y-57941305D02*
X167154581Y-57941305D01*
X167154581Y-57941305D02*
X167249819Y-57988924D01*
X167249819Y-57988924D02*
X167297438Y-58036543D01*
X167297438Y-58036543D02*
X167345057Y-58131781D01*
X167345057Y-58131781D02*
X167345057Y-58369876D01*
X167345057Y-58369876D02*
X167297438Y-58465114D01*
X167297438Y-58465114D02*
X167249819Y-58512734D01*
X167249819Y-58512734D02*
X167154581Y-58560353D01*
X167154581Y-58560353D02*
X166868867Y-58560353D01*
X166868867Y-58560353D02*
X166773629Y-58512734D01*
X166773629Y-58512734D02*
X166726010Y-58465114D01*
D14*
X155276667Y-126504318D02*
X155276667Y-127411461D01*
X155276667Y-127411461D02*
X155216190Y-127592889D01*
X155216190Y-127592889D02*
X155095238Y-127713842D01*
X155095238Y-127713842D02*
X154913809Y-127774318D01*
X154913809Y-127774318D02*
X154792857Y-127774318D01*
X156425714Y-126927651D02*
X156425714Y-127774318D01*
X156123333Y-126443842D02*
X155820952Y-127350984D01*
X155820952Y-127350984D02*
X156607143Y-127350984D01*
D13*
X159333333Y-60859580D02*
X159285714Y-60907200D01*
X159285714Y-60907200D02*
X159142857Y-60954819D01*
X159142857Y-60954819D02*
X159047619Y-60954819D01*
X159047619Y-60954819D02*
X158904762Y-60907200D01*
X158904762Y-60907200D02*
X158809524Y-60811961D01*
X158809524Y-60811961D02*
X158761905Y-60716723D01*
X158761905Y-60716723D02*
X158714286Y-60526247D01*
X158714286Y-60526247D02*
X158714286Y-60383390D01*
X158714286Y-60383390D02*
X158761905Y-60192914D01*
X158761905Y-60192914D02*
X158809524Y-60097676D01*
X158809524Y-60097676D02*
X158904762Y-60002438D01*
X158904762Y-60002438D02*
X159047619Y-59954819D01*
X159047619Y-59954819D02*
X159142857Y-59954819D01*
X159142857Y-59954819D02*
X159285714Y-60002438D01*
X159285714Y-60002438D02*
X159333333Y-60050057D01*
X159666667Y-59954819D02*
X160285714Y-59954819D01*
X160285714Y-59954819D02*
X159952381Y-60335771D01*
X159952381Y-60335771D02*
X160095238Y-60335771D01*
X160095238Y-60335771D02*
X160190476Y-60383390D01*
X160190476Y-60383390D02*
X160238095Y-60431009D01*
X160238095Y-60431009D02*
X160285714Y-60526247D01*
X160285714Y-60526247D02*
X160285714Y-60764342D01*
X160285714Y-60764342D02*
X160238095Y-60859580D01*
X160238095Y-60859580D02*
X160190476Y-60907200D01*
X160190476Y-60907200D02*
X160095238Y-60954819D01*
X160095238Y-60954819D02*
X159809524Y-60954819D01*
X159809524Y-60954819D02*
X159714286Y-60907200D01*
X159714286Y-60907200D02*
X159666667Y-60859580D01*
X135238095Y-55454819D02*
X135238095Y-54454819D01*
X135238095Y-54931009D02*
X135809523Y-54931009D01*
X135809523Y-55454819D02*
X135809523Y-54454819D01*
X136809523Y-55454819D02*
X136238095Y-55454819D01*
X136523809Y-55454819D02*
X136523809Y-54454819D01*
X136523809Y-54454819D02*
X136428571Y-54597676D01*
X136428571Y-54597676D02*
X136333333Y-54692914D01*
X136333333Y-54692914D02*
X136238095Y-54740533D01*
X144702200Y-61490353D02*
X144702200Y-62204638D01*
X144702200Y-62204638D02*
X144654581Y-62347495D01*
X144654581Y-62347495D02*
X144559343Y-62442734D01*
X144559343Y-62442734D02*
X144416486Y-62490353D01*
X144416486Y-62490353D02*
X144321248Y-62490353D01*
X145083153Y-61490353D02*
X145749819Y-61490353D01*
X145749819Y-61490353D02*
X145321248Y-62490353D01*
D15*
X177416666Y-69611090D02*
X177392857Y-69634900D01*
X177392857Y-69634900D02*
X177321428Y-69658709D01*
X177321428Y-69658709D02*
X177273809Y-69658709D01*
X177273809Y-69658709D02*
X177202381Y-69634900D01*
X177202381Y-69634900D02*
X177154762Y-69587280D01*
X177154762Y-69587280D02*
X177130952Y-69539661D01*
X177130952Y-69539661D02*
X177107143Y-69444423D01*
X177107143Y-69444423D02*
X177107143Y-69372995D01*
X177107143Y-69372995D02*
X177130952Y-69277757D01*
X177130952Y-69277757D02*
X177154762Y-69230138D01*
X177154762Y-69230138D02*
X177202381Y-69182519D01*
X177202381Y-69182519D02*
X177273809Y-69158709D01*
X177273809Y-69158709D02*
X177321428Y-69158709D01*
X177321428Y-69158709D02*
X177392857Y-69182519D01*
X177392857Y-69182519D02*
X177416666Y-69206328D01*
X177654762Y-69658709D02*
X177750000Y-69658709D01*
X177750000Y-69658709D02*
X177797619Y-69634900D01*
X177797619Y-69634900D02*
X177821428Y-69611090D01*
X177821428Y-69611090D02*
X177869047Y-69539661D01*
X177869047Y-69539661D02*
X177892857Y-69444423D01*
X177892857Y-69444423D02*
X177892857Y-69253947D01*
X177892857Y-69253947D02*
X177869047Y-69206328D01*
X177869047Y-69206328D02*
X177845238Y-69182519D01*
X177845238Y-69182519D02*
X177797619Y-69158709D01*
X177797619Y-69158709D02*
X177702381Y-69158709D01*
X177702381Y-69158709D02*
X177654762Y-69182519D01*
X177654762Y-69182519D02*
X177630952Y-69206328D01*
X177630952Y-69206328D02*
X177607143Y-69253947D01*
X177607143Y-69253947D02*
X177607143Y-69372995D01*
X177607143Y-69372995D02*
X177630952Y-69420614D01*
X177630952Y-69420614D02*
X177654762Y-69444423D01*
X177654762Y-69444423D02*
X177702381Y-69468233D01*
X177702381Y-69468233D02*
X177797619Y-69468233D01*
X177797619Y-69468233D02*
X177845238Y-69444423D01*
X177845238Y-69444423D02*
X177869047Y-69420614D01*
X177869047Y-69420614D02*
X177892857Y-69372995D01*
D13*
X164392676Y-98560353D02*
X164059343Y-98084162D01*
X163821248Y-98560353D02*
X163821248Y-97560353D01*
X163821248Y-97560353D02*
X164202200Y-97560353D01*
X164202200Y-97560353D02*
X164297438Y-97607972D01*
X164297438Y-97607972D02*
X164345057Y-97655591D01*
X164345057Y-97655591D02*
X164392676Y-97750829D01*
X164392676Y-97750829D02*
X164392676Y-97893686D01*
X164392676Y-97893686D02*
X164345057Y-97988924D01*
X164345057Y-97988924D02*
X164297438Y-98036543D01*
X164297438Y-98036543D02*
X164202200Y-98084162D01*
X164202200Y-98084162D02*
X163821248Y-98084162D01*
X165345057Y-98560353D02*
X164773629Y-98560353D01*
X165059343Y-98560353D02*
X165059343Y-97560353D01*
X165059343Y-97560353D02*
X164964105Y-97703210D01*
X164964105Y-97703210D02*
X164868867Y-97798448D01*
X164868867Y-97798448D02*
X164773629Y-97846067D01*
X166249819Y-97560353D02*
X165773629Y-97560353D01*
X165773629Y-97560353D02*
X165726010Y-98036543D01*
X165726010Y-98036543D02*
X165773629Y-97988924D01*
X165773629Y-97988924D02*
X165868867Y-97941305D01*
X165868867Y-97941305D02*
X166106962Y-97941305D01*
X166106962Y-97941305D02*
X166202200Y-97988924D01*
X166202200Y-97988924D02*
X166249819Y-98036543D01*
X166249819Y-98036543D02*
X166297438Y-98131781D01*
X166297438Y-98131781D02*
X166297438Y-98369876D01*
X166297438Y-98369876D02*
X166249819Y-98465114D01*
X166249819Y-98465114D02*
X166202200Y-98512734D01*
X166202200Y-98512734D02*
X166106962Y-98560353D01*
X166106962Y-98560353D02*
X165868867Y-98560353D01*
X165868867Y-98560353D02*
X165773629Y-98512734D01*
X165773629Y-98512734D02*
X165726010Y-98465114D01*
X152334599Y-113675459D02*
X152972020Y-113675459D01*
X152972020Y-113675459D02*
X153047010Y-113637964D01*
X153047010Y-113637964D02*
X153084506Y-113600468D01*
X153084506Y-113600468D02*
X153122001Y-113525478D01*
X153122001Y-113525478D02*
X153122001Y-113375496D01*
X153122001Y-113375496D02*
X153084506Y-113300506D01*
X153084506Y-113300506D02*
X153047010Y-113263010D01*
X153047010Y-113263010D02*
X152972020Y-113225515D01*
X152972020Y-113225515D02*
X152334599Y-113225515D01*
X152597066Y-112513104D02*
X153122001Y-112513104D01*
X152297104Y-112700581D02*
X152859534Y-112888057D01*
X152859534Y-112888057D02*
X152859534Y-112400618D01*
X172238095Y-129954819D02*
X172238095Y-128954819D01*
X172238095Y-129431009D02*
X172809523Y-129431009D01*
X172809523Y-129954819D02*
X172809523Y-128954819D01*
X173714285Y-129288152D02*
X173714285Y-129954819D01*
X173476190Y-128907200D02*
X173238095Y-129621485D01*
X173238095Y-129621485D02*
X173857142Y-129621485D01*
D15*
X168416666Y-61681090D02*
X168392857Y-61704900D01*
X168392857Y-61704900D02*
X168321428Y-61728709D01*
X168321428Y-61728709D02*
X168273809Y-61728709D01*
X168273809Y-61728709D02*
X168202381Y-61704900D01*
X168202381Y-61704900D02*
X168154762Y-61657280D01*
X168154762Y-61657280D02*
X168130952Y-61609661D01*
X168130952Y-61609661D02*
X168107143Y-61514423D01*
X168107143Y-61514423D02*
X168107143Y-61442995D01*
X168107143Y-61442995D02*
X168130952Y-61347757D01*
X168130952Y-61347757D02*
X168154762Y-61300138D01*
X168154762Y-61300138D02*
X168202381Y-61252519D01*
X168202381Y-61252519D02*
X168273809Y-61228709D01*
X168273809Y-61228709D02*
X168321428Y-61228709D01*
X168321428Y-61228709D02*
X168392857Y-61252519D01*
X168392857Y-61252519D02*
X168416666Y-61276328D01*
X168845238Y-61395376D02*
X168845238Y-61728709D01*
X168726190Y-61204900D02*
X168607143Y-61562042D01*
X168607143Y-61562042D02*
X168916666Y-61562042D01*
D14*
X130689852Y-79258866D02*
X131596995Y-79258866D01*
X131596995Y-79258866D02*
X131778423Y-79319343D01*
X131778423Y-79319343D02*
X131899376Y-79440295D01*
X131899376Y-79440295D02*
X131959852Y-79621724D01*
X131959852Y-79621724D02*
X131959852Y-79742676D01*
X130810804Y-78714581D02*
X130750328Y-78654105D01*
X130750328Y-78654105D02*
X130689852Y-78533152D01*
X130689852Y-78533152D02*
X130689852Y-78230771D01*
X130689852Y-78230771D02*
X130750328Y-78109819D01*
X130750328Y-78109819D02*
X130810804Y-78049343D01*
X130810804Y-78049343D02*
X130931756Y-77988866D01*
X130931756Y-77988866D02*
X131052709Y-77988866D01*
X131052709Y-77988866D02*
X131234137Y-78049343D01*
X131234137Y-78049343D02*
X131959852Y-78775057D01*
X131959852Y-78775057D02*
X131959852Y-77988866D01*
D13*
X135238095Y-129954819D02*
X135238095Y-128954819D01*
X135238095Y-129431009D02*
X135809523Y-129431009D01*
X135809523Y-129954819D02*
X135809523Y-128954819D01*
X136190476Y-128954819D02*
X136809523Y-128954819D01*
X136809523Y-128954819D02*
X136476190Y-129335771D01*
X136476190Y-129335771D02*
X136619047Y-129335771D01*
X136619047Y-129335771D02*
X136714285Y-129383390D01*
X136714285Y-129383390D02*
X136761904Y-129431009D01*
X136761904Y-129431009D02*
X136809523Y-129526247D01*
X136809523Y-129526247D02*
X136809523Y-129764342D01*
X136809523Y-129764342D02*
X136761904Y-129859580D01*
X136761904Y-129859580D02*
X136714285Y-129907200D01*
X136714285Y-129907200D02*
X136619047Y-129954819D01*
X136619047Y-129954819D02*
X136333333Y-129954819D01*
X136333333Y-129954819D02*
X136238095Y-129907200D01*
X136238095Y-129907200D02*
X136190476Y-129859580D01*
X166123867Y-75098810D02*
X165910533Y-74794048D01*
X165758152Y-75098810D02*
X165758152Y-74458810D01*
X165758152Y-74458810D02*
X166001962Y-74458810D01*
X166001962Y-74458810D02*
X166062914Y-74489286D01*
X166062914Y-74489286D02*
X166093391Y-74519762D01*
X166093391Y-74519762D02*
X166123867Y-74580714D01*
X166123867Y-74580714D02*
X166123867Y-74672143D01*
X166123867Y-74672143D02*
X166093391Y-74733095D01*
X166093391Y-74733095D02*
X166062914Y-74763572D01*
X166062914Y-74763572D02*
X166001962Y-74794048D01*
X166001962Y-74794048D02*
X165758152Y-74794048D01*
X166672438Y-74458810D02*
X166550533Y-74458810D01*
X166550533Y-74458810D02*
X166489581Y-74489286D01*
X166489581Y-74489286D02*
X166459105Y-74519762D01*
X166459105Y-74519762D02*
X166398152Y-74611191D01*
X166398152Y-74611191D02*
X166367676Y-74733095D01*
X166367676Y-74733095D02*
X166367676Y-74976905D01*
X166367676Y-74976905D02*
X166398152Y-75037857D01*
X166398152Y-75037857D02*
X166428629Y-75068334D01*
X166428629Y-75068334D02*
X166489581Y-75098810D01*
X166489581Y-75098810D02*
X166611486Y-75098810D01*
X166611486Y-75098810D02*
X166672438Y-75068334D01*
X166672438Y-75068334D02*
X166702914Y-75037857D01*
X166702914Y-75037857D02*
X166733391Y-74976905D01*
X166733391Y-74976905D02*
X166733391Y-74824524D01*
X166733391Y-74824524D02*
X166702914Y-74763572D01*
X166702914Y-74763572D02*
X166672438Y-74733095D01*
X166672438Y-74733095D02*
X166611486Y-74702619D01*
X166611486Y-74702619D02*
X166489581Y-74702619D01*
X166489581Y-74702619D02*
X166428629Y-74733095D01*
X166428629Y-74733095D02*
X166398152Y-74763572D01*
X166398152Y-74763572D02*
X166367676Y-74824524D01*
D14*
X130689852Y-117758866D02*
X131596995Y-117758866D01*
X131596995Y-117758866D02*
X131778423Y-117819343D01*
X131778423Y-117819343D02*
X131899376Y-117940295D01*
X131899376Y-117940295D02*
X131959852Y-118121724D01*
X131959852Y-118121724D02*
X131959852Y-118242676D01*
X130689852Y-117275057D02*
X130689852Y-116488866D01*
X130689852Y-116488866D02*
X131173661Y-116912200D01*
X131173661Y-116912200D02*
X131173661Y-116730771D01*
X131173661Y-116730771D02*
X131234137Y-116609819D01*
X131234137Y-116609819D02*
X131294614Y-116549343D01*
X131294614Y-116549343D02*
X131415566Y-116488866D01*
X131415566Y-116488866D02*
X131717947Y-116488866D01*
X131717947Y-116488866D02*
X131838899Y-116549343D01*
X131838899Y-116549343D02*
X131899376Y-116609819D01*
X131899376Y-116609819D02*
X131959852Y-116730771D01*
X131959852Y-116730771D02*
X131959852Y-117093628D01*
X131959852Y-117093628D02*
X131899376Y-117214581D01*
X131899376Y-117214581D02*
X131838899Y-117275057D01*
D13*
X163093810Y-74292200D02*
X162789048Y-74505534D01*
X163093810Y-74657915D02*
X162453810Y-74657915D01*
X162453810Y-74657915D02*
X162453810Y-74414105D01*
X162453810Y-74414105D02*
X162484286Y-74353153D01*
X162484286Y-74353153D02*
X162514762Y-74322676D01*
X162514762Y-74322676D02*
X162575714Y-74292200D01*
X162575714Y-74292200D02*
X162667143Y-74292200D01*
X162667143Y-74292200D02*
X162728095Y-74322676D01*
X162728095Y-74322676D02*
X162758572Y-74353153D01*
X162758572Y-74353153D02*
X162789048Y-74414105D01*
X162789048Y-74414105D02*
X162789048Y-74657915D01*
X162453810Y-73713153D02*
X162453810Y-74017915D01*
X162453810Y-74017915D02*
X162758572Y-74048391D01*
X162758572Y-74048391D02*
X162728095Y-74017915D01*
X162728095Y-74017915D02*
X162697619Y-73956962D01*
X162697619Y-73956962D02*
X162697619Y-73804581D01*
X162697619Y-73804581D02*
X162728095Y-73743629D01*
X162728095Y-73743629D02*
X162758572Y-73713153D01*
X162758572Y-73713153D02*
X162819524Y-73682676D01*
X162819524Y-73682676D02*
X162971905Y-73682676D01*
X162971905Y-73682676D02*
X163032857Y-73713153D01*
X163032857Y-73713153D02*
X163063334Y-73743629D01*
X163063334Y-73743629D02*
X163093810Y-73804581D01*
X163093810Y-73804581D02*
X163093810Y-73956962D01*
X163093810Y-73956962D02*
X163063334Y-74017915D01*
X163063334Y-74017915D02*
X163032857Y-74048391D01*
D15*
X178416666Y-66181090D02*
X178392857Y-66204900D01*
X178392857Y-66204900D02*
X178321428Y-66228709D01*
X178321428Y-66228709D02*
X178273809Y-66228709D01*
X178273809Y-66228709D02*
X178202381Y-66204900D01*
X178202381Y-66204900D02*
X178154762Y-66157280D01*
X178154762Y-66157280D02*
X178130952Y-66109661D01*
X178130952Y-66109661D02*
X178107143Y-66014423D01*
X178107143Y-66014423D02*
X178107143Y-65942995D01*
X178107143Y-65942995D02*
X178130952Y-65847757D01*
X178130952Y-65847757D02*
X178154762Y-65800138D01*
X178154762Y-65800138D02*
X178202381Y-65752519D01*
X178202381Y-65752519D02*
X178273809Y-65728709D01*
X178273809Y-65728709D02*
X178321428Y-65728709D01*
X178321428Y-65728709D02*
X178392857Y-65752519D01*
X178392857Y-65752519D02*
X178416666Y-65776328D01*
X178845238Y-65728709D02*
X178750000Y-65728709D01*
X178750000Y-65728709D02*
X178702381Y-65752519D01*
X178702381Y-65752519D02*
X178678571Y-65776328D01*
X178678571Y-65776328D02*
X178630952Y-65847757D01*
X178630952Y-65847757D02*
X178607143Y-65942995D01*
X178607143Y-65942995D02*
X178607143Y-66133471D01*
X178607143Y-66133471D02*
X178630952Y-66181090D01*
X178630952Y-66181090D02*
X178654762Y-66204900D01*
X178654762Y-66204900D02*
X178702381Y-66228709D01*
X178702381Y-66228709D02*
X178797619Y-66228709D01*
X178797619Y-66228709D02*
X178845238Y-66204900D01*
X178845238Y-66204900D02*
X178869047Y-66181090D01*
X178869047Y-66181090D02*
X178892857Y-66133471D01*
X178892857Y-66133471D02*
X178892857Y-66014423D01*
X178892857Y-66014423D02*
X178869047Y-65966804D01*
X178869047Y-65966804D02*
X178845238Y-65942995D01*
X178845238Y-65942995D02*
X178797619Y-65919185D01*
X178797619Y-65919185D02*
X178702381Y-65919185D01*
X178702381Y-65919185D02*
X178654762Y-65942995D01*
X178654762Y-65942995D02*
X178630952Y-65966804D01*
X178630952Y-65966804D02*
X178607143Y-66014423D01*
X176916666Y-62751090D02*
X176892857Y-62774900D01*
X176892857Y-62774900D02*
X176821428Y-62798709D01*
X176821428Y-62798709D02*
X176773809Y-62798709D01*
X176773809Y-62798709D02*
X176702381Y-62774900D01*
X176702381Y-62774900D02*
X176654762Y-62727280D01*
X176654762Y-62727280D02*
X176630952Y-62679661D01*
X176630952Y-62679661D02*
X176607143Y-62584423D01*
X176607143Y-62584423D02*
X176607143Y-62512995D01*
X176607143Y-62512995D02*
X176630952Y-62417757D01*
X176630952Y-62417757D02*
X176654762Y-62370138D01*
X176654762Y-62370138D02*
X176702381Y-62322519D01*
X176702381Y-62322519D02*
X176773809Y-62298709D01*
X176773809Y-62298709D02*
X176821428Y-62298709D01*
X176821428Y-62298709D02*
X176892857Y-62322519D01*
X176892857Y-62322519D02*
X176916666Y-62346328D01*
X177083333Y-62298709D02*
X177416666Y-62298709D01*
X177416666Y-62298709D02*
X177202381Y-62798709D01*
D14*
X175069852Y-119238866D02*
X175976995Y-119238866D01*
X175976995Y-119238866D02*
X176158423Y-119299343D01*
X176158423Y-119299343D02*
X176279376Y-119420295D01*
X176279376Y-119420295D02*
X176339852Y-119601724D01*
X176339852Y-119601724D02*
X176339852Y-119722676D01*
X176339852Y-118573628D02*
X176339852Y-118331724D01*
X176339852Y-118331724D02*
X176279376Y-118210771D01*
X176279376Y-118210771D02*
X176218899Y-118150295D01*
X176218899Y-118150295D02*
X176037471Y-118029343D01*
X176037471Y-118029343D02*
X175795566Y-117968866D01*
X175795566Y-117968866D02*
X175311756Y-117968866D01*
X175311756Y-117968866D02*
X175190804Y-118029343D01*
X175190804Y-118029343D02*
X175130328Y-118089819D01*
X175130328Y-118089819D02*
X175069852Y-118210771D01*
X175069852Y-118210771D02*
X175069852Y-118452676D01*
X175069852Y-118452676D02*
X175130328Y-118573628D01*
X175130328Y-118573628D02*
X175190804Y-118634105D01*
X175190804Y-118634105D02*
X175311756Y-118694581D01*
X175311756Y-118694581D02*
X175614137Y-118694581D01*
X175614137Y-118694581D02*
X175735090Y-118634105D01*
X175735090Y-118634105D02*
X175795566Y-118573628D01*
X175795566Y-118573628D02*
X175856042Y-118452676D01*
X175856042Y-118452676D02*
X175856042Y-118210771D01*
X175856042Y-118210771D02*
X175795566Y-118089819D01*
X175795566Y-118089819D02*
X175735090Y-118029343D01*
X175735090Y-118029343D02*
X175614137Y-117968866D01*
D15*
X171416666Y-60728709D02*
X171250000Y-60490614D01*
X171130952Y-60728709D02*
X171130952Y-60228709D01*
X171130952Y-60228709D02*
X171321428Y-60228709D01*
X171321428Y-60228709D02*
X171369047Y-60252519D01*
X171369047Y-60252519D02*
X171392857Y-60276328D01*
X171392857Y-60276328D02*
X171416666Y-60323947D01*
X171416666Y-60323947D02*
X171416666Y-60395376D01*
X171416666Y-60395376D02*
X171392857Y-60442995D01*
X171392857Y-60442995D02*
X171369047Y-60466804D01*
X171369047Y-60466804D02*
X171321428Y-60490614D01*
X171321428Y-60490614D02*
X171130952Y-60490614D01*
X171583333Y-60228709D02*
X171916666Y-60228709D01*
X171916666Y-60228709D02*
X171702381Y-60728709D01*
D13*
X161248867Y-88575114D02*
X161201248Y-88622734D01*
X161201248Y-88622734D02*
X161058391Y-88670353D01*
X161058391Y-88670353D02*
X160963153Y-88670353D01*
X160963153Y-88670353D02*
X160820296Y-88622734D01*
X160820296Y-88622734D02*
X160725058Y-88527495D01*
X160725058Y-88527495D02*
X160677439Y-88432257D01*
X160677439Y-88432257D02*
X160629820Y-88241781D01*
X160629820Y-88241781D02*
X160629820Y-88098924D01*
X160629820Y-88098924D02*
X160677439Y-87908448D01*
X160677439Y-87908448D02*
X160725058Y-87813210D01*
X160725058Y-87813210D02*
X160820296Y-87717972D01*
X160820296Y-87717972D02*
X160963153Y-87670353D01*
X160963153Y-87670353D02*
X161058391Y-87670353D01*
X161058391Y-87670353D02*
X161201248Y-87717972D01*
X161201248Y-87717972D02*
X161248867Y-87765591D01*
X162201248Y-88670353D02*
X161629820Y-88670353D01*
X161915534Y-88670353D02*
X161915534Y-87670353D01*
X161915534Y-87670353D02*
X161820296Y-87813210D01*
X161820296Y-87813210D02*
X161725058Y-87908448D01*
X161725058Y-87908448D02*
X161629820Y-87956067D01*
X152357142Y-77454819D02*
X152023809Y-76978628D01*
X151785714Y-77454819D02*
X151785714Y-76454819D01*
X151785714Y-76454819D02*
X152166666Y-76454819D01*
X152166666Y-76454819D02*
X152261904Y-76502438D01*
X152261904Y-76502438D02*
X152309523Y-76550057D01*
X152309523Y-76550057D02*
X152357142Y-76645295D01*
X152357142Y-76645295D02*
X152357142Y-76788152D01*
X152357142Y-76788152D02*
X152309523Y-76883390D01*
X152309523Y-76883390D02*
X152261904Y-76931009D01*
X152261904Y-76931009D02*
X152166666Y-76978628D01*
X152166666Y-76978628D02*
X151785714Y-76978628D01*
X153309523Y-77454819D02*
X152738095Y-77454819D01*
X153023809Y-77454819D02*
X153023809Y-76454819D01*
X153023809Y-76454819D02*
X152928571Y-76597676D01*
X152928571Y-76597676D02*
X152833333Y-76692914D01*
X152833333Y-76692914D02*
X152738095Y-76740533D01*
X154261904Y-77454819D02*
X153690476Y-77454819D01*
X153976190Y-77454819D02*
X153976190Y-76454819D01*
X153976190Y-76454819D02*
X153880952Y-76597676D01*
X153880952Y-76597676D02*
X153785714Y-76692914D01*
X153785714Y-76692914D02*
X153690476Y-76740533D01*
X169503867Y-96420353D02*
X169170534Y-95944162D01*
X168932439Y-96420353D02*
X168932439Y-95420353D01*
X168932439Y-95420353D02*
X169313391Y-95420353D01*
X169313391Y-95420353D02*
X169408629Y-95467972D01*
X169408629Y-95467972D02*
X169456248Y-95515591D01*
X169456248Y-95515591D02*
X169503867Y-95610829D01*
X169503867Y-95610829D02*
X169503867Y-95753686D01*
X169503867Y-95753686D02*
X169456248Y-95848924D01*
X169456248Y-95848924D02*
X169408629Y-95896543D01*
X169408629Y-95896543D02*
X169313391Y-95944162D01*
X169313391Y-95944162D02*
X168932439Y-95944162D01*
X170075296Y-95848924D02*
X169980058Y-95801305D01*
X169980058Y-95801305D02*
X169932439Y-95753686D01*
X169932439Y-95753686D02*
X169884820Y-95658448D01*
X169884820Y-95658448D02*
X169884820Y-95610829D01*
X169884820Y-95610829D02*
X169932439Y-95515591D01*
X169932439Y-95515591D02*
X169980058Y-95467972D01*
X169980058Y-95467972D02*
X170075296Y-95420353D01*
X170075296Y-95420353D02*
X170265772Y-95420353D01*
X170265772Y-95420353D02*
X170361010Y-95467972D01*
X170361010Y-95467972D02*
X170408629Y-95515591D01*
X170408629Y-95515591D02*
X170456248Y-95610829D01*
X170456248Y-95610829D02*
X170456248Y-95658448D01*
X170456248Y-95658448D02*
X170408629Y-95753686D01*
X170408629Y-95753686D02*
X170361010Y-95801305D01*
X170361010Y-95801305D02*
X170265772Y-95848924D01*
X170265772Y-95848924D02*
X170075296Y-95848924D01*
X170075296Y-95848924D02*
X169980058Y-95896543D01*
X169980058Y-95896543D02*
X169932439Y-95944162D01*
X169932439Y-95944162D02*
X169884820Y-96039400D01*
X169884820Y-96039400D02*
X169884820Y-96229876D01*
X169884820Y-96229876D02*
X169932439Y-96325114D01*
X169932439Y-96325114D02*
X169980058Y-96372734D01*
X169980058Y-96372734D02*
X170075296Y-96420353D01*
X170075296Y-96420353D02*
X170265772Y-96420353D01*
X170265772Y-96420353D02*
X170361010Y-96372734D01*
X170361010Y-96372734D02*
X170408629Y-96325114D01*
X170408629Y-96325114D02*
X170456248Y-96229876D01*
X170456248Y-96229876D02*
X170456248Y-96039400D01*
X170456248Y-96039400D02*
X170408629Y-95944162D01*
X170408629Y-95944162D02*
X170361010Y-95896543D01*
X170361010Y-95896543D02*
X170265772Y-95848924D01*
X168773629Y-67490353D02*
X168773629Y-68299876D01*
X168773629Y-68299876D02*
X168821248Y-68395114D01*
X168821248Y-68395114D02*
X168868867Y-68442734D01*
X168868867Y-68442734D02*
X168964105Y-68490353D01*
X168964105Y-68490353D02*
X169154581Y-68490353D01*
X169154581Y-68490353D02*
X169249819Y-68442734D01*
X169249819Y-68442734D02*
X169297438Y-68395114D01*
X169297438Y-68395114D02*
X169345057Y-68299876D01*
X169345057Y-68299876D02*
X169345057Y-67490353D01*
X169726010Y-67490353D02*
X170345057Y-67490353D01*
X170345057Y-67490353D02*
X170011724Y-67871305D01*
X170011724Y-67871305D02*
X170154581Y-67871305D01*
X170154581Y-67871305D02*
X170249819Y-67918924D01*
X170249819Y-67918924D02*
X170297438Y-67966543D01*
X170297438Y-67966543D02*
X170345057Y-68061781D01*
X170345057Y-68061781D02*
X170345057Y-68299876D01*
X170345057Y-68299876D02*
X170297438Y-68395114D01*
X170297438Y-68395114D02*
X170249819Y-68442734D01*
X170249819Y-68442734D02*
X170154581Y-68490353D01*
X170154581Y-68490353D02*
X169868867Y-68490353D01*
X169868867Y-68490353D02*
X169773629Y-68442734D01*
X169773629Y-68442734D02*
X169726010Y-68395114D01*
X152773629Y-58560353D02*
X152773629Y-57560353D01*
X152773629Y-57560353D02*
X153011724Y-57560353D01*
X153011724Y-57560353D02*
X153154581Y-57607972D01*
X153154581Y-57607972D02*
X153249819Y-57703210D01*
X153249819Y-57703210D02*
X153297438Y-57798448D01*
X153297438Y-57798448D02*
X153345057Y-57988924D01*
X153345057Y-57988924D02*
X153345057Y-58131781D01*
X153345057Y-58131781D02*
X153297438Y-58322257D01*
X153297438Y-58322257D02*
X153249819Y-58417495D01*
X153249819Y-58417495D02*
X153154581Y-58512734D01*
X153154581Y-58512734D02*
X153011724Y-58560353D01*
X153011724Y-58560353D02*
X152773629Y-58560353D01*
X153773629Y-58560353D02*
X153773629Y-57560353D01*
X153773629Y-57560353D02*
X154345057Y-58560353D01*
X154345057Y-58560353D02*
X154345057Y-57560353D01*
X154821248Y-58560353D02*
X154821248Y-57560353D01*
X154821248Y-57560353D02*
X155202200Y-57560353D01*
X155202200Y-57560353D02*
X155297438Y-57607972D01*
X155297438Y-57607972D02*
X155345057Y-57655591D01*
X155345057Y-57655591D02*
X155392676Y-57750829D01*
X155392676Y-57750829D02*
X155392676Y-57893686D01*
X155392676Y-57893686D02*
X155345057Y-57988924D01*
X155345057Y-57988924D02*
X155297438Y-58036543D01*
X155297438Y-58036543D02*
X155202200Y-58084162D01*
X155202200Y-58084162D02*
X154821248Y-58084162D01*
X156345057Y-58560353D02*
X155773629Y-58560353D01*
X156059343Y-58560353D02*
X156059343Y-57560353D01*
X156059343Y-57560353D02*
X155964105Y-57703210D01*
X155964105Y-57703210D02*
X155868867Y-57798448D01*
X155868867Y-57798448D02*
X155773629Y-57846067D01*
X152773629Y-62920353D02*
X152773629Y-61920353D01*
X152773629Y-61920353D02*
X153011724Y-61920353D01*
X153011724Y-61920353D02*
X153154581Y-61967972D01*
X153154581Y-61967972D02*
X153249819Y-62063210D01*
X153249819Y-62063210D02*
X153297438Y-62158448D01*
X153297438Y-62158448D02*
X153345057Y-62348924D01*
X153345057Y-62348924D02*
X153345057Y-62491781D01*
X153345057Y-62491781D02*
X153297438Y-62682257D01*
X153297438Y-62682257D02*
X153249819Y-62777495D01*
X153249819Y-62777495D02*
X153154581Y-62872734D01*
X153154581Y-62872734D02*
X153011724Y-62920353D01*
X153011724Y-62920353D02*
X152773629Y-62920353D01*
X153773629Y-62920353D02*
X153773629Y-61920353D01*
X153773629Y-61920353D02*
X154345057Y-62920353D01*
X154345057Y-62920353D02*
X154345057Y-61920353D01*
X154821248Y-62920353D02*
X154821248Y-61920353D01*
X154821248Y-61920353D02*
X155202200Y-61920353D01*
X155202200Y-61920353D02*
X155297438Y-61967972D01*
X155297438Y-61967972D02*
X155345057Y-62015591D01*
X155345057Y-62015591D02*
X155392676Y-62110829D01*
X155392676Y-62110829D02*
X155392676Y-62253686D01*
X155392676Y-62253686D02*
X155345057Y-62348924D01*
X155345057Y-62348924D02*
X155297438Y-62396543D01*
X155297438Y-62396543D02*
X155202200Y-62444162D01*
X155202200Y-62444162D02*
X154821248Y-62444162D01*
X155773629Y-62015591D02*
X155821248Y-61967972D01*
X155821248Y-61967972D02*
X155916486Y-61920353D01*
X155916486Y-61920353D02*
X156154581Y-61920353D01*
X156154581Y-61920353D02*
X156249819Y-61967972D01*
X156249819Y-61967972D02*
X156297438Y-62015591D01*
X156297438Y-62015591D02*
X156345057Y-62110829D01*
X156345057Y-62110829D02*
X156345057Y-62206067D01*
X156345057Y-62206067D02*
X156297438Y-62348924D01*
X156297438Y-62348924D02*
X155726010Y-62920353D01*
X155726010Y-62920353D02*
X156345057Y-62920353D01*
X161223867Y-92825114D02*
X161176248Y-92872734D01*
X161176248Y-92872734D02*
X161033391Y-92920353D01*
X161033391Y-92920353D02*
X160938153Y-92920353D01*
X160938153Y-92920353D02*
X160795296Y-92872734D01*
X160795296Y-92872734D02*
X160700058Y-92777495D01*
X160700058Y-92777495D02*
X160652439Y-92682257D01*
X160652439Y-92682257D02*
X160604820Y-92491781D01*
X160604820Y-92491781D02*
X160604820Y-92348924D01*
X160604820Y-92348924D02*
X160652439Y-92158448D01*
X160652439Y-92158448D02*
X160700058Y-92063210D01*
X160700058Y-92063210D02*
X160795296Y-91967972D01*
X160795296Y-91967972D02*
X160938153Y-91920353D01*
X160938153Y-91920353D02*
X161033391Y-91920353D01*
X161033391Y-91920353D02*
X161176248Y-91967972D01*
X161176248Y-91967972D02*
X161223867Y-92015591D01*
X161604820Y-92015591D02*
X161652439Y-91967972D01*
X161652439Y-91967972D02*
X161747677Y-91920353D01*
X161747677Y-91920353D02*
X161985772Y-91920353D01*
X161985772Y-91920353D02*
X162081010Y-91967972D01*
X162081010Y-91967972D02*
X162128629Y-92015591D01*
X162128629Y-92015591D02*
X162176248Y-92110829D01*
X162176248Y-92110829D02*
X162176248Y-92206067D01*
X162176248Y-92206067D02*
X162128629Y-92348924D01*
X162128629Y-92348924D02*
X161557201Y-92920353D01*
X161557201Y-92920353D02*
X162176248Y-92920353D01*
D14*
X147946667Y-126814318D02*
X147946667Y-127721461D01*
X147946667Y-127721461D02*
X147886190Y-127902889D01*
X147886190Y-127902889D02*
X147765238Y-128023842D01*
X147765238Y-128023842D02*
X147583809Y-128084318D01*
X147583809Y-128084318D02*
X147462857Y-128084318D01*
X149095714Y-126814318D02*
X148853809Y-126814318D01*
X148853809Y-126814318D02*
X148732857Y-126874794D01*
X148732857Y-126874794D02*
X148672381Y-126935270D01*
X148672381Y-126935270D02*
X148551428Y-127116699D01*
X148551428Y-127116699D02*
X148490952Y-127358603D01*
X148490952Y-127358603D02*
X148490952Y-127842413D01*
X148490952Y-127842413D02*
X148551428Y-127963365D01*
X148551428Y-127963365D02*
X148611905Y-128023842D01*
X148611905Y-128023842D02*
X148732857Y-128084318D01*
X148732857Y-128084318D02*
X148974762Y-128084318D01*
X148974762Y-128084318D02*
X149095714Y-128023842D01*
X149095714Y-128023842D02*
X149156190Y-127963365D01*
X149156190Y-127963365D02*
X149216667Y-127842413D01*
X149216667Y-127842413D02*
X149216667Y-127540032D01*
X149216667Y-127540032D02*
X149156190Y-127419080D01*
X149156190Y-127419080D02*
X149095714Y-127358603D01*
X149095714Y-127358603D02*
X148974762Y-127298127D01*
X148974762Y-127298127D02*
X148732857Y-127298127D01*
X148732857Y-127298127D02*
X148611905Y-127358603D01*
X148611905Y-127358603D02*
X148551428Y-127419080D01*
X148551428Y-127419080D02*
X148490952Y-127540032D01*
D13*
X171738095Y-55454819D02*
X171738095Y-54454819D01*
X171738095Y-54931009D02*
X172309523Y-54931009D01*
X172309523Y-55454819D02*
X172309523Y-54454819D01*
X172738095Y-54550057D02*
X172785714Y-54502438D01*
X172785714Y-54502438D02*
X172880952Y-54454819D01*
X172880952Y-54454819D02*
X173119047Y-54454819D01*
X173119047Y-54454819D02*
X173214285Y-54502438D01*
X173214285Y-54502438D02*
X173261904Y-54550057D01*
X173261904Y-54550057D02*
X173309523Y-54645295D01*
X173309523Y-54645295D02*
X173309523Y-54740533D01*
X173309523Y-54740533D02*
X173261904Y-54883390D01*
X173261904Y-54883390D02*
X172690476Y-55454819D01*
X172690476Y-55454819D02*
X173309523Y-55454819D01*
X171392676Y-98560353D02*
X171059343Y-98084162D01*
X170821248Y-98560353D02*
X170821248Y-97560353D01*
X170821248Y-97560353D02*
X171202200Y-97560353D01*
X171202200Y-97560353D02*
X171297438Y-97607972D01*
X171297438Y-97607972D02*
X171345057Y-97655591D01*
X171345057Y-97655591D02*
X171392676Y-97750829D01*
X171392676Y-97750829D02*
X171392676Y-97893686D01*
X171392676Y-97893686D02*
X171345057Y-97988924D01*
X171345057Y-97988924D02*
X171297438Y-98036543D01*
X171297438Y-98036543D02*
X171202200Y-98084162D01*
X171202200Y-98084162D02*
X170821248Y-98084162D01*
X172345057Y-98560353D02*
X171773629Y-98560353D01*
X172059343Y-98560353D02*
X172059343Y-97560353D01*
X172059343Y-97560353D02*
X171964105Y-97703210D01*
X171964105Y-97703210D02*
X171868867Y-97798448D01*
X171868867Y-97798448D02*
X171773629Y-97846067D01*
X173202200Y-97893686D02*
X173202200Y-98560353D01*
X172964105Y-97512734D02*
X172726010Y-98227019D01*
X172726010Y-98227019D02*
X173345057Y-98227019D01*
D15*
X164416666Y-67549243D02*
X164250000Y-67311148D01*
X164130952Y-67549243D02*
X164130952Y-67049243D01*
X164130952Y-67049243D02*
X164321428Y-67049243D01*
X164321428Y-67049243D02*
X164369047Y-67073053D01*
X164369047Y-67073053D02*
X164392857Y-67096862D01*
X164392857Y-67096862D02*
X164416666Y-67144481D01*
X164416666Y-67144481D02*
X164416666Y-67215910D01*
X164416666Y-67215910D02*
X164392857Y-67263529D01*
X164392857Y-67263529D02*
X164369047Y-67287338D01*
X164369047Y-67287338D02*
X164321428Y-67311148D01*
X164321428Y-67311148D02*
X164130952Y-67311148D01*
X164583333Y-67049243D02*
X164892857Y-67049243D01*
X164892857Y-67049243D02*
X164726190Y-67239719D01*
X164726190Y-67239719D02*
X164797619Y-67239719D01*
X164797619Y-67239719D02*
X164845238Y-67263529D01*
X164845238Y-67263529D02*
X164869047Y-67287338D01*
X164869047Y-67287338D02*
X164892857Y-67334957D01*
X164892857Y-67334957D02*
X164892857Y-67454005D01*
X164892857Y-67454005D02*
X164869047Y-67501624D01*
X164869047Y-67501624D02*
X164845238Y-67525434D01*
X164845238Y-67525434D02*
X164797619Y-67549243D01*
X164797619Y-67549243D02*
X164654762Y-67549243D01*
X164654762Y-67549243D02*
X164607143Y-67525434D01*
X164607143Y-67525434D02*
X164583333Y-67501624D01*
D13*
X142857142Y-79954819D02*
X142523809Y-79478628D01*
X142285714Y-79954819D02*
X142285714Y-78954819D01*
X142285714Y-78954819D02*
X142666666Y-78954819D01*
X142666666Y-78954819D02*
X142761904Y-79002438D01*
X142761904Y-79002438D02*
X142809523Y-79050057D01*
X142809523Y-79050057D02*
X142857142Y-79145295D01*
X142857142Y-79145295D02*
X142857142Y-79288152D01*
X142857142Y-79288152D02*
X142809523Y-79383390D01*
X142809523Y-79383390D02*
X142761904Y-79431009D01*
X142761904Y-79431009D02*
X142666666Y-79478628D01*
X142666666Y-79478628D02*
X142285714Y-79478628D01*
X143809523Y-79954819D02*
X143238095Y-79954819D01*
X143523809Y-79954819D02*
X143523809Y-78954819D01*
X143523809Y-78954819D02*
X143428571Y-79097676D01*
X143428571Y-79097676D02*
X143333333Y-79192914D01*
X143333333Y-79192914D02*
X143238095Y-79240533D01*
X144190476Y-79050057D02*
X144238095Y-79002438D01*
X144238095Y-79002438D02*
X144333333Y-78954819D01*
X144333333Y-78954819D02*
X144571428Y-78954819D01*
X144571428Y-78954819D02*
X144666666Y-79002438D01*
X144666666Y-79002438D02*
X144714285Y-79050057D01*
X144714285Y-79050057D02*
X144761904Y-79145295D01*
X144761904Y-79145295D02*
X144761904Y-79240533D01*
X144761904Y-79240533D02*
X144714285Y-79383390D01*
X144714285Y-79383390D02*
X144142857Y-79954819D01*
X144142857Y-79954819D02*
X144761904Y-79954819D01*
D16*
%TO.C,R1*%
X156437742Y-89477500D02*
X156912258Y-89477500D01*
X156437742Y-90522500D02*
X156912258Y-90522500D01*
D17*
%TO.C,Q2*%
X170020534Y-123965534D02*
X169865534Y-123965534D01*
X169865534Y-123965534D02*
X169865534Y-123635534D01*
X169865534Y-122365534D02*
X169865534Y-122695534D01*
X169865534Y-122365534D02*
X170020534Y-122365534D01*
D11*
X172290534Y-123665534D02*
G75*
G02*
X172090534Y-123665534I-100000J0D01*
G01*
X172090534Y-123665534D02*
G75*
G02*
X172290534Y-123665534I100000J0D01*
G01*
D17*
%TO.C,Q1*%
X161100000Y-125300000D02*
X160945000Y-125300000D01*
X160945000Y-125300000D02*
X160945000Y-124970000D01*
X160945000Y-123700000D02*
X160945000Y-124030000D01*
X160945000Y-123700000D02*
X161100000Y-123700000D01*
D11*
X163370000Y-125000000D02*
G75*
G02*
X163170000Y-125000000I-100000J0D01*
G01*
X163170000Y-125000000D02*
G75*
G02*
X163370000Y-125000000I100000J0D01*
G01*
D18*
%TO.C,*%
G36*
X141264847Y-97118992D02*
G01*
X141682514Y-97337923D01*
X142036761Y-97651708D01*
X142306419Y-98046531D01*
X142470318Y-98508577D01*
X142507289Y-99024030D01*
X142433227Y-99458493D01*
X142272046Y-99803098D01*
X142000802Y-100152985D01*
X141668058Y-100454176D01*
X141381000Y-100628041D01*
X140924219Y-100757744D01*
X140418458Y-100775878D01*
X139936778Y-100683351D01*
X139751306Y-100607821D01*
X139289147Y-100291457D01*
X138956617Y-99871536D01*
X138763468Y-99364095D01*
X138715860Y-98904886D01*
X138795353Y-98346513D01*
X139028955Y-97858307D01*
X139383377Y-97468120D01*
X139843026Y-97169479D01*
X140323934Y-97020955D01*
X140804931Y-97008731D01*
X141264847Y-97118992D01*
G37*
G36*
X142978487Y-93561036D02*
G01*
X143276362Y-93715109D01*
X143633920Y-93944337D01*
X144021395Y-94226167D01*
X144409022Y-94538050D01*
X144767033Y-94857435D01*
X145065663Y-95161771D01*
X145238710Y-95374884D01*
X145406549Y-95610593D01*
X144356222Y-96334470D01*
X143980586Y-96590521D01*
X143648406Y-96811652D01*
X143387202Y-96979945D01*
X143224495Y-97077482D01*
X143190114Y-97093713D01*
X143074024Y-97055774D01*
X142890771Y-96921320D01*
X142722070Y-96761789D01*
X142460665Y-96521938D01*
X142175824Y-96308656D01*
X142024724Y-96218451D01*
X141679641Y-96042402D01*
X141897677Y-95472035D01*
X142036742Y-95105168D01*
X142200991Y-94667380D01*
X142357392Y-94246757D01*
X142373492Y-94203167D01*
X142527748Y-93820871D01*
X142653124Y-93592417D01*
X142756273Y-93506084D01*
X142770062Y-93504667D01*
X142978487Y-93561036D01*
G37*
G36*
X146068357Y-96970894D02*
G01*
X146160863Y-97187493D01*
X146244363Y-97511542D01*
X146314813Y-97912099D01*
X146368172Y-98358226D01*
X146400396Y-98818980D01*
X146407443Y-99263422D01*
X146385271Y-99660610D01*
X146357887Y-99854667D01*
X146291932Y-100106698D01*
X146201134Y-100226613D01*
X146120303Y-100251147D01*
X145980732Y-100235611D01*
X145712644Y-100182316D01*
X145350647Y-100098935D01*
X144929347Y-99993144D01*
X144783919Y-99954814D01*
X143614838Y-99643000D01*
X143585954Y-98881000D01*
X143569771Y-98521479D01*
X143551283Y-98213751D01*
X143533603Y-98006636D01*
X143527368Y-97962441D01*
X143539376Y-97891665D01*
X143616742Y-97815178D01*
X143780693Y-97721731D01*
X144052453Y-97600076D01*
X144453246Y-97438964D01*
X144683000Y-97349960D01*
X145105343Y-97189945D01*
X145475427Y-97054295D01*
X145762808Y-96953821D01*
X145937042Y-96899333D01*
X145970887Y-96892686D01*
X146068357Y-96970894D01*
G37*
G36*
X140991275Y-93084150D02*
G01*
X141223835Y-93101014D01*
X141334378Y-93134762D01*
X141338572Y-93144834D01*
X141328221Y-93246674D01*
X141299722Y-93486136D01*
X141256801Y-93832925D01*
X141203185Y-94256749D01*
X141169334Y-94520667D01*
X141111488Y-94970710D01*
X141062145Y-95356968D01*
X141024990Y-95650391D01*
X141003711Y-95821929D01*
X141000095Y-95854167D01*
X140923961Y-95866413D01*
X140730033Y-95874056D01*
X140590123Y-95875334D01*
X140120017Y-95923374D01*
X139597431Y-96055238D01*
X139306667Y-96161287D01*
X139235013Y-96142999D01*
X139131283Y-96029474D01*
X138985474Y-95805562D01*
X138787583Y-95456114D01*
X138565834Y-95039271D01*
X138355167Y-94631054D01*
X138175683Y-94273360D01*
X138040911Y-93993945D01*
X137964379Y-93820564D01*
X137952000Y-93779900D01*
X138028191Y-93693198D01*
X138233291Y-93579453D01*
X138532089Y-93453320D01*
X138889374Y-93329450D01*
X139269936Y-93222498D01*
X139320872Y-93210226D01*
X139596664Y-93161041D01*
X139939391Y-93122616D01*
X140311262Y-93096176D01*
X140674487Y-93082946D01*
X140991275Y-93084150D01*
G37*
G36*
X137788493Y-95706000D02*
G01*
X138109250Y-96052643D01*
X138326083Y-96301527D01*
X138449761Y-96479475D01*
X138491047Y-96613309D01*
X138460707Y-96729851D01*
X138369509Y-96855923D01*
X138287770Y-96949901D01*
X137919937Y-97491257D01*
X137689594Y-98100317D01*
X137595502Y-98747685D01*
X137636424Y-99403965D01*
X137811122Y-100039761D01*
X138118359Y-100625678D01*
X138460000Y-101040000D01*
X138997751Y-101465142D01*
X139602063Y-101749570D01*
X140246440Y-101893701D01*
X140904388Y-101897954D01*
X141549409Y-101762746D01*
X142155009Y-101488494D01*
X142694691Y-101075616D01*
X142796871Y-100971658D01*
X142999596Y-100743644D01*
X143152855Y-100550374D01*
X143218586Y-100443522D01*
X143269553Y-100405067D01*
X143392254Y-100422694D01*
X143608351Y-100503779D01*
X143939500Y-100655696D01*
X144167216Y-100766544D01*
X145072913Y-101212754D01*
X144884531Y-101547933D01*
X144498229Y-102093468D01*
X143981037Y-102613420D01*
X143371326Y-103077203D01*
X142707463Y-103454230D01*
X142259911Y-103640116D01*
X141720733Y-103782931D01*
X141101349Y-103871679D01*
X140461763Y-103903218D01*
X139861975Y-103874405D01*
X139391334Y-103790377D01*
X138528986Y-103472894D01*
X137752953Y-103024410D01*
X137075651Y-102460783D01*
X136509501Y-101797872D01*
X136066920Y-101051534D01*
X135760329Y-100237630D01*
X135602147Y-99372017D01*
X135582585Y-98926712D01*
X135658980Y-98042530D01*
X135878198Y-97203118D01*
X136230570Y-96434064D01*
X136706427Y-95760956D01*
X136830448Y-95624374D01*
X137276470Y-95155667D01*
X137788493Y-95706000D01*
G37*
D16*
%TO.C,L1*%
X160145534Y-65810912D02*
X160145534Y-66610156D01*
X161265534Y-65810912D02*
X161265534Y-66610156D01*
%TO.C,R10*%
X145123276Y-75013034D02*
X145597792Y-75013034D01*
X145123276Y-76058034D02*
X145597792Y-76058034D01*
D13*
%TO.C,U1*%
X164290534Y-106275534D02*
X164290534Y-106500534D01*
X164290534Y-106275534D02*
X170040534Y-106275534D01*
X164290534Y-114925534D02*
X164290534Y-114700534D01*
X164290534Y-114925534D02*
X170040534Y-114925534D01*
X170040534Y-106275534D02*
X170040534Y-106500534D01*
X170040534Y-114925534D02*
X170040534Y-114700534D01*
D16*
X163790534Y-106525534D02*
X163550534Y-106195534D01*
X164030534Y-106195534D01*
X163790534Y-106525534D01*
G36*
X163790534Y-106525534D02*
G01*
X163550534Y-106195534D01*
X164030534Y-106195534D01*
X163790534Y-106525534D01*
G37*
%TO.C,C8*%
X169415580Y-74700534D02*
X169134420Y-74700534D01*
X169415580Y-75720534D02*
X169134420Y-75720534D01*
D11*
%TO.C,J5*%
X139000000Y-125950000D02*
X139900000Y-125950000D01*
X139000000Y-126800000D02*
X139000000Y-125950000D01*
D12*
X140500000Y-125000000D02*
X140500000Y-125000000D01*
X140500000Y-125100000D02*
X140500000Y-125100000D01*
D11*
X141700000Y-128450000D02*
X140100000Y-128450000D01*
X141900000Y-125950000D02*
X142800000Y-125950000D01*
X142800000Y-125950000D02*
X142800000Y-126800000D01*
D12*
X140500000Y-125000000D02*
G75*
G02*
X140500000Y-125100000I0J-50000D01*
G01*
X140500000Y-125100000D02*
G75*
G02*
X140500000Y-125000000I0J50000D01*
G01*
D17*
%TO.C,R4*%
X162805534Y-70735534D02*
X162805534Y-70685534D01*
X163605534Y-70685534D02*
X163605534Y-70735534D01*
D16*
%TO.C,C5*%
X162695534Y-63349954D02*
X162695534Y-63631114D01*
X163715534Y-63349954D02*
X163715534Y-63631114D01*
%TO.C,R13*%
X147272792Y-82013034D02*
X146798276Y-82013034D01*
X147272792Y-83058034D02*
X146798276Y-83058034D01*
D11*
%TO.C,J8*%
X148915534Y-80535534D02*
X148915534Y-120280534D01*
X148915534Y-120280534D02*
X151615534Y-120280534D01*
X151615534Y-78890534D02*
X150265534Y-78890534D01*
X151615534Y-120280534D02*
X151615534Y-78890534D01*
%TO.C,J1*%
X129935534Y-95235534D02*
X129935534Y-90835534D01*
X131835534Y-89535534D02*
X132435534Y-89535534D01*
X132435534Y-89535534D02*
X132435534Y-90435534D01*
X132435534Y-95635534D02*
X132435534Y-96535534D01*
X132435534Y-96535534D02*
X131835534Y-96535534D01*
D12*
X133435534Y-91035534D02*
X133435534Y-91035534D01*
X133535534Y-91035534D02*
X133535534Y-91035534D01*
X133435534Y-91035534D02*
G75*
G02*
X133535534Y-91035534I50000J0D01*
G01*
X133535534Y-91035534D02*
G75*
G02*
X133435534Y-91035534I-50000J0D01*
G01*
D16*
%TO.C,R2*%
X157022500Y-93262742D02*
X157022500Y-93737258D01*
X155977500Y-93262742D02*
X155977500Y-93737258D01*
D11*
%TO.C,J10*%
X129935534Y-68435534D02*
X129935534Y-64035534D01*
X131835534Y-62735534D02*
X132435534Y-62735534D01*
X132435534Y-62735534D02*
X132435534Y-63635534D01*
X132435534Y-68835534D02*
X132435534Y-69735534D01*
X132435534Y-69735534D02*
X131835534Y-69735534D01*
D12*
X133435534Y-64235534D02*
X133435534Y-64235534D01*
X133535534Y-64235534D02*
X133535534Y-64235534D01*
X133435534Y-64235534D02*
G75*
G02*
X133535534Y-64235534I50000J0D01*
G01*
X133535534Y-64235534D02*
G75*
G02*
X133435534Y-64235534I-50000J0D01*
G01*
D17*
%TO.C,J11*%
X129685534Y-103455534D02*
X129685534Y-106615534D01*
X131305534Y-102335534D02*
X132185534Y-102335534D01*
X132185534Y-102335534D02*
X132185534Y-103265534D01*
X132185534Y-106805534D02*
X132185534Y-107735534D01*
X132185534Y-107735534D02*
X131305534Y-107735534D01*
D11*
X132621274Y-102946534D02*
G75*
G02*
X132421274Y-102946534I-100000J0D01*
G01*
X132421274Y-102946534D02*
G75*
G02*
X132621274Y-102946534I100000J0D01*
G01*
D16*
%TO.C,R9*%
X146657792Y-77053034D02*
X146183276Y-77053034D01*
X146657792Y-78098034D02*
X146183276Y-78098034D01*
%TO.C,DNP3*%
X165298276Y-59013034D02*
X165772792Y-59013034D01*
X165298276Y-60058034D02*
X165772792Y-60058034D01*
D11*
%TO.C,J4*%
X153800000Y-126000000D02*
X154700000Y-126000000D01*
X153800000Y-126850000D02*
X153800000Y-126000000D01*
D12*
X155300000Y-125050000D02*
X155300000Y-125050000D01*
X155300000Y-125150000D02*
X155300000Y-125150000D01*
D11*
X156500000Y-128500000D02*
X154900000Y-128500000D01*
X156700000Y-126000000D02*
X157600000Y-126000000D01*
X157600000Y-126000000D02*
X157600000Y-126850000D01*
D12*
X155300000Y-125050000D02*
G75*
G02*
X155300000Y-125150000I0J-50000D01*
G01*
X155300000Y-125150000D02*
G75*
G02*
X155300000Y-125050000I0J50000D01*
G01*
D16*
%TO.C,C3*%
X160195534Y-62634420D02*
X160195534Y-62915580D01*
X161215534Y-62634420D02*
X161215534Y-62915580D01*
D19*
%TO.C,J7*%
X140412735Y-54408534D02*
X140412735Y-58199494D01*
X140412735Y-60871574D02*
X140412735Y-64349495D01*
X140412735Y-67021575D02*
X140412735Y-69369134D01*
X140412735Y-69369134D02*
X149658335Y-69369134D01*
X149658335Y-54408534D02*
X140412735Y-54408534D01*
X149658335Y-58199494D02*
X149658335Y-54408534D01*
X149658335Y-64349495D02*
X149658335Y-60871574D01*
X149658335Y-69369134D02*
X149658335Y-67021575D01*
D16*
%TO.C,C9*%
X176140580Y-67490000D02*
X175859420Y-67490000D01*
X176140580Y-68510000D02*
X175859420Y-68510000D01*
%TO.C,R15*%
X164780810Y-99013034D02*
X165290258Y-99013034D01*
X164780810Y-100058034D02*
X165290258Y-100058034D01*
%TO.C,C4*%
X166627114Y-61200534D02*
X166345954Y-61200534D01*
X166627114Y-62220534D02*
X166345954Y-62220534D01*
D11*
%TO.C,J2*%
X130085534Y-75635534D02*
X130085534Y-82035534D01*
X131735534Y-74535534D02*
X132585534Y-74535534D01*
X132585534Y-74535534D02*
X132585534Y-75435534D01*
X132585534Y-82235534D02*
X132585534Y-83135534D01*
X132585534Y-83135534D02*
X131735534Y-83135534D01*
D12*
X133435534Y-76035534D02*
X133435534Y-76035534D01*
X133535534Y-76035534D02*
X133535534Y-76035534D01*
X133435534Y-76035534D02*
G75*
G02*
X133535534Y-76035534I50000J0D01*
G01*
X133535534Y-76035534D02*
G75*
G02*
X133435534Y-76035534I-50000J0D01*
G01*
D17*
%TO.C,R6*%
X166180534Y-74810534D02*
X166230534Y-74810534D01*
X166230534Y-75610534D02*
X166180534Y-75610534D01*
D11*
%TO.C,J3*%
X130085534Y-114135534D02*
X130085534Y-120535534D01*
X131735534Y-113035534D02*
X132585534Y-113035534D01*
X132585534Y-113035534D02*
X132585534Y-113935534D01*
X132585534Y-120735534D02*
X132585534Y-121635534D01*
X132585534Y-121635534D02*
X131735534Y-121635534D01*
D12*
X133435534Y-114535534D02*
X133435534Y-114535534D01*
X133535534Y-114535534D02*
X133535534Y-114535534D01*
X133435534Y-114535534D02*
G75*
G02*
X133535534Y-114535534I50000J0D01*
G01*
X133535534Y-114535534D02*
G75*
G02*
X133435534Y-114535534I-50000J0D01*
G01*
D17*
%TO.C,R5*%
X162805534Y-74235534D02*
X162805534Y-74185534D01*
X163605534Y-74185534D02*
X163605534Y-74235534D01*
D16*
%TO.C,C6*%
X175859420Y-65490000D02*
X176140580Y-65490000D01*
X175859420Y-66510000D02*
X176140580Y-66510000D01*
%TO.C,C7*%
X175564954Y-63490000D02*
X175846114Y-63490000D01*
X175564954Y-64510000D02*
X175846114Y-64510000D01*
D11*
%TO.C,J9*%
X174415534Y-79070534D02*
X174415534Y-120460534D01*
X174415534Y-120460534D02*
X175765534Y-120460534D01*
X177115534Y-79070534D02*
X174415534Y-79070534D01*
X177115534Y-118815534D02*
X177115534Y-79070534D01*
D17*
%TO.C,R7*%
X173180534Y-60810534D02*
X173230534Y-60810534D01*
X173230534Y-61610534D02*
X173180534Y-61610534D01*
D16*
%TO.C,C1*%
X161154282Y-89160534D02*
X161676786Y-89160534D01*
X161154282Y-90630534D02*
X161676786Y-90630534D01*
%TO.C,R11*%
X150447792Y-77053034D02*
X149973276Y-77053034D01*
X150447792Y-78098034D02*
X149973276Y-78098034D01*
%TO.C,R8*%
X169433276Y-96873034D02*
X169907792Y-96873034D01*
X169433276Y-97918034D02*
X169907792Y-97918034D01*
D17*
%TO.C,U3*%
X167585534Y-62975534D02*
X171485534Y-62975534D01*
X167585534Y-73095534D02*
X171485534Y-73095534D01*
D11*
X165385534Y-63000534D02*
G75*
G02*
X165185534Y-63000534I-100000J0D01*
G01*
X165185534Y-63000534D02*
G75*
G02*
X165385534Y-63000534I100000J0D01*
G01*
D16*
%TO.C,DNP1*%
X154298276Y-59013034D02*
X154772792Y-59013034D01*
X154298276Y-60058034D02*
X154772792Y-60058034D01*
%TO.C,DNP2*%
X154772792Y-60513034D02*
X154298276Y-60513034D01*
X154772792Y-61558034D02*
X154298276Y-61558034D01*
%TO.C,C2*%
X161249954Y-93385534D02*
X161531114Y-93385534D01*
X161249954Y-94405534D02*
X161531114Y-94405534D01*
D12*
%TO.C,J6*%
X147800000Y-125150000D02*
G75*
G02*
X147800000Y-125050000I0J50000D01*
G01*
X147800000Y-125050000D02*
G75*
G02*
X147800000Y-125150000I0J-50000D01*
G01*
D11*
X150100000Y-126000000D02*
X150100000Y-126850000D01*
X149200000Y-126000000D02*
X150100000Y-126000000D01*
X149000000Y-128500000D02*
X147400000Y-128500000D01*
D12*
X147800000Y-125150000D02*
X147800000Y-125150000D01*
X147800000Y-125050000D02*
X147800000Y-125050000D01*
D11*
X146300000Y-126850000D02*
X146300000Y-126000000D01*
X146300000Y-126000000D02*
X147200000Y-126000000D01*
D16*
%TO.C,R14*%
X171780810Y-99013034D02*
X172290258Y-99013034D01*
X171780810Y-100058034D02*
X172290258Y-100058034D01*
D17*
%TO.C,R3*%
X162755534Y-67320534D02*
X162755534Y-67100534D01*
X163655534Y-67320534D02*
X163655534Y-67100534D01*
D16*
%TO.C,R12*%
X146772792Y-78513034D02*
X146298276Y-78513034D01*
X146772792Y-79558034D02*
X146298276Y-79558034D01*
%TD*%
M02*
